<svg width="331" height="86" viewBox="0 0 331 86" fill="none" xmlns="http://www.w3.org/2000/svg">
<path d="M1.82 10.78C1.484 10.78 1.176 10.7007 0.896003 10.542C0.625337 10.374 0.406004 10.1547 0.238004 9.884C0.0793368 9.604 3.44217e-06 9.296 3.44217e-06 8.96V2.52C3.44217e-06 2.184 0.0793368 1.88066 0.238004 1.61C0.406004 1.33 0.625337 1.11066 0.896003 0.951998C1.176 0.783998 1.484 0.699998 1.82 0.699998H10.052V2.212H2.03C1.88067 2.212 1.75467 2.26333 1.652 2.366C1.55867 2.45933 1.512 2.58067 1.512 2.73V8.75C1.512 8.89933 1.55867 9.02533 1.652 9.128C1.75467 9.22133 1.88067 9.268 2.03 9.268H10.052V10.78H1.82ZM13.2617 10.78C12.9257 10.78 12.6224 10.696 12.3517 10.528C12.0811 10.36 11.8617 10.1407 11.6937 9.87C11.5257 9.59933 11.4417 9.296 11.4417 8.96V4.48C11.4417 4.144 11.5257 3.84066 11.6937 3.57C11.8617 3.29933 12.0811 3.08 12.3517 2.912C12.6224 2.744 12.9257 2.66 13.2617 2.66H17.8817C18.2177 2.66 18.5211 2.744 18.7917 2.912C19.0717 3.07067 19.2911 3.29 19.4497 3.57C19.6177 3.85 19.7017 4.15333 19.7017 4.48V8.96C19.7017 9.296 19.6177 9.59933 19.4497 9.87C19.2911 10.1407 19.0717 10.36 18.7917 10.528C18.5211 10.696 18.2177 10.78 17.8817 10.78H13.2617ZM13.3037 9.268H17.8397C17.9331 9.268 18.0124 9.23533 18.0777 9.17C18.1431 9.09533 18.1757 9.01133 18.1757 8.918V4.522C18.1757 4.42867 18.1431 4.34933 18.0777 4.284C18.0124 4.20933 17.9331 4.172 17.8397 4.172H13.3037C13.2104 4.172 13.1264 4.20933 13.0517 4.284C12.9864 4.34933 12.9537 4.42867 12.9537 4.522V8.918C12.9537 9.01133 12.9864 9.09533 13.0517 9.17C13.1264 9.23533 13.2104 9.268 13.3037 9.268ZM21.1771 10.78V2.66H31.5511C31.8964 2.66 32.2044 2.744 32.4751 2.912C32.7457 3.08 32.9604 3.29933 33.1191 3.57C33.2871 3.84066 33.3711 4.144 33.3711 4.48V10.78H31.8731V4.522C31.8731 4.42867 31.8357 4.34933 31.7611 4.284C31.6957 4.20933 31.6164 4.172 31.5231 4.172H28.4011C28.2984 4.172 28.2144 4.20933 28.1491 4.284C28.0837 4.34933 28.0511 4.42867 28.0511 4.522V10.78H26.5251V4.522C26.5251 4.42867 26.4877 4.34933 26.4131 4.284C26.3477 4.20933 26.2684 4.172 26.1751 4.172H23.0391C22.9457 4.172 22.8664 4.20933 22.8011 4.284C22.7357 4.34933 22.7031 4.42867 22.7031 4.522V10.78H21.1771ZM34.5755 14V2.66H41.0155C41.3515 2.66 41.6549 2.744 41.9255 2.912C42.2055 3.08 42.4249 3.29933 42.5835 3.57C42.7515 3.84066 42.8355 4.144 42.8355 4.48V8.96C42.8355 9.296 42.7515 9.59933 42.5835 9.87C42.4249 10.1407 42.2055 10.36 41.9255 10.528C41.6549 10.696 41.3515 10.78 41.0155 10.78H36.0875V14H34.5755ZM36.4375 9.268H40.9735C41.0669 9.268 41.1462 9.23533 41.2115 9.17C41.2862 9.09533 41.3235 9.01133 41.3235 8.918V4.522C41.3235 4.42867 41.2862 4.34933 41.2115 4.284C41.1462 4.20933 41.0669 4.172 40.9735 4.172H36.4375C36.3442 4.172 36.2602 4.20933 36.1855 4.284C36.1202 4.34933 36.0875 4.42867 36.0875 4.522V8.918C36.0875 9.01133 36.1202 9.09533 36.1855 9.17C36.2602 9.23533 36.3442 9.268 36.4375 9.268ZM45.6784 10.78C45.3424 10.78 45.0344 10.696 44.7544 10.528C44.4837 10.36 44.2644 10.1407 44.0964 9.87C43.9377 9.59933 43.8584 9.296 43.8584 8.96V2.66H45.3704V8.918C45.3704 9.01133 45.4031 9.09533 45.4684 9.17C45.5431 9.23533 45.6271 9.268 45.7204 9.268H50.2564C50.3497 9.268 50.4291 9.23533 50.4944 9.17C50.5691 9.09533 50.6064 9.01133 50.6064 8.918V2.66H52.1184V8.96C52.1184 9.296 52.0344 9.59933 51.8664 9.87C51.7077 10.1407 51.4884 10.36 51.2084 10.528C50.9377 10.696 50.6344 10.78 50.2984 10.78H45.6784ZM55.153 10.78C54.817 10.78 54.509 10.696 54.229 10.528C53.9583 10.36 53.739 10.1407 53.571 9.87C53.4123 9.59933 53.333 9.296 53.333 8.96V0.0979986H54.845V2.66H58.177V4.172H54.845V8.918C54.845 9.01133 54.8777 9.09533 54.943 9.17C55.0177 9.23533 55.1017 9.268 55.195 9.268H58.177V10.78H55.153ZM61.0723 10.78C60.7363 10.78 60.4329 10.696 60.1623 10.528C59.8916 10.36 59.6723 10.1407 59.5043 9.87C59.3363 9.59933 59.2523 9.296 59.2523 8.96V4.48C59.2523 4.144 59.3363 3.84066 59.5043 3.57C59.6723 3.29933 59.8916 3.08 60.1623 2.912C60.4329 2.744 60.7363 2.66 61.0723 2.66H65.6923C66.0283 2.66 66.3316 2.744 66.6023 2.912C66.8823 3.07067 67.1016 3.29 67.2603 3.57C67.4283 3.85 67.5123 4.15333 67.5123 4.48V7.476H60.7643V8.918C60.7643 9.01133 60.7969 9.09533 60.8623 9.17C60.9369 9.23533 61.0209 9.268 61.1143 9.268H67.5123V10.78H61.0723ZM60.7643 6.062H65.9863V4.522C65.9863 4.42867 65.9536 4.34933 65.8883 4.284C65.8229 4.20933 65.7436 4.172 65.6503 4.172H61.1143C61.0209 4.172 60.9369 4.20933 60.8623 4.284C60.7969 4.34933 60.7643 4.42867 60.7643 4.522V6.062ZM68.8776 10.78V4.48C68.8776 4.144 68.9616 3.84066 69.1296 3.57C69.2976 3.29933 69.5169 3.08 69.7876 2.912C70.0676 2.744 70.3709 2.66 70.6976 2.66H75.2336V4.172H70.7396C70.6463 4.172 70.5623 4.20933 70.4876 4.284C70.4223 4.34933 70.3896 4.42867 70.3896 4.522V10.78H68.8776ZM81.9906 10.78C81.6639 10.78 81.3606 10.7007 81.0806 10.542C80.8006 10.374 80.5766 10.1547 80.4086 9.884C80.2499 9.604 80.1706 9.296 80.1706 8.96V8.372H81.6826V8.918C81.6826 9.01133 81.7152 9.09533 81.7806 9.17C81.8552 9.23533 81.9392 9.268 82.0326 9.268H88.3886C88.4819 9.268 88.5612 9.23533 88.6266 9.17C88.6919 9.09533 88.7246 9.01133 88.7246 8.918V6.846C88.7246 6.74333 88.6919 6.65933 88.6266 6.594C88.5612 6.52867 88.4819 6.496 88.3886 6.496H81.9906C81.6639 6.496 81.3606 6.41667 81.0806 6.258C80.8006 6.09 80.5766 5.87067 80.4086 5.6C80.2499 5.32 80.1706 5.012 80.1706 4.676V2.52C80.1706 2.184 80.2499 1.88066 80.4086 1.61C80.5766 1.33 80.8006 1.11066 81.0806 0.951998C81.3606 0.783998 81.6639 0.699998 81.9906 0.699998H88.4306C88.7572 0.699998 89.0606 0.783998 89.3406 0.951998C89.6206 1.11066 89.8399 1.33 89.9986 1.61C90.1666 1.88066 90.2506 2.184 90.2506 2.52V3.108H88.7246V2.562C88.7246 2.46867 88.6919 2.38933 88.6266 2.324C88.5612 2.24933 88.4819 2.212 88.3886 2.212H82.0326C81.9392 2.212 81.8552 2.24933 81.7806 2.324C81.7152 2.38933 81.6826 2.46867 81.6826 2.562V4.634C81.6826 4.73667 81.7152 4.82066 81.7806 4.886C81.8552 4.95133 81.9392 4.984 82.0326 4.984H88.4306C88.7572 4.984 89.0606 5.068 89.3406 5.236C89.6206 5.39467 89.8399 5.614 89.9986 5.894C90.1666 6.16467 90.2506 6.468 90.2506 6.804V8.96C90.2506 9.296 90.1666 9.604 89.9986 9.884C89.8399 10.1547 89.6206 10.374 89.3406 10.542C89.0606 10.7007 88.7572 10.78 88.4306 10.78H81.9906ZM93.5156 10.78C93.1796 10.78 92.8763 10.696 92.6056 10.528C92.335 10.36 92.1156 10.1407 91.9476 9.87C91.7796 9.59933 91.6956 9.296 91.6956 8.96V4.48C91.6956 4.144 91.7796 3.84066 91.9476 3.57C92.1156 3.29933 92.335 3.08 92.6056 2.912C92.8763 2.744 93.1796 2.66 93.5156 2.66H99.9276V4.172H93.5576C93.4643 4.172 93.3803 4.20933 93.3056 4.284C93.2403 4.34933 93.2076 4.42867 93.2076 4.522V8.918C93.2076 9.01133 93.2403 9.09533 93.3056 9.17C93.3803 9.23533 93.4643 9.268 93.5576 9.268H99.9556V10.78H93.5156ZM101.444 10.78V2.66H102.956V10.78H101.444ZM101.444 1.512V-1.78814e-06H102.956V1.512H101.444ZM106.326 10.78C105.99 10.78 105.687 10.696 105.416 10.528C105.146 10.36 104.926 10.1407 104.758 9.87C104.59 9.59933 104.506 9.296 104.506 8.96V4.48C104.506 4.144 104.59 3.84066 104.758 3.57C104.926 3.29933 105.146 3.08 105.416 2.912C105.687 2.744 105.99 2.66 106.326 2.66H110.946C111.282 2.66 111.586 2.744 111.856 2.912C112.136 3.07067 112.356 3.29 112.514 3.57C112.682 3.85 112.766 4.15333 112.766 4.48V7.476H106.018V8.918C106.018 9.01133 106.051 9.09533 106.116 9.17C106.191 9.23533 106.275 9.268 106.368 9.268H112.766V10.78H106.326ZM106.018 6.062H111.24V4.522C111.24 4.42867 111.208 4.34933 111.142 4.284C111.077 4.20933 110.998 4.172 110.904 4.172H106.368C106.275 4.172 106.191 4.20933 106.116 4.284C106.051 4.34933 106.018 4.42867 106.018 4.522V6.062ZM114.242 10.78V2.66H120.682C121.018 2.66 121.321 2.744 121.592 2.912C121.872 3.08 122.091 3.29933 122.25 3.57C122.418 3.84066 122.502 4.144 122.502 4.48V10.78H120.99V4.522C120.99 4.42867 120.952 4.34933 120.878 4.284C120.812 4.20933 120.733 4.172 120.64 4.172H116.104C116.01 4.172 115.926 4.20933 115.852 4.284C115.786 4.34933 115.754 4.42867 115.754 4.522V10.78H114.242ZM125.467 10.78C125.131 10.78 124.827 10.696 124.557 10.528C124.286 10.36 124.067 10.1407 123.899 9.87C123.731 9.59933 123.647 9.296 123.647 8.96V4.48C123.647 4.144 123.731 3.84066 123.899 3.57C124.067 3.29933 124.286 3.08 124.557 2.912C124.827 2.744 125.131 2.66 125.467 2.66H131.879V4.172H125.509C125.415 4.172 125.331 4.20933 125.257 4.284C125.191 4.34933 125.159 4.42867 125.159 4.522V8.918C125.159 9.01133 125.191 9.09533 125.257 9.17C125.331 9.23533 125.415 9.268 125.509 9.268H131.907V10.78H125.467ZM134.846 10.78C134.51 10.78 134.206 10.696 133.936 10.528C133.665 10.36 133.446 10.1407 133.278 9.87C133.11 9.59933 133.026 9.296 133.026 8.96V4.48C133.026 4.144 133.11 3.84066 133.278 3.57C133.446 3.29933 133.665 3.08 133.936 2.912C134.206 2.744 134.51 2.66 134.846 2.66H139.466C139.802 2.66 140.105 2.744 140.376 2.912C140.656 3.07067 140.875 3.29 141.034 3.57C141.202 3.85 141.286 4.15333 141.286 4.48V7.476H134.538V8.918C134.538 9.01133 134.57 9.09533 134.636 9.17C134.71 9.23533 134.794 9.268 134.888 9.268H141.286V10.78H134.846ZM134.538 6.062H139.76V4.522C139.76 4.42867 139.727 4.34933 139.662 4.284C139.596 4.20933 139.517 4.172 139.424 4.172H134.888C134.794 4.172 134.71 4.20933 134.636 4.284C134.57 4.34933 134.538 4.42867 134.538 4.522V6.062ZM148.558 10.78C148.222 10.78 147.918 10.696 147.648 10.528C147.377 10.36 147.158 10.1407 146.99 9.87C146.822 9.59933 146.738 9.296 146.738 8.96V8.75H148.25V8.918C148.25 9.01133 148.282 9.09533 148.348 9.17C148.422 9.23533 148.506 9.268 148.6 9.268H153.136C153.229 9.268 153.308 9.23533 153.374 9.17C153.439 9.09533 153.472 9.01133 153.472 8.918V7.826C153.472 7.73267 153.439 7.65333 153.374 7.588C153.308 7.51333 153.229 7.476 153.136 7.476H148.558C148.222 7.476 147.918 7.39667 147.648 7.238C147.377 7.07 147.158 6.85067 146.99 6.58C146.822 6.3 146.738 5.992 146.738 5.656V4.48C146.738 4.144 146.822 3.84066 146.99 3.57C147.158 3.29933 147.377 3.08 147.648 2.912C147.918 2.744 148.222 2.66 148.558 2.66H153.178C153.514 2.66 153.817 2.744 154.088 2.912C154.368 3.08 154.587 3.29933 154.746 3.57C154.914 3.84066 154.998 4.144 154.998 4.48V4.69H153.472V4.522C153.472 4.42867 153.439 4.34933 153.374 4.284C153.308 4.20933 153.229 4.172 153.136 4.172H148.6C148.506 4.172 148.422 4.20933 148.348 4.284C148.282 4.34933 148.25 4.42867 148.25 4.522V5.614C148.25 5.70733 148.282 5.79133 148.348 5.866C148.422 5.93133 148.506 5.964 148.6 5.964H153.178C153.514 5.964 153.817 6.048 154.088 6.216C154.368 6.37467 154.587 6.594 154.746 6.874C154.914 7.14467 154.998 7.448 154.998 7.784V8.96C154.998 9.296 154.914 9.59933 154.746 9.87C154.587 10.1407 154.368 10.36 154.088 10.528C153.817 10.696 153.514 10.78 153.178 10.78H148.558ZM158.225 10.78C157.889 10.78 157.581 10.696 157.301 10.528C157.031 10.36 156.811 10.1407 156.643 9.87C156.485 9.59933 156.405 9.296 156.405 8.96V0.0979986H157.917V2.66H161.249V4.172H157.917V8.918C157.917 9.01133 157.95 9.09533 158.015 9.17C158.09 9.23533 158.174 9.268 158.267 9.268H161.249V10.78H158.225ZM164.173 10.78C163.837 10.78 163.529 10.696 163.249 10.528C162.978 10.36 162.759 10.1407 162.591 9.87C162.432 9.59933 162.353 9.296 162.353 8.96V2.66H163.865V8.918C163.865 9.01133 163.897 9.09533 163.963 9.17C164.037 9.23533 164.121 9.268 164.215 9.268H168.751C168.844 9.268 168.923 9.23533 168.989 9.17C169.063 9.09533 169.101 9.01133 169.101 8.918V2.66H170.613V8.96C170.613 9.296 170.529 9.59933 170.361 9.87C170.202 10.1407 169.983 10.36 169.703 10.528C169.432 10.696 169.129 10.78 168.793 10.78H164.173ZM173.569 10.78C173.233 10.78 172.925 10.7007 172.645 10.542C172.374 10.374 172.155 10.15 171.987 9.87C171.828 9.59 171.749 9.28667 171.749 8.96V4.48C171.749 4.144 171.828 3.84066 171.987 3.57C172.155 3.29933 172.374 3.08 172.645 2.912C172.925 2.744 173.233 2.66 173.569 2.66H178.497V-1.78814e-06H180.009V10.78H173.569ZM173.625 9.268H178.161C178.254 9.268 178.334 9.23533 178.399 9.17C178.464 9.09533 178.497 9.01133 178.497 8.918V4.522C178.497 4.42867 178.464 4.34933 178.399 4.284C178.334 4.20933 178.254 4.172 178.161 4.172H173.625C173.532 4.172 173.448 4.20933 173.373 4.284C173.308 4.34933 173.275 4.42867 173.275 4.522V8.918C173.275 9.01133 173.308 9.09533 173.373 9.17C173.448 9.23533 173.532 9.268 173.625 9.268ZM183.012 10.78C182.676 10.78 182.372 10.696 182.102 10.528C181.831 10.36 181.612 10.1407 181.444 9.87C181.276 9.59933 181.192 9.296 181.192 8.96V4.48C181.192 4.144 181.276 3.84066 181.444 3.57C181.612 3.29933 181.831 3.08 182.102 2.912C182.372 2.744 182.676 2.66 183.012 2.66H187.632C187.968 2.66 188.271 2.744 188.542 2.912C188.822 3.07067 189.041 3.29 189.2 3.57C189.368 3.85 189.452 4.15333 189.452 4.48V7.476H182.704V8.918C182.704 9.01133 182.736 9.09533 182.802 9.17C182.876 9.23533 182.96 9.268 183.054 9.268H189.452V10.78H183.012ZM182.704 6.062H187.926V4.522C187.926 4.42867 187.893 4.34933 187.828 4.284C187.762 4.20933 187.683 4.172 187.59 4.172H183.054C182.96 4.172 182.876 4.20933 182.802 4.284C182.736 4.34933 182.704 4.42867 182.704 4.522V6.062ZM190.927 10.78V2.66H197.367C197.703 2.66 198.006 2.744 198.277 2.912C198.557 3.08 198.776 3.29933 198.935 3.57C199.103 3.84066 199.187 4.144 199.187 4.48V10.78H197.675V4.522C197.675 4.42867 197.638 4.34933 197.563 4.284C197.498 4.20933 197.418 4.172 197.325 4.172H192.789C192.696 4.172 192.612 4.20933 192.537 4.284C192.472 4.34933 192.439 4.42867 192.439 4.522V10.78H190.927ZM202.481 10.78C202.145 10.78 201.837 10.696 201.557 10.528C201.286 10.36 201.067 10.1407 200.899 9.87C200.74 9.59933 200.661 9.296 200.661 8.96V0.0979986H202.173V2.66H205.505V4.172H202.173V8.918C202.173 9.01133 202.206 9.09533 202.271 9.17C202.346 9.23533 202.43 9.268 202.523 9.268H205.505V10.78H202.481ZM212.475 10.78C212.139 10.78 211.831 10.696 211.551 10.528C211.28 10.36 211.061 10.1407 210.893 9.87C210.734 9.59933 210.655 9.296 210.655 8.96V2.52C210.655 2.184 210.734 1.88066 210.893 1.61C211.061 1.33 211.28 1.11066 211.551 0.951998C211.831 0.783998 212.139 0.699998 212.475 0.699998H213.063V2.226H212.517C212.424 2.226 212.34 2.25867 212.265 2.324C212.2 2.38933 212.167 2.46867 212.167 2.562V8.918C212.167 9.01133 212.2 9.09533 212.265 9.17C212.34 9.23533 212.424 9.268 212.517 9.268H213.063V10.78H212.475ZM216.468 10.78C216.122 10.78 215.814 10.696 215.544 10.528C215.273 10.36 215.054 10.1407 214.886 9.87C214.718 9.59933 214.634 9.296 214.634 8.96V8.54H216.16V8.918C216.16 9.01133 216.192 9.09533 216.258 9.17C216.323 9.23533 216.402 9.268 216.496 9.268H222.866C222.959 9.268 223.038 9.23533 223.104 9.17C223.169 9.09533 223.202 9.01133 223.202 8.918V6.762C223.202 6.66867 223.169 6.58933 223.104 6.524C223.038 6.44933 222.959 6.412 222.866 6.412H216.468V4.9H222.432C222.534 4.9 222.618 4.86733 222.684 4.802C222.749 4.72733 222.782 4.64333 222.782 4.55V2.562C222.782 2.46867 222.749 2.38933 222.684 2.324C222.618 2.24933 222.534 2.212 222.432 2.212H216.496C216.402 2.212 216.323 2.24933 216.258 2.324C216.192 2.38933 216.16 2.46867 216.16 2.562V3.08H214.634V2.52C214.634 2.17466 214.713 1.86667 214.872 1.596C215.04 1.32533 215.264 1.106 215.544 0.937999C215.824 0.769999 216.132 0.685999 216.468 0.685999H222.474C222.819 0.685999 223.127 0.769999 223.398 0.937999C223.678 1.106 223.897 1.32533 224.056 1.596C224.214 1.86667 224.294 2.17466 224.294 2.52V4.592C224.294 4.71333 224.28 4.83467 224.252 4.956C224.233 5.07733 224.2 5.18933 224.154 5.292C224.359 5.49733 224.504 5.726 224.588 5.978C224.672 6.23 224.714 6.47733 224.714 6.72V8.96C224.714 9.296 224.63 9.59933 224.462 9.87C224.303 10.1407 224.084 10.36 223.804 10.528C223.533 10.696 223.234 10.78 222.908 10.78H216.468ZM226.186 10.78V4.48C226.186 4.144 226.27 3.84066 226.438 3.57C226.606 3.29933 226.826 3.08 227.096 2.912C227.376 2.744 227.68 2.66 228.006 2.66H232.542V4.172H228.048C227.955 4.172 227.871 4.20933 227.796 4.284C227.731 4.34933 227.698 4.42867 227.698 4.522V10.78H226.186ZM234.997 10.78C234.661 10.78 234.353 10.7007 234.073 10.542C233.802 10.374 233.583 10.15 233.415 9.87C233.256 9.59 233.177 9.28667 233.177 8.96V4.48C233.177 4.144 233.256 3.84066 233.415 3.57C233.583 3.29933 233.802 3.08 234.073 2.912C234.353 2.744 234.661 2.66 234.997 2.66H239.925V-1.78814e-06H241.437V10.78H234.997ZM235.053 9.268H239.589C239.682 9.268 239.761 9.23533 239.827 9.17C239.892 9.09533 239.925 9.01133 239.925 8.918V4.522C239.925 4.42867 239.892 4.34933 239.827 4.284C239.761 4.20933 239.682 4.172 239.589 4.172H235.053C234.959 4.172 234.875 4.20933 234.801 4.284C234.735 4.34933 234.703 4.42867 234.703 4.522V8.918C234.703 9.01133 234.735 9.09533 234.801 9.17C234.875 9.23533 234.959 9.268 235.053 9.268ZM247.009 14V2.66H253.449C253.785 2.66 254.088 2.744 254.359 2.912C254.639 3.08 254.858 3.29933 255.017 3.57C255.185 3.84066 255.269 4.144 255.269 4.48V8.96C255.269 9.296 255.185 9.59933 255.017 9.87C254.858 10.1407 254.639 10.36 254.359 10.528C254.088 10.696 253.785 10.78 253.449 10.78H248.521V14H247.009ZM248.871 9.268H253.407C253.5 9.268 253.58 9.23533 253.645 9.17C253.72 9.09533 253.757 9.01133 253.757 8.918V4.522C253.757 4.42867 253.72 4.34933 253.645 4.284C253.58 4.20933 253.5 4.172 253.407 4.172H248.871C248.778 4.172 248.694 4.20933 248.619 4.284C248.554 4.34933 248.521 4.42867 248.521 4.522V8.918C248.521 9.01133 248.554 9.09533 248.619 9.17C248.694 9.23533 248.778 9.268 248.871 9.268ZM258.084 10.78C257.748 10.78 257.445 10.696 257.174 10.528C256.903 10.36 256.684 10.1407 256.516 9.87C256.348 9.59933 256.264 9.296 256.264 8.96V4.48C256.264 4.144 256.348 3.84066 256.516 3.57C256.684 3.29933 256.903 3.08 257.174 2.912C257.445 2.744 257.748 2.66 258.084 2.66H262.704C263.04 2.66 263.343 2.744 263.614 2.912C263.894 3.07067 264.113 3.29 264.272 3.57C264.44 3.85 264.524 4.15333 264.524 4.48V7.476H257.776V8.918C257.776 9.01133 257.809 9.09533 257.874 9.17C257.949 9.23533 258.033 9.268 258.126 9.268H264.524V10.78H258.084ZM257.776 6.062H262.998V4.522C262.998 4.42867 262.965 4.34933 262.9 4.284C262.835 4.20933 262.755 4.172 262.662 4.172H258.126C258.033 4.172 257.949 4.20933 257.874 4.284C257.809 4.34933 257.776 4.42867 257.776 4.522V6.062ZM265.889 10.78V4.48C265.889 4.144 265.973 3.84066 266.141 3.57C266.309 3.29933 266.529 3.08 266.799 2.912C267.079 2.744 267.383 2.66 267.709 2.66H272.245V4.172H267.751C267.658 4.172 267.574 4.20933 267.499 4.284C267.434 4.34933 267.401 4.42867 267.401 4.522V10.78H265.889ZM273.217 10.78V2.66H274.729V10.78H273.217ZM273.217 1.512V-1.78814e-06H274.729V1.512H273.217ZM278.045 10.78C277.709 10.78 277.406 10.696 277.135 10.528C276.864 10.36 276.645 10.1407 276.477 9.87C276.309 9.59933 276.225 9.296 276.225 8.96V4.48C276.225 4.144 276.309 3.84066 276.477 3.57C276.645 3.29933 276.864 3.08 277.135 2.912C277.406 2.744 277.709 2.66 278.045 2.66H282.665C283.001 2.66 283.304 2.744 283.575 2.912C283.855 3.07067 284.074 3.29 284.233 3.57C284.401 3.85 284.485 4.15333 284.485 4.48V8.96C284.485 9.296 284.401 9.59933 284.233 9.87C284.074 10.1407 283.855 10.36 283.575 10.528C283.304 10.696 283.001 10.78 282.665 10.78H278.045ZM278.087 9.268H282.623C282.716 9.268 282.796 9.23533 282.861 9.17C282.926 9.09533 282.959 9.01133 282.959 8.918V4.522C282.959 4.42867 282.926 4.34933 282.861 4.284C282.796 4.20933 282.716 4.172 282.623 4.172H278.087C277.994 4.172 277.91 4.20933 277.835 4.284C277.77 4.34933 277.737 4.42867 277.737 4.522V8.918C277.737 9.01133 277.77 9.09533 277.835 9.17C277.91 9.23533 277.994 9.268 278.087 9.268ZM287.346 10.78C287.01 10.78 286.702 10.7007 286.422 10.542C286.152 10.374 285.932 10.15 285.764 9.87C285.606 9.59 285.526 9.28667 285.526 8.96V4.48C285.526 4.144 285.606 3.84066 285.764 3.57C285.932 3.29933 286.152 3.08 286.422 2.912C286.702 2.744 287.01 2.66 287.346 2.66H292.274V-1.78814e-06H293.786V10.78H287.346ZM287.402 9.268H291.938C292.032 9.268 292.111 9.23533 292.176 9.17C292.242 9.09533 292.274 9.01133 292.274 8.918V4.522C292.274 4.42867 292.242 4.34933 292.176 4.284C292.111 4.20933 292.032 4.172 291.938 4.172H287.402C287.309 4.172 287.225 4.20933 287.15 4.284C287.085 4.34933 287.052 4.42867 287.052 4.522V8.918C287.052 9.01133 287.085 9.09533 287.15 9.17C287.225 9.23533 287.309 9.268 287.402 9.268ZM295.326 10.78V9.268H295.872C295.966 9.268 296.045 9.23533 296.11 9.17C296.185 9.09533 296.222 9.01133 296.222 8.918V2.562C296.222 2.46867 296.185 2.38933 296.11 2.324C296.045 2.25867 295.966 2.226 295.872 2.226H295.326V0.699998H295.914C296.241 0.699998 296.544 0.783998 296.824 0.951998C297.104 1.11066 297.328 1.33 297.496 1.61C297.664 1.88066 297.748 2.184 297.748 2.52V8.96C297.748 9.296 297.664 9.59933 297.496 9.87C297.328 10.1407 297.104 10.36 296.824 10.528C296.544 10.696 296.241 10.78 295.914 10.78H295.326ZM305.143 10.78C304.807 10.78 304.499 10.696 304.219 10.528C303.948 10.36 303.729 10.1407 303.561 9.87C303.402 9.59933 303.323 9.296 303.323 8.96V5.964H310.057V4.522C310.057 4.42867 310.024 4.34933 309.959 4.284C309.894 4.20933 309.814 4.172 309.721 4.172H303.323V2.66H309.763C310.099 2.66 310.402 2.744 310.673 2.912C310.953 3.07067 311.172 3.29 311.331 3.57C311.499 3.85 311.583 4.15333 311.583 4.48V10.78H305.143ZM305.185 9.268H310.057V7.378H304.835V8.918C304.835 9.01133 304.868 9.09533 304.933 9.17C305.008 9.23533 305.092 9.268 305.185 9.268ZM312.894 10.78V2.66H319.334C319.67 2.66 319.973 2.744 320.244 2.912C320.524 3.08 320.743 3.29933 320.902 3.57C321.07 3.84066 321.154 4.144 321.154 4.48V10.78H319.642V4.522C319.642 4.42867 319.605 4.34933 319.53 4.284C319.465 4.20933 319.385 4.172 319.292 4.172H314.756C314.663 4.172 314.579 4.20933 314.504 4.284C314.439 4.34933 314.406 4.42867 314.406 4.522V10.78H312.894ZM324.028 10.78C323.692 10.78 323.384 10.7007 323.104 10.542C322.833 10.374 322.614 10.15 322.446 9.87C322.287 9.59 322.208 9.28667 322.208 8.96V4.48C322.208 4.144 322.287 3.84066 322.446 3.57C322.614 3.29933 322.833 3.08 323.104 2.912C323.384 2.744 323.692 2.66 324.028 2.66H328.956V-1.78814e-06H330.468V10.78H324.028ZM324.084 9.268H328.62C328.713 9.268 328.793 9.23533 328.858 9.17C328.923 9.09533 328.956 9.01133 328.956 8.918V4.522C328.956 4.42867 328.923 4.34933 328.858 4.284C328.793 4.20933 328.713 4.172 328.62 4.172H324.084C323.991 4.172 323.907 4.20933 323.832 4.284C323.767 4.34933 323.734 4.42867 323.734 4.522V8.918C323.734 9.01133 323.767 9.09533 323.832 9.17C323.907 9.23533 323.991 9.268 324.084 9.268ZM5.05893 28.78C4.72293 28.78 4.41493 28.696 4.13493 28.528C3.86426 28.36 3.64493 28.1407 3.47693 27.87C3.31826 27.5993 3.23893 27.296 3.23893 26.96V23.964H9.97293V22.522C9.97293 22.4287 9.94026 22.3493 9.87493 22.284C9.80959 22.2093 9.73026 22.172 9.63693 22.172H3.23893V20.66H9.67893C10.0149 20.66 10.3183 20.744 10.5889 20.912C10.8689 21.0707 11.0883 21.29 11.2469 21.57C11.4149 21.85 11.4989 22.1533 11.4989 22.48V28.78H5.05893ZM5.10093 27.268H9.97293V25.378H4.75093V26.918C4.75093 27.0113 4.78359 27.0953 4.84893 27.17C4.92359 27.2353 5.00759 27.268 5.10093 27.268ZM14.4365 28.78C14.1005 28.78 13.7972 28.696 13.5265 28.528C13.2559 28.36 13.0365 28.1407 12.8685 27.87C12.7005 27.5993 12.6165 27.296 12.6165 26.96V26.75H14.1285V26.918C14.1285 27.0113 14.1612 27.0953 14.2265 27.17C14.3012 27.2353 14.3852 27.268 14.4785 27.268H19.0145C19.1079 27.268 19.1872 27.2353 19.2525 27.17C19.3179 27.0953 19.3505 27.0113 19.3505 26.918V25.826C19.3505 25.7327 19.3179 25.6533 19.2525 25.588C19.1872 25.5133 19.1079 25.476 19.0145 25.476H14.4365C14.1005 25.476 13.7972 25.3967 13.5265 25.238C13.2559 25.07 13.0365 24.8507 12.8685 24.58C12.7005 24.3 12.6165 23.992 12.6165 23.656V22.48C12.6165 22.144 12.7005 21.8407 12.8685 21.57C13.0365 21.2993 13.2559 21.08 13.5265 20.912C13.7972 20.744 14.1005 20.66 14.4365 20.66H19.0565C19.3925 20.66 19.6959 20.744 19.9665 20.912C20.2465 21.08 20.4659 21.2993 20.6245 21.57C20.7925 21.8407 20.8765 22.144 20.8765 22.48V22.69H19.3505V22.522C19.3505 22.4287 19.3179 22.3493 19.2525 22.284C19.1872 22.2093 19.1079 22.172 19.0145 22.172H14.4785C14.3852 22.172 14.3012 22.2093 14.2265 22.284C14.1612 22.3493 14.1285 22.4287 14.1285 22.522V23.614C14.1285 23.7073 14.1612 23.7913 14.2265 23.866C14.3012 23.9313 14.3852 23.964 14.4785 23.964H19.0565C19.3925 23.964 19.6959 24.048 19.9665 24.216C20.2465 24.3747 20.4659 24.594 20.6245 24.874C20.7925 25.1447 20.8765 25.448 20.8765 25.784V26.96C20.8765 27.296 20.7925 27.5993 20.6245 27.87C20.4659 28.1407 20.2465 28.36 19.9665 28.528C19.6959 28.696 19.3925 28.78 19.0565 28.78H14.4365ZM22.2982 32V20.66H28.7382C29.0742 20.66 29.3775 20.744 29.6482 20.912C29.9282 21.08 30.1475 21.2993 30.3062 21.57C30.4742 21.8407 30.5582 22.144 30.5582 22.48V26.96C30.5582 27.296 30.4742 27.5993 30.3062 27.87C30.1475 28.1407 29.9282 28.36 29.6482 28.528C29.3775 28.696 29.0742 28.78 28.7382 28.78H23.8102V32H22.2982ZM24.1602 27.268H28.6962C28.7895 27.268 28.8688 27.2353 28.9342 27.17C29.0088 27.0953 29.0462 27.0113 29.0462 26.918V22.522C29.0462 22.4287 29.0088 22.3493 28.9342 22.284C28.8688 22.2093 28.7895 22.172 28.6962 22.172H24.1602C24.0668 22.172 23.9828 22.2093 23.9082 22.284C23.8428 22.3493 23.8102 22.4287 23.8102 22.522V26.918C23.8102 27.0113 23.8428 27.0953 23.9082 27.17C23.9828 27.2353 24.0668 27.268 24.1602 27.268ZM31.6901 28.78V20.66H33.2021V28.78H31.6901ZM31.6901 19.512V18H33.2021V19.512H31.6901ZM34.862 28.78V22.48C34.862 22.144 34.946 21.8407 35.114 21.57C35.282 21.2993 35.5013 21.08 35.772 20.912C36.052 20.744 36.3553 20.66 36.682 20.66H41.218V22.172H36.724C36.6306 22.172 36.5466 22.2093 36.472 22.284C36.4066 22.3493 36.374 22.4287 36.374 22.522V28.78H34.862ZM42.1901 28.78V20.66H43.7021V28.78H42.1901ZM42.1901 19.512V18H43.7021V19.512H42.1901ZM45.3216 28.78V20.66H51.7616C52.0976 20.66 52.4009 20.744 52.6716 20.912C52.9516 21.08 53.1709 21.2993 53.3296 21.57C53.4976 21.8407 53.5816 22.144 53.5816 22.48V28.78H52.0696V22.522C52.0696 22.4287 52.0323 22.3493 51.9576 22.284C51.8923 22.2093 51.8129 22.172 51.7196 22.172H47.1836C47.0903 22.172 47.0063 22.2093 46.9316 22.284C46.8663 22.3493 46.8336 22.4287 46.8336 22.522V28.78H45.3216ZM56.261 31.986V30.46H61.231C61.3243 30.46 61.4036 30.4227 61.469 30.348C61.5436 30.2827 61.581 30.2033 61.581 30.11V28.78H56.653C56.3263 28.78 56.023 28.7007 55.743 28.542C55.463 28.374 55.239 28.15 55.071 27.87C54.9123 27.59 54.833 27.2867 54.833 26.96V22.48C54.833 22.144 54.917 21.8407 55.085 21.57C55.253 21.2993 55.4723 21.08 55.743 20.912C56.023 20.744 56.3263 20.66 56.653 20.66H61.273C61.609 20.66 61.9123 20.744 62.183 20.912C62.463 21.08 62.6823 21.2993 62.841 21.57C63.009 21.8407 63.093 22.144 63.093 22.48V30.166C63.093 30.502 63.009 30.8053 62.841 31.076C62.6823 31.356 62.463 31.5753 62.183 31.734C61.9123 31.902 61.609 31.986 61.273 31.986H56.261ZM56.695 27.268H61.231C61.3243 27.268 61.4036 27.2353 61.469 27.17C61.5436 27.0953 61.581 27.0113 61.581 26.918V22.522C61.581 22.4287 61.5436 22.3493 61.469 22.284C61.4036 22.2093 61.3243 22.172 61.231 22.172H56.695C56.6016 22.172 56.5176 22.2093 56.443 22.284C56.3776 22.3493 56.345 22.4287 56.345 22.522V26.918C56.345 27.0113 56.3776 27.0953 56.443 27.17C56.5176 27.2353 56.6016 27.268 56.695 27.268ZM70.0182 28.78C69.6822 28.78 69.3742 28.7007 69.0942 28.542C68.8235 28.374 68.6042 28.15 68.4362 27.87C68.2775 27.59 68.1982 27.2867 68.1982 26.96V22.48C68.1982 22.144 68.2775 21.8407 68.4362 21.57C68.6042 21.2993 68.8235 21.08 69.0942 20.912C69.3742 20.744 69.6822 20.66 70.0182 20.66H74.9462V18H76.4582V28.78H70.0182ZM70.0742 27.268H74.6102C74.7035 27.268 74.7828 27.2353 74.8482 27.17C74.9135 27.0953 74.9462 27.0113 74.9462 26.918V22.522C74.9462 22.4287 74.9135 22.3493 74.8482 22.284C74.7828 22.2093 74.7035 22.172 74.6102 22.172H70.0742C69.9808 22.172 69.8968 22.2093 69.8222 22.284C69.7568 22.3493 69.7242 22.4287 69.7242 22.522V26.918C69.7242 27.0113 69.7568 27.0953 69.8222 27.17C69.8968 27.2353 69.9808 27.268 70.0742 27.268ZM79.4609 28.78C79.1249 28.78 78.8216 28.696 78.5509 28.528C78.2803 28.36 78.0609 28.1407 77.8929 27.87C77.7249 27.5993 77.6409 27.296 77.6409 26.96V22.48C77.6409 22.144 77.7249 21.8407 77.8929 21.57C78.0609 21.2993 78.2803 21.08 78.5509 20.912C78.8216 20.744 79.1249 20.66 79.4609 20.66H84.0809C84.4169 20.66 84.7203 20.744 84.9909 20.912C85.2709 21.0707 85.4903 21.29 85.6489 21.57C85.8169 21.85 85.9009 22.1533 85.9009 22.48V25.476H79.1529V26.918C79.1529 27.0113 79.1856 27.0953 79.2509 27.17C79.3256 27.2353 79.4096 27.268 79.5029 27.268H85.9009V28.78H79.4609ZM79.1529 24.062H84.3749V22.522C84.3749 22.4287 84.3423 22.3493 84.2769 22.284C84.2116 22.2093 84.1323 22.172 84.0389 22.172H79.5029C79.4096 22.172 79.3256 22.2093 79.2509 22.284C79.1856 22.3493 79.1529 22.4287 79.1529 22.522V24.062ZM90.9295 28.78L86.4495 20.66H88.1995L91.6855 27.072L95.1715 20.66H96.9215L92.4415 28.78H90.9295ZM99.3262 28.78C98.9902 28.78 98.6868 28.696 98.4162 28.528C98.1455 28.36 97.9262 28.1407 97.7582 27.87C97.5902 27.5993 97.5062 27.296 97.5062 26.96V22.48C97.5062 22.144 97.5902 21.8407 97.7582 21.57C97.9262 21.2993 98.1455 21.08 98.4162 20.912C98.6868 20.744 98.9902 20.66 99.3262 20.66H103.946C104.282 20.66 104.586 20.744 104.856 20.912C105.136 21.0707 105.356 21.29 105.514 21.57C105.682 21.85 105.766 22.1533 105.766 22.48V25.476H99.0182V26.918C99.0182 27.0113 99.0508 27.0953 99.1162 27.17C99.1908 27.2353 99.2748 27.268 99.3682 27.268H105.766V28.78H99.3262ZM99.0182 24.062H104.24V22.522C104.24 22.4287 104.208 22.3493 104.142 22.284C104.077 22.2093 103.998 22.172 103.904 22.172H99.3682C99.2748 22.172 99.1908 22.2093 99.1162 22.284C99.0508 22.3493 99.0182 22.4287 99.0182 22.522V24.062ZM108.733 28.78C108.397 28.78 108.093 28.696 107.823 28.528C107.552 28.36 107.333 28.1407 107.165 27.87C106.997 27.5993 106.913 27.296 106.913 26.96V18H108.425V26.918C108.425 27.0113 108.457 27.0953 108.523 27.17C108.597 27.2353 108.681 27.268 108.775 27.268H110.245V28.78H108.733ZM113.094 28.78C112.758 28.78 112.454 28.696 112.184 28.528C111.913 28.36 111.694 28.1407 111.526 27.87C111.358 27.5993 111.274 27.296 111.274 26.96V22.48C111.274 22.144 111.358 21.8407 111.526 21.57C111.694 21.2993 111.913 21.08 112.184 20.912C112.454 20.744 112.758 20.66 113.094 20.66H117.714C118.05 20.66 118.353 20.744 118.624 20.912C118.904 21.0707 119.123 21.29 119.282 21.57C119.45 21.85 119.534 22.1533 119.534 22.48V26.96C119.534 27.296 119.45 27.5993 119.282 27.87C119.123 28.1407 118.904 28.36 118.624 28.528C118.353 28.696 118.05 28.78 117.714 28.78H113.094ZM113.136 27.268H117.672C117.765 27.268 117.844 27.2353 117.91 27.17C117.975 27.0953 118.008 27.0113 118.008 26.918V22.522C118.008 22.4287 117.975 22.3493 117.91 22.284C117.844 22.2093 117.765 22.172 117.672 22.172H113.136C113.042 22.172 112.958 22.2093 112.884 22.284C112.818 22.3493 112.786 22.4287 112.786 22.522V26.918C112.786 27.0113 112.818 27.0953 112.884 27.17C112.958 27.2353 113.042 27.268 113.136 27.268ZM121.009 32V20.66H127.449C127.785 20.66 128.088 20.744 128.359 20.912C128.639 21.08 128.858 21.2993 129.017 21.57C129.185 21.8407 129.269 22.144 129.269 22.48V26.96C129.269 27.296 129.185 27.5993 129.017 27.87C128.858 28.1407 128.639 28.36 128.359 28.528C128.088 28.696 127.785 28.78 127.449 28.78H122.521V32H121.009ZM122.871 27.268H127.407C127.5 27.268 127.58 27.2353 127.645 27.17C127.72 27.0953 127.757 27.0113 127.757 26.918V22.522C127.757 22.4287 127.72 22.3493 127.645 22.284C127.58 22.2093 127.5 22.172 127.407 22.172H122.871C122.778 22.172 122.694 22.2093 122.619 22.284C122.554 22.3493 122.521 22.4287 122.521 22.522V26.918C122.521 27.0113 122.554 27.0953 122.619 27.17C122.694 27.2353 122.778 27.268 122.871 27.268ZM132.084 28.78C131.748 28.78 131.445 28.696 131.174 28.528C130.903 28.36 130.684 28.1407 130.516 27.87C130.348 27.5993 130.264 27.296 130.264 26.96V22.48C130.264 22.144 130.348 21.8407 130.516 21.57C130.684 21.2993 130.903 21.08 131.174 20.912C131.445 20.744 131.748 20.66 132.084 20.66H136.704C137.04 20.66 137.343 20.744 137.614 20.912C137.894 21.0707 138.113 21.29 138.272 21.57C138.44 21.85 138.524 22.1533 138.524 22.48V25.476H131.776V26.918C131.776 27.0113 131.809 27.0953 131.874 27.17C131.949 27.2353 132.033 27.268 132.126 27.268H138.524V28.78H132.084ZM131.776 24.062H136.998V22.522C136.998 22.4287 136.965 22.3493 136.9 22.284C136.835 22.2093 136.755 22.172 136.662 22.172H132.126C132.033 22.172 131.949 22.2093 131.874 22.284C131.809 22.3493 131.776 22.4287 131.776 22.522V24.062ZM139.889 28.78V22.48C139.889 22.144 139.973 21.8407 140.141 21.57C140.309 21.2993 140.529 21.08 140.799 20.912C141.079 20.744 141.383 20.66 141.709 20.66H146.245V22.172H141.751C141.658 22.172 141.574 22.2093 141.499 22.284C141.434 22.3493 141.401 22.4287 141.401 22.522V28.78H139.889ZM151.21 28.78V18H152.722V20.66H157.65C157.986 20.66 158.29 20.744 158.56 20.912C158.84 21.08 159.06 21.2993 159.218 21.57C159.386 21.8407 159.47 22.144 159.47 22.48V26.96C159.47 27.296 159.386 27.5993 159.218 27.87C159.06 28.1407 158.84 28.36 158.56 28.528C158.29 28.696 157.986 28.78 157.65 28.78H151.21ZM153.072 27.268H157.608C157.702 27.268 157.781 27.2353 157.846 27.17C157.921 27.0953 157.958 27.0113 157.958 26.918V22.522C157.958 22.4287 157.921 22.3493 157.846 22.284C157.781 22.2093 157.702 22.172 157.608 22.172H153.072C152.979 22.172 152.895 22.2093 152.82 22.284C152.755 22.3493 152.722 22.4287 152.722 22.522V26.918C152.722 27.0113 152.755 27.0953 152.82 27.17C152.895 27.2353 152.979 27.268 153.072 27.268ZM161.808 31.888V30.362H166.778C166.872 30.362 166.951 30.3247 167.016 30.25C167.091 30.1847 167.128 30.1053 167.128 30.012V28.78H162.2C161.874 28.78 161.57 28.7007 161.29 28.542C161.01 28.374 160.786 28.15 160.618 27.87C160.46 27.59 160.38 27.2867 160.38 26.96V20.688H161.892V26.918C161.892 27.0113 161.925 27.0953 161.99 27.17C162.065 27.2353 162.149 27.268 162.242 27.268H166.778C166.872 27.268 166.951 27.2353 167.016 27.17C167.091 27.0953 167.128 27.0113 167.128 26.918V20.688H168.64V30.068C168.64 30.404 168.556 30.7073 168.388 30.978C168.23 31.258 168.01 31.4773 167.73 31.636C167.46 31.804 167.156 31.888 166.82 31.888H161.808ZM277.607 28.78V27.268H279.119V28.78H277.607ZM284.743 28.78V18.7H286.255V28.78H284.743ZM293.604 28.78C293.268 28.78 292.96 28.696 292.68 28.528C292.409 28.36 292.19 28.1407 292.022 27.87C291.863 27.5993 291.784 27.296 291.784 26.96V23.964H298.518V22.522C298.518 22.4287 298.485 22.3493 298.42 22.284C298.355 22.2093 298.275 22.172 298.182 22.172H291.784V20.66H298.224C298.56 20.66 298.863 20.744 299.134 20.912C299.414 21.0707 299.633 21.29 299.792 21.57C299.96 21.85 300.044 22.1533 300.044 22.48V28.78H293.604ZM293.646 27.268H298.518V25.378H293.296V26.918C293.296 27.0113 293.329 27.0953 293.394 27.17C293.469 27.2353 293.553 27.268 293.646 27.268ZM301.218 28.78V20.66H311.592C311.937 20.66 312.245 20.744 312.516 20.912C312.787 21.08 313.001 21.2993 313.16 21.57C313.328 21.8407 313.412 22.144 313.412 22.48V28.78H311.914V22.522C311.914 22.4287 311.877 22.3493 311.802 22.284C311.737 22.2093 311.657 22.172 311.564 22.172H308.442C308.339 22.172 308.255 22.2093 308.19 22.284C308.125 22.3493 308.092 22.4287 308.092 22.522V28.78H306.566V22.522C306.566 22.4287 306.529 22.3493 306.454 22.284C306.389 22.2093 306.309 22.172 306.216 22.172H303.08C302.987 22.172 302.907 22.2093 302.842 22.284C302.777 22.3493 302.744 22.4287 302.744 22.522V28.78H301.218ZM320.756 28.78C320.42 28.78 320.112 28.696 319.832 28.528C319.562 28.36 319.342 28.1407 319.174 27.87C319.016 27.5993 318.936 27.296 318.936 26.96V23.964H325.67V22.522C325.67 22.4287 325.638 22.3493 325.572 22.284C325.507 22.2093 325.428 22.172 325.334 22.172H318.936V20.66H325.376C325.712 20.66 326.016 20.744 326.286 20.912C326.566 21.0707 326.786 21.29 326.944 21.57C327.112 21.85 327.196 22.1533 327.196 22.48V28.78H320.756ZM320.798 27.268H325.67V25.378H320.448V26.918C320.448 27.0113 320.481 27.0953 320.546 27.17C320.621 27.2353 320.705 27.268 320.798 27.268ZM12.9996 46.78C12.6636 46.78 12.3556 46.7007 12.0756 46.542C11.8049 46.374 11.5856 46.15 11.4176 45.87C11.2589 45.59 11.1796 45.2867 11.1796 44.96V40.48C11.1796 40.144 11.2589 39.8407 11.4176 39.57C11.5856 39.2993 11.8049 39.08 12.0756 38.912C12.3556 38.744 12.6636 38.66 12.9996 38.66H17.9276V36H19.4396V46.78H12.9996ZM13.0556 45.268H17.5916C17.6849 45.268 17.7643 45.2353 17.8296 45.17C17.8949 45.0953 17.9276 45.0113 17.9276 44.918V40.522C17.9276 40.4287 17.8949 40.3493 17.8296 40.284C17.7643 40.2093 17.6849 40.172 17.5916 40.172H13.0556C12.9623 40.172 12.8783 40.2093 12.8036 40.284C12.7383 40.3493 12.7056 40.4287 12.7056 40.522V44.918C12.7056 45.0113 12.7383 45.0953 12.8036 45.17C12.8783 45.2353 12.9623 45.268 13.0556 45.268ZM22.4424 46.78C22.1064 46.78 21.8031 46.696 21.5324 46.528C21.2617 46.36 21.0424 46.1407 20.8744 45.87C20.7064 45.5993 20.6224 45.296 20.6224 44.96V40.48C20.6224 40.144 20.7064 39.8407 20.8744 39.57C21.0424 39.2993 21.2617 39.08 21.5324 38.912C21.8031 38.744 22.1064 38.66 22.4424 38.66H27.0624C27.3984 38.66 27.7017 38.744 27.9724 38.912C28.2524 39.0707 28.4717 39.29 28.6304 39.57C28.7984 39.85 28.8824 40.1533 28.8824 40.48V43.476H22.1344V44.918C22.1344 45.0113 22.1671 45.0953 22.2324 45.17C22.3071 45.2353 22.3911 45.268 22.4844 45.268H28.8824V46.78H22.4424ZM22.1344 42.062H27.3564V40.522C27.3564 40.4287 27.3237 40.3493 27.2584 40.284C27.1931 40.2093 27.1137 40.172 27.0204 40.172H22.4844C22.3911 40.172 22.3071 40.2093 22.2324 40.284C22.1671 40.3493 22.1344 40.4287 22.1344 40.522V42.062ZM33.9109 46.78L29.4309 38.66H31.1809L34.6669 45.072L38.1529 38.66H39.9029L35.4229 46.78H33.9109ZM42.3076 46.78C41.9716 46.78 41.6683 46.696 41.3976 46.528C41.127 46.36 40.9076 46.1407 40.7396 45.87C40.5716 45.5993 40.4876 45.296 40.4876 44.96V40.48C40.4876 40.144 40.5716 39.8407 40.7396 39.57C40.9076 39.2993 41.127 39.08 41.3976 38.912C41.6683 38.744 41.9716 38.66 42.3076 38.66H46.9276C47.2636 38.66 47.567 38.744 47.8376 38.912C48.1176 39.0707 48.337 39.29 48.4956 39.57C48.6636 39.85 48.7476 40.1533 48.7476 40.48V43.476H41.9996V44.918C41.9996 45.0113 42.0323 45.0953 42.0976 45.17C42.1723 45.2353 42.2563 45.268 42.3496 45.268H48.7476V46.78H42.3076ZM41.9996 42.062H47.2216V40.522C47.2216 40.4287 47.189 40.3493 47.1236 40.284C47.0583 40.2093 46.979 40.172 46.8856 40.172H42.3496C42.2563 40.172 42.1723 40.2093 42.0976 40.284C42.0323 40.3493 41.9996 40.4287 41.9996 40.522V42.062ZM51.7142 46.78C51.3782 46.78 51.0749 46.696 50.8042 46.528C50.5335 46.36 50.3142 46.1407 50.1462 45.87C49.9782 45.5993 49.8942 45.296 49.8942 44.96V36H51.4062V44.918C51.4062 45.0113 51.4389 45.0953 51.5042 45.17C51.5789 45.2353 51.6629 45.268 51.7562 45.268H53.2262V46.78H51.7142ZM56.0752 46.78C55.7392 46.78 55.4359 46.696 55.1652 46.528C54.8945 46.36 54.6752 46.1407 54.5072 45.87C54.3392 45.5993 54.2552 45.296 54.2552 44.96V40.48C54.2552 40.144 54.3392 39.8407 54.5072 39.57C54.6752 39.2993 54.8945 39.08 55.1652 38.912C55.4359 38.744 55.7392 38.66 56.0752 38.66H60.6952C61.0312 38.66 61.3345 38.744 61.6052 38.912C61.8852 39.0707 62.1045 39.29 62.2632 39.57C62.4312 39.85 62.5152 40.1533 62.5152 40.48V44.96C62.5152 45.296 62.4312 45.5993 62.2632 45.87C62.1045 46.1407 61.8852 46.36 61.6052 46.528C61.3345 46.696 61.0312 46.78 60.6952 46.78H56.0752ZM56.1172 45.268H60.6532C60.7465 45.268 60.8259 45.2353 60.8912 45.17C60.9565 45.0953 60.9892 45.0113 60.9892 44.918V40.522C60.9892 40.4287 60.9565 40.3493 60.8912 40.284C60.8259 40.2093 60.7465 40.172 60.6532 40.172H56.1172C56.0239 40.172 55.9399 40.2093 55.8652 40.284C55.7999 40.3493 55.7672 40.4287 55.7672 40.522V44.918C55.7672 45.0113 55.7999 45.0953 55.8652 45.17C55.9399 45.2353 56.0239 45.268 56.1172 45.268ZM63.9906 50V38.66H70.4306C70.7666 38.66 71.0699 38.744 71.3406 38.912C71.6206 39.08 71.8399 39.2993 71.9986 39.57C72.1666 39.8407 72.2506 40.144 72.2506 40.48V44.96C72.2506 45.296 72.1666 45.5993 71.9986 45.87C71.8399 46.1407 71.6206 46.36 71.3406 46.528C71.0699 46.696 70.7666 46.78 70.4306 46.78H65.5026V50H63.9906ZM65.8526 45.268H70.3886C70.4819 45.268 70.5612 45.2353 70.6266 45.17C70.7012 45.0953 70.7386 45.0113 70.7386 44.918V40.522C70.7386 40.4287 70.7012 40.3493 70.6266 40.284C70.5612 40.2093 70.4819 40.172 70.3886 40.172H65.8526C65.7592 40.172 65.6752 40.2093 65.6006 40.284C65.5352 40.3493 65.5026 40.4287 65.5026 40.522V44.918C65.5026 45.0113 65.5352 45.0953 65.6006 45.17C65.6752 45.2353 65.7592 45.268 65.8526 45.268ZM75.0654 46.78C74.7294 46.78 74.4261 46.696 74.1554 46.528C73.8848 46.36 73.6654 46.1407 73.4974 45.87C73.3294 45.5993 73.2454 45.296 73.2454 44.96V40.48C73.2454 40.144 73.3294 39.8407 73.4974 39.57C73.6654 39.2993 73.8848 39.08 74.1554 38.912C74.4261 38.744 74.7294 38.66 75.0654 38.66H79.6854C80.0214 38.66 80.3248 38.744 80.5954 38.912C80.8754 39.0707 81.0948 39.29 81.2534 39.57C81.4214 39.85 81.5054 40.1533 81.5054 40.48V43.476H74.7574V44.918C74.7574 45.0113 74.7901 45.0953 74.8554 45.17C74.9301 45.2353 75.0141 45.268 75.1074 45.268H81.5054V46.78H75.0654ZM74.7574 42.062H79.9794V40.522C79.9794 40.4287 79.9468 40.3493 79.8814 40.284C79.8161 40.2093 79.7368 40.172 79.6434 40.172H75.1074C75.0141 40.172 74.9301 40.2093 74.8554 40.284C74.7901 40.3493 74.7574 40.4287 74.7574 40.522V42.062ZM82.8708 46.78V40.48C82.8708 40.144 82.9548 39.8407 83.1228 39.57C83.2908 39.2993 83.5101 39.08 83.7808 38.912C84.0608 38.744 84.3641 38.66 84.6908 38.66H89.2268V40.172H84.7328C84.6394 40.172 84.5554 40.2093 84.4808 40.284C84.4154 40.3493 84.3828 40.4287 84.3828 40.522V46.78H82.8708ZM94.1917 50V38.66H100.632C100.968 38.66 101.271 38.744 101.542 38.912C101.822 39.08 102.041 39.2993 102.2 39.57C102.368 39.8407 102.452 40.144 102.452 40.48V44.96C102.452 45.296 102.368 45.5993 102.2 45.87C102.041 46.1407 101.822 46.36 101.542 46.528C101.271 46.696 100.968 46.78 100.632 46.78H95.7037V50H94.1917ZM96.0537 45.268H100.59C100.683 45.268 100.762 45.2353 100.828 45.17C100.902 45.0953 100.94 45.0113 100.94 44.918V40.522C100.94 40.4287 100.902 40.3493 100.828 40.284C100.762 40.2093 100.683 40.172 100.59 40.172H96.0537C95.9604 40.172 95.8764 40.2093 95.8017 40.284C95.7364 40.3493 95.7037 40.4287 95.7037 40.522V44.918C95.7037 45.0113 95.7364 45.0953 95.8017 45.17C95.8764 45.2353 95.9604 45.268 96.0537 45.268ZM105.281 46.78C104.945 46.78 104.637 46.696 104.357 46.528C104.086 46.36 103.867 46.1407 103.699 45.87C103.54 45.5993 103.461 45.296 103.461 44.96V41.964H110.195V40.522C110.195 40.4287 110.162 40.3493 110.097 40.284C110.031 40.2093 109.952 40.172 109.859 40.172H103.461V38.66H109.901C110.237 38.66 110.54 38.744 110.811 38.912C111.091 39.0707 111.31 39.29 111.469 39.57C111.637 39.85 111.721 40.1533 111.721 40.48V46.78H105.281ZM105.323 45.268H110.195V43.378H104.973V44.918C104.973 45.0113 105.005 45.0953 105.071 45.17C105.145 45.2353 105.229 45.268 105.323 45.268ZM114.658 46.78C114.322 46.78 114.019 46.696 113.748 46.528C113.478 46.36 113.258 46.1407 113.09 45.87C112.922 45.5993 112.838 45.296 112.838 44.96V44.75H114.35V44.918C114.35 45.0113 114.383 45.0953 114.448 45.17C114.523 45.2353 114.607 45.268 114.7 45.268H119.236C119.33 45.268 119.409 45.2353 119.474 45.17C119.54 45.0953 119.572 45.0113 119.572 44.918V43.826C119.572 43.7327 119.54 43.6533 119.474 43.588C119.409 43.5133 119.33 43.476 119.236 43.476H114.658C114.322 43.476 114.019 43.3967 113.748 43.238C113.478 43.07 113.258 42.8507 113.09 42.58C112.922 42.3 112.838 41.992 112.838 41.656V40.48C112.838 40.144 112.922 39.8407 113.09 39.57C113.258 39.2993 113.478 39.08 113.748 38.912C114.019 38.744 114.322 38.66 114.658 38.66H119.278C119.614 38.66 119.918 38.744 120.188 38.912C120.468 39.08 120.688 39.2993 120.846 39.57C121.014 39.8407 121.098 40.144 121.098 40.48V40.69H119.572V40.522C119.572 40.4287 119.54 40.3493 119.474 40.284C119.409 40.2093 119.33 40.172 119.236 40.172H114.7C114.607 40.172 114.523 40.2093 114.448 40.284C114.383 40.3493 114.35 40.4287 114.35 40.522V41.614C114.35 41.7073 114.383 41.7913 114.448 41.866C114.523 41.9313 114.607 41.964 114.7 41.964H119.278C119.614 41.964 119.918 42.048 120.188 42.216C120.468 42.3747 120.688 42.594 120.846 42.874C121.014 43.1447 121.098 43.448 121.098 43.784V44.96C121.098 45.296 121.014 45.5993 120.846 45.87C120.688 46.1407 120.468 46.36 120.188 46.528C119.918 46.696 119.614 46.78 119.278 46.78H114.658ZM124.256 46.78C123.92 46.78 123.617 46.696 123.346 46.528C123.075 46.36 122.856 46.1407 122.688 45.87C122.52 45.5993 122.436 45.296 122.436 44.96V44.75H123.948V44.918C123.948 45.0113 123.981 45.0953 124.046 45.17C124.121 45.2353 124.205 45.268 124.298 45.268H128.834C128.927 45.268 129.007 45.2353 129.072 45.17C129.137 45.0953 129.17 45.0113 129.17 44.918V43.826C129.17 43.7327 129.137 43.6533 129.072 43.588C129.007 43.5133 128.927 43.476 128.834 43.476H124.256C123.92 43.476 123.617 43.3967 123.346 43.238C123.075 43.07 122.856 42.8507 122.688 42.58C122.52 42.3 122.436 41.992 122.436 41.656V40.48C122.436 40.144 122.52 39.8407 122.688 39.57C122.856 39.2993 123.075 39.08 123.346 38.912C123.617 38.744 123.92 38.66 124.256 38.66H128.876C129.212 38.66 129.515 38.744 129.786 38.912C130.066 39.08 130.285 39.2993 130.444 39.57C130.612 39.8407 130.696 40.144 130.696 40.48V40.69H129.17V40.522C129.17 40.4287 129.137 40.3493 129.072 40.284C129.007 40.2093 128.927 40.172 128.834 40.172H124.298C124.205 40.172 124.121 40.2093 124.046 40.284C123.981 40.3493 123.948 40.4287 123.948 40.522V41.614C123.948 41.7073 123.981 41.7913 124.046 41.866C124.121 41.9313 124.205 41.964 124.298 41.964H128.876C129.212 41.964 129.515 42.048 129.786 42.216C130.066 42.3747 130.285 42.594 130.444 42.874C130.612 43.1447 130.696 43.448 130.696 43.784V44.96C130.696 45.296 130.612 45.5993 130.444 45.87C130.285 46.1407 130.066 46.36 129.786 46.528C129.515 46.696 129.212 46.78 128.876 46.78H124.256ZM132.09 46.78V38.66H133.602V46.78H132.09ZM132.09 37.512V36H133.602V37.512H132.09ZM136.917 46.78C136.581 46.78 136.278 46.696 136.007 46.528C135.736 46.36 135.517 46.1407 135.349 45.87C135.181 45.5993 135.097 45.296 135.097 44.96V40.48C135.097 40.144 135.181 39.8407 135.349 39.57C135.517 39.2993 135.736 39.08 136.007 38.912C136.278 38.744 136.581 38.66 136.917 38.66H141.537C141.873 38.66 142.176 38.744 142.447 38.912C142.727 39.0707 142.946 39.29 143.105 39.57C143.273 39.85 143.357 40.1533 143.357 40.48V44.96C143.357 45.296 143.273 45.5993 143.105 45.87C142.946 46.1407 142.727 46.36 142.447 46.528C142.176 46.696 141.873 46.78 141.537 46.78H136.917ZM136.959 45.268H141.495C141.588 45.268 141.668 45.2353 141.733 45.17C141.798 45.0953 141.831 45.0113 141.831 44.918V40.522C141.831 40.4287 141.798 40.3493 141.733 40.284C141.668 40.2093 141.588 40.172 141.495 40.172H136.959C136.866 40.172 136.782 40.2093 136.707 40.284C136.642 40.3493 136.609 40.4287 136.609 40.522V44.918C136.609 45.0113 136.642 45.0953 136.707 45.17C136.782 45.2353 136.866 45.268 136.959 45.268ZM144.559 46.78V38.66H150.999C151.335 38.66 151.638 38.744 151.909 38.912C152.189 39.08 152.408 39.2993 152.567 39.57C152.735 39.8407 152.819 40.144 152.819 40.48V46.78H151.307V40.522C151.307 40.4287 151.27 40.3493 151.195 40.284C151.13 40.2093 151.05 40.172 150.957 40.172H146.421C146.328 40.172 146.244 40.2093 146.169 40.284C146.104 40.3493 146.071 40.4287 146.071 40.522V46.78H144.559ZM156.099 46.78C155.763 46.78 155.455 46.696 155.175 46.528C154.904 46.36 154.685 46.1407 154.517 45.87C154.358 45.5993 154.279 45.296 154.279 44.96V41.964H161.013V40.522C161.013 40.4287 160.98 40.3493 160.915 40.284C160.85 40.2093 160.77 40.172 160.677 40.172H154.279V38.66H160.719C161.055 38.66 161.358 38.744 161.629 38.912C161.909 39.0707 162.128 39.29 162.287 39.57C162.455 39.85 162.539 40.1533 162.539 40.48V46.78H156.099ZM156.141 45.268H161.013V43.378H155.791V44.918C155.791 45.0113 155.824 45.0953 155.889 45.17C155.964 45.2353 156.048 45.268 156.141 45.268ZM165.834 46.78C165.498 46.78 165.19 46.696 164.91 46.528C164.639 46.36 164.42 46.1407 164.252 45.87C164.093 45.5993 164.014 45.296 164.014 44.96V36.098H165.526V38.66H168.858V40.172H165.526V44.918C165.526 45.0113 165.558 45.0953 165.624 45.17C165.698 45.2353 165.782 45.268 165.876 45.268H168.858V46.78H165.834ZM171.753 46.78C171.417 46.78 171.114 46.696 170.843 46.528C170.572 46.36 170.353 46.1407 170.185 45.87C170.017 45.5993 169.933 45.296 169.933 44.96V40.48C169.933 40.144 170.017 39.8407 170.185 39.57C170.353 39.2993 170.572 39.08 170.843 38.912C171.114 38.744 171.417 38.66 171.753 38.66H176.373C176.709 38.66 177.012 38.744 177.283 38.912C177.563 39.0707 177.782 39.29 177.941 39.57C178.109 39.85 178.193 40.1533 178.193 40.48V43.476H171.445V44.918C171.445 45.0113 171.478 45.0953 171.543 45.17C171.618 45.2353 171.702 45.268 171.795 45.268H178.193V46.78H171.753ZM171.445 42.062H176.667V40.522C176.667 40.4287 176.634 40.3493 176.569 40.284C176.504 40.2093 176.424 40.172 176.331 40.172H171.795C171.702 40.172 171.618 40.2093 171.543 40.284C171.478 40.3493 171.445 40.4287 171.445 40.522V42.062ZM185.521 46.78C185.185 46.78 184.877 46.696 184.597 46.528C184.326 46.36 184.107 46.1407 183.939 45.87C183.78 45.5993 183.701 45.296 183.701 44.96V41.964H190.435V40.522C190.435 40.4287 190.402 40.3493 190.337 40.284C190.272 40.2093 190.192 40.172 190.099 40.172H183.701V38.66H190.141C190.477 38.66 190.78 38.744 191.051 38.912C191.331 39.0707 191.55 39.29 191.709 39.57C191.877 39.85 191.961 40.1533 191.961 40.48V46.78H185.521ZM185.563 45.268H190.435V43.378H185.213V44.918C185.213 45.0113 185.246 45.0953 185.311 45.17C185.386 45.2353 185.47 45.268 185.563 45.268ZM193.08 46.78V36H194.592V38.66H199.52C199.856 38.66 200.16 38.744 200.43 38.912C200.71 39.08 200.93 39.2993 201.088 39.57C201.256 39.8407 201.34 40.144 201.34 40.48V44.96C201.34 45.296 201.256 45.5993 201.088 45.87C200.93 46.1407 200.71 46.36 200.43 46.528C200.16 46.696 199.856 46.78 199.52 46.78H193.08ZM194.942 45.268H199.478C199.572 45.268 199.651 45.2353 199.716 45.17C199.791 45.0953 199.828 45.0113 199.828 44.918V40.522C199.828 40.4287 199.791 40.3493 199.716 40.284C199.651 40.2093 199.572 40.172 199.478 40.172H194.942C194.849 40.172 194.765 40.2093 194.69 40.284C194.625 40.3493 194.592 40.4287 194.592 40.522V44.918C194.592 45.0113 194.625 45.0953 194.69 45.17C194.765 45.2353 194.849 45.268 194.942 45.268ZM204.196 46.78C203.86 46.78 203.557 46.696 203.286 46.528C203.016 46.36 202.796 46.1407 202.628 45.87C202.46 45.5993 202.376 45.296 202.376 44.96V40.48C202.376 40.144 202.46 39.8407 202.628 39.57C202.796 39.2993 203.016 39.08 203.286 38.912C203.557 38.744 203.86 38.66 204.196 38.66H208.816C209.152 38.66 209.456 38.744 209.726 38.912C210.006 39.0707 210.226 39.29 210.384 39.57C210.552 39.85 210.636 40.1533 210.636 40.48V44.96C210.636 45.296 210.552 45.5993 210.384 45.87C210.226 46.1407 210.006 46.36 209.726 46.528C209.456 46.696 209.152 46.78 208.816 46.78H204.196ZM204.238 45.268H208.774C208.868 45.268 208.947 45.2353 209.012 45.17C209.078 45.0953 209.11 45.0113 209.11 44.918V40.522C209.11 40.4287 209.078 40.3493 209.012 40.284C208.947 40.2093 208.868 40.172 208.774 40.172H204.238C204.145 40.172 204.061 40.2093 203.986 40.284C203.921 40.3493 203.888 40.4287 203.888 40.522V44.918C203.888 45.0113 203.921 45.0953 203.986 45.17C204.061 45.2353 204.145 45.268 204.238 45.268ZM213.576 46.78C213.24 46.78 212.932 46.696 212.652 46.528C212.381 46.36 212.162 46.1407 211.994 45.87C211.835 45.5993 211.756 45.296 211.756 44.96V38.66H213.268V44.918C213.268 45.0113 213.301 45.0953 213.366 45.17C213.441 45.2353 213.525 45.268 213.618 45.268H218.154C218.247 45.268 218.327 45.2353 218.392 45.17C218.467 45.0953 218.504 45.0113 218.504 44.918V38.66H220.016V44.96C220.016 45.296 219.932 45.5993 219.764 45.87C219.605 46.1407 219.386 46.36 219.106 46.528C218.835 46.696 218.532 46.78 218.196 46.78H213.576ZM223.05 46.78C222.714 46.78 222.406 46.696 222.126 46.528C221.856 46.36 221.636 46.1407 221.468 45.87C221.31 45.5993 221.23 45.296 221.23 44.96V36.098H222.742V38.66H226.074V40.172H222.742V44.918C222.742 45.0113 222.775 45.0953 222.84 45.17C222.915 45.2353 222.999 45.268 223.092 45.268H226.074V46.78H223.05ZM233.058 46.78C232.722 46.78 232.414 46.696 232.134 46.528C231.864 46.36 231.644 46.1407 231.476 45.87C231.318 45.5993 231.238 45.296 231.238 44.96V36.098H232.75V38.66H236.082V40.172H232.75V44.918C232.75 45.0113 232.783 45.0953 232.848 45.17C232.923 45.2353 233.007 45.268 233.1 45.268H236.082V46.78H233.058ZM238.978 46.78C238.642 46.78 238.338 46.696 238.068 46.528C237.797 46.36 237.578 46.1407 237.41 45.87C237.242 45.5993 237.158 45.296 237.158 44.96V40.48C237.158 40.144 237.242 39.8407 237.41 39.57C237.578 39.2993 237.797 39.08 238.068 38.912C238.338 38.744 238.642 38.66 238.978 38.66H243.598C243.934 38.66 244.237 38.744 244.508 38.912C244.788 39.0707 245.007 39.29 245.166 39.57C245.334 39.85 245.418 40.1533 245.418 40.48V43.476H238.67V44.918C238.67 45.0113 238.702 45.0953 238.768 45.17C238.842 45.2353 238.926 45.268 239.02 45.268H245.418V46.78H238.978ZM238.67 42.062H243.892V40.522C243.892 40.4287 243.859 40.3493 243.794 40.284C243.728 40.2093 243.649 40.172 243.556 40.172H239.02C238.926 40.172 238.842 40.2093 238.768 40.284C238.702 40.3493 238.67 40.4287 238.67 40.522V42.062ZM248.37 46.78C248.034 46.78 247.731 46.696 247.46 46.528C247.189 46.36 246.97 46.1407 246.802 45.87C246.634 45.5993 246.55 45.296 246.55 44.96V40.48C246.55 40.144 246.634 39.8407 246.802 39.57C246.97 39.2993 247.189 39.08 247.46 38.912C247.731 38.744 248.034 38.66 248.37 38.66H254.782V40.172H248.412C248.319 40.172 248.235 40.2093 248.16 40.284C248.095 40.3493 248.062 40.4287 248.062 40.522V44.918C248.062 45.0113 248.095 45.0953 248.16 45.17C248.235 45.2353 248.319 45.268 248.412 45.268H254.81V46.78H248.37ZM256.053 46.78V36H257.565V38.66H262.493C262.82 38.66 263.118 38.744 263.389 38.912C263.669 39.08 263.893 39.2993 264.061 39.57C264.229 39.8407 264.313 40.144 264.313 40.48V46.78H262.801V40.522C262.801 40.4287 262.764 40.3493 262.689 40.284C262.624 40.2093 262.544 40.172 262.451 40.172H257.915C257.822 40.172 257.738 40.2093 257.663 40.284C257.598 40.3493 257.565 40.4287 257.565 40.522V46.78H256.053ZM265.405 46.78V38.66H271.845C272.181 38.66 272.484 38.744 272.755 38.912C273.035 39.08 273.254 39.2993 273.413 39.57C273.581 39.8407 273.665 40.144 273.665 40.48V46.78H272.153V40.522C272.153 40.4287 272.115 40.3493 272.041 40.284C271.975 40.2093 271.896 40.172 271.803 40.172H267.267C267.173 40.172 267.089 40.2093 267.015 40.284C266.949 40.3493 266.917 40.4287 266.917 40.522V46.78H265.405ZM276.671 46.78C276.335 46.78 276.032 46.696 275.761 46.528C275.49 46.36 275.271 46.1407 275.103 45.87C274.935 45.5993 274.851 45.296 274.851 44.96V40.48C274.851 40.144 274.935 39.8407 275.103 39.57C275.271 39.2993 275.49 39.08 275.761 38.912C276.032 38.744 276.335 38.66 276.671 38.66H281.291C281.627 38.66 281.93 38.744 282.201 38.912C282.481 39.0707 282.7 39.29 282.859 39.57C283.027 39.85 283.111 40.1533 283.111 40.48V44.96C283.111 45.296 283.027 45.5993 282.859 45.87C282.7 46.1407 282.481 46.36 282.201 46.528C281.93 46.696 281.627 46.78 281.291 46.78H276.671ZM276.713 45.268H281.249C281.342 45.268 281.422 45.2353 281.487 45.17C281.552 45.0953 281.585 45.0113 281.585 44.918V40.522C281.585 40.4287 281.552 40.3493 281.487 40.284C281.422 40.2093 281.342 40.172 281.249 40.172H276.713C276.62 40.172 276.536 40.2093 276.461 40.284C276.396 40.3493 276.363 40.4287 276.363 40.522V44.918C276.363 45.0113 276.396 45.0953 276.461 45.17C276.536 45.2353 276.62 45.268 276.713 45.268ZM286.064 46.78C285.728 46.78 285.424 46.696 285.154 46.528C284.883 46.36 284.664 46.1407 284.496 45.87C284.328 45.5993 284.244 45.296 284.244 44.96V36H285.756V44.918C285.756 45.0113 285.788 45.0953 285.854 45.17C285.928 45.2353 286.012 45.268 286.106 45.268H287.576V46.78H286.064ZM290.425 46.78C290.089 46.78 289.785 46.696 289.515 46.528C289.244 46.36 289.025 46.1407 288.857 45.87C288.689 45.5993 288.605 45.296 288.605 44.96V40.48C288.605 40.144 288.689 39.8407 288.857 39.57C289.025 39.2993 289.244 39.08 289.515 38.912C289.785 38.744 290.089 38.66 290.425 38.66H295.045C295.381 38.66 295.684 38.744 295.955 38.912C296.235 39.0707 296.454 39.29 296.613 39.57C296.781 39.85 296.865 40.1533 296.865 40.48V44.96C296.865 45.296 296.781 45.5993 296.613 45.87C296.454 46.1407 296.235 46.36 295.955 46.528C295.684 46.696 295.381 46.78 295.045 46.78H290.425ZM290.467 45.268H295.003C295.096 45.268 295.175 45.2353 295.241 45.17C295.306 45.0953 295.339 45.0113 295.339 44.918V40.522C295.339 40.4287 295.306 40.3493 295.241 40.284C295.175 40.2093 295.096 40.172 295.003 40.172H290.467C290.373 40.172 290.289 40.2093 290.215 40.284C290.149 40.3493 290.117 40.4287 290.117 40.522V44.918C290.117 45.0113 290.149 45.0953 290.215 45.17C290.289 45.2353 290.373 45.268 290.467 45.268ZM299.586 49.986V48.46H304.556C304.65 48.46 304.729 48.4227 304.794 48.348C304.869 48.2827 304.906 48.2033 304.906 48.11V46.78H299.978C299.652 46.78 299.348 46.7007 299.068 46.542C298.788 46.374 298.564 46.15 298.396 45.87C298.238 45.59 298.158 45.2867 298.158 44.96V40.48C298.158 40.144 298.242 39.8407 298.41 39.57C298.578 39.2993 298.798 39.08 299.068 38.912C299.348 38.744 299.652 38.66 299.978 38.66H304.598C304.934 38.66 305.238 38.744 305.508 38.912C305.788 39.08 306.008 39.2993 306.166 39.57C306.334 39.8407 306.418 40.144 306.418 40.48V48.166C306.418 48.502 306.334 48.8053 306.166 49.076C306.008 49.356 305.788 49.5753 305.508 49.734C305.238 49.902 304.934 49.986 304.598 49.986H299.586ZM300.02 45.268H304.556C304.65 45.268 304.729 45.2353 304.794 45.17C304.869 45.0953 304.906 45.0113 304.906 44.918V40.522C304.906 40.4287 304.869 40.3493 304.794 40.284C304.729 40.2093 304.65 40.172 304.556 40.172H300.02C299.927 40.172 299.843 40.2093 299.768 40.284C299.703 40.3493 299.67 40.4287 299.67 40.522V44.918C299.67 45.0113 299.703 45.0953 299.768 45.17C299.843 45.2353 299.927 45.268 300.02 45.268ZM309.061 49.888V48.362H314.031C314.124 48.362 314.204 48.3247 314.269 48.25C314.344 48.1847 314.381 48.1053 314.381 48.012V46.78H309.453C309.126 46.78 308.823 46.7007 308.543 46.542C308.263 46.374 308.039 46.15 307.871 45.87C307.712 45.59 307.633 45.2867 307.633 44.96V38.688H309.145V44.918C309.145 45.0113 309.178 45.0953 309.243 45.17C309.318 45.2353 309.402 45.268 309.495 45.268H314.031C314.124 45.268 314.204 45.2353 314.269 45.17C314.344 45.0953 314.381 45.0113 314.381 44.918V38.688H315.893V48.068C315.893 48.404 315.809 48.7073 315.641 48.978C315.482 49.258 315.263 49.4773 314.983 49.636C314.712 49.804 314.409 49.888 314.073 49.888H309.061ZM317.385 48.628V45.324H318.897V46.836C318.897 47.1253 318.832 47.3867 318.701 47.62C318.57 47.8627 318.388 48.0727 318.155 48.25C317.931 48.4273 317.674 48.5533 317.385 48.628ZM19.2162 64.78C18.8802 64.78 18.5722 64.696 18.2922 64.528C18.0215 64.36 17.8022 64.1407 17.6342 63.87C17.4755 63.5993 17.3962 63.296 17.3962 62.96V59.964H24.1302V58.522C24.1302 58.4287 24.0975 58.3493 24.0322 58.284C23.9668 58.2093 23.8875 58.172 23.7942 58.172H17.3962V56.66H23.8362C24.1722 56.66 24.4755 56.744 24.7462 56.912C25.0262 57.0707 25.2455 57.29 25.4042 57.57C25.5722 57.85 25.6562 58.1533 25.6562 58.48V64.78H19.2162ZM19.2582 63.268H24.1302V61.378H18.9082V62.918C18.9082 63.0113 18.9408 63.0953 19.0062 63.17C19.0808 63.2353 19.1648 63.268 19.2582 63.268ZM28.5309 64.78C28.1949 64.78 27.8869 64.7007 27.6069 64.542C27.3362 64.374 27.1169 64.15 26.9489 63.87C26.7902 63.59 26.7109 63.2867 26.7109 62.96V58.48C26.7109 58.144 26.7902 57.8407 26.9489 57.57C27.1169 57.2993 27.3362 57.08 27.6069 56.912C27.8869 56.744 28.1949 56.66 28.5309 56.66H33.4589V54H34.9709V64.78H28.5309ZM28.5869 63.268H33.1229C33.2162 63.268 33.2955 63.2353 33.3609 63.17C33.4262 63.0953 33.4589 63.0113 33.4589 62.918V58.522C33.4589 58.4287 33.4262 58.3493 33.3609 58.284C33.2955 58.2093 33.2162 58.172 33.1229 58.172H28.5869C28.4935 58.172 28.4095 58.2093 28.3349 58.284C28.2695 58.3493 28.2369 58.4287 28.2369 58.522V62.918C28.2369 63.0113 28.2695 63.0953 28.3349 63.17C28.4095 63.2353 28.4935 63.268 28.5869 63.268ZM37.8687 64.78C37.5327 64.78 37.2247 64.7007 36.9447 64.542C36.6741 64.374 36.4547 64.15 36.2867 63.87C36.1281 63.59 36.0487 63.2867 36.0487 62.96V58.48C36.0487 58.144 36.1281 57.8407 36.2867 57.57C36.4547 57.2993 36.6741 57.08 36.9447 56.912C37.2247 56.744 37.5327 56.66 37.8687 56.66H42.7967V54H44.3087V64.78H37.8687ZM37.9247 63.268H42.4607C42.5541 63.268 42.6334 63.2353 42.6987 63.17C42.7641 63.0953 42.7967 63.0113 42.7967 62.918V58.522C42.7967 58.4287 42.7641 58.3493 42.6987 58.284C42.6334 58.2093 42.5541 58.172 42.4607 58.172H37.9247C37.8314 58.172 37.7474 58.2093 37.6727 58.284C37.6074 58.3493 37.5747 58.4287 37.5747 58.522V62.918C37.5747 63.0113 37.6074 63.0953 37.6727 63.17C37.7474 63.2353 37.8314 63.268 37.9247 63.268ZM45.7926 64.78V56.66H47.3046V64.78H45.7926ZM45.7926 55.512V54H47.3046V55.512H45.7926ZM50.5381 64.78C50.2021 64.78 49.8988 64.696 49.6281 64.528C49.3574 64.36 49.1381 64.1407 48.9701 63.87C48.8021 63.5993 48.7181 63.296 48.7181 62.96V58.48C48.7181 58.144 48.8021 57.8407 48.9701 57.57C49.1381 57.2993 49.3574 57.08 49.6281 56.912C49.8988 56.744 50.2021 56.66 50.5381 56.66H56.9501V58.172H50.5801C50.4868 58.172 50.4028 58.2093 50.3281 58.284C50.2628 58.3493 50.2301 58.4287 50.2301 58.522V62.918C50.2301 63.0113 50.2628 63.0953 50.3281 63.17C50.4028 63.2353 50.4868 63.268 50.5801 63.268H56.9781V64.78H50.5381ZM59.9313 64.78C59.5953 64.78 59.2873 64.696 59.0073 64.528C58.7367 64.36 58.5173 64.1407 58.3493 63.87C58.1907 63.5993 58.1113 63.296 58.1113 62.96V54.098H59.6233V56.66H62.9553V58.172H59.6233V62.918C59.6233 63.0113 59.656 63.0953 59.7213 63.17C59.796 63.2353 59.88 63.268 59.9733 63.268H62.9553V64.78H59.9313ZM65.8506 64.78C65.5146 64.78 65.2113 64.696 64.9406 64.528C64.6699 64.36 64.4506 64.1407 64.2826 63.87C64.1146 63.5993 64.0306 63.296 64.0306 62.96V58.48C64.0306 58.144 64.1146 57.8407 64.2826 57.57C64.4506 57.2993 64.6699 57.08 64.9406 56.912C65.2113 56.744 65.5146 56.66 65.8506 56.66H70.4706C70.8066 56.66 71.1099 56.744 71.3806 56.912C71.6606 57.0707 71.8799 57.29 72.0386 57.57C72.2066 57.85 72.2906 58.1533 72.2906 58.48V61.476H65.5426V62.918C65.5426 63.0113 65.5753 63.0953 65.6406 63.17C65.7153 63.2353 65.7993 63.268 65.8926 63.268H72.2906V64.78H65.8506ZM65.5426 60.062H70.7646V58.522C70.7646 58.4287 70.7319 58.3493 70.6666 58.284C70.6013 58.2093 70.5219 58.172 70.4286 58.172H65.8926C65.7993 58.172 65.7153 58.2093 65.6406 58.284C65.5753 58.3493 65.5426 58.4287 65.5426 58.522V60.062ZM75.1519 64.78C74.8159 64.78 74.5079 64.7007 74.2279 64.542C73.9573 64.374 73.7379 64.15 73.5699 63.87C73.4113 63.59 73.3319 63.2867 73.3319 62.96V58.48C73.3319 58.144 73.4113 57.8407 73.5699 57.57C73.7379 57.2993 73.9573 57.08 74.2279 56.912C74.5079 56.744 74.8159 56.66 75.1519 56.66H80.0799V54H81.5919V64.78H75.1519ZM75.2079 63.268H79.7439C79.8373 63.268 79.9166 63.2353 79.9819 63.17C80.0473 63.0953 80.0799 63.0113 80.0799 62.918V58.522C80.0799 58.4287 80.0473 58.3493 79.9819 58.284C79.9166 58.2093 79.8373 58.172 79.7439 58.172H75.2079C75.1146 58.172 75.0306 58.2093 74.9559 58.284C74.8906 58.3493 74.8579 58.4287 74.8579 58.522V62.918C74.8579 63.0113 74.8906 63.0953 74.9559 63.17C75.0306 63.2353 75.1146 63.268 75.2079 63.268ZM88.9704 64.78C88.6344 64.78 88.3264 64.696 88.0464 64.528C87.7757 64.36 87.5564 64.1407 87.3884 63.87C87.2297 63.5993 87.1504 63.296 87.1504 62.96V54.098H88.6624V56.66H91.9944V58.172H88.6624V62.918C88.6624 63.0113 88.6951 63.0953 88.7604 63.17C88.8351 63.2353 88.9191 63.268 89.0124 63.268H91.9944V64.78H88.9704ZM94.8897 64.78C94.5537 64.78 94.2503 64.696 93.9797 64.528C93.709 64.36 93.4897 64.1407 93.3217 63.87C93.1537 63.5993 93.0697 63.296 93.0697 62.96V58.48C93.0697 58.144 93.1537 57.8407 93.3217 57.57C93.4897 57.2993 93.709 57.08 93.9797 56.912C94.2503 56.744 94.5537 56.66 94.8897 56.66H99.5097C99.8457 56.66 100.149 56.744 100.42 56.912C100.7 57.0707 100.919 57.29 101.078 57.57C101.246 57.85 101.33 58.1533 101.33 58.48V62.96C101.33 63.296 101.246 63.5993 101.078 63.87C100.919 64.1407 100.7 64.36 100.42 64.528C100.149 64.696 99.8457 64.78 99.5097 64.78H94.8897ZM94.9317 63.268H99.4677C99.561 63.268 99.6403 63.2353 99.7057 63.17C99.771 63.0953 99.8037 63.0113 99.8037 62.918V58.522C99.8037 58.4287 99.771 58.3493 99.7057 58.284C99.6403 58.2093 99.561 58.172 99.4677 58.172H94.9317C94.8383 58.172 94.7543 58.2093 94.6797 58.284C94.6143 58.3493 94.5817 58.4287 94.5817 58.522V62.918C94.5817 63.0113 94.6143 63.0953 94.6797 63.17C94.7543 63.2353 94.8383 63.268 94.9317 63.268ZM208.434 66.628V63.324H209.946V64.836C209.946 65.1253 209.881 65.3867 209.75 65.62C209.619 65.8627 209.437 66.0727 209.204 66.25C208.98 66.4273 208.723 66.5533 208.434 66.628ZM311.575 66.628V63.324H313.087V64.836C313.087 65.1253 313.021 65.3867 312.891 65.62C312.76 65.8627 312.578 66.0727 312.345 66.25C312.121 66.4273 311.864 66.5533 311.575 66.628ZM152.366 84.628V81.324H153.878V82.836C153.878 83.1253 153.812 83.3867 153.682 83.62C153.551 83.8627 153.369 84.0727 153.136 84.25C152.912 84.4273 152.655 84.5533 152.366 84.628ZM161.171 82.78C160.835 82.78 160.527 82.696 160.247 82.528C159.977 82.36 159.757 82.1407 159.589 81.87C159.431 81.5993 159.351 81.296 159.351 80.96V77.964H166.085V76.522C166.085 76.4287 166.053 76.3493 165.987 76.284C165.922 76.2093 165.843 76.172 165.749 76.172H159.351V74.66H165.791C166.127 74.66 166.431 74.744 166.701 74.912C166.981 75.0707 167.201 75.29 167.359 75.57C167.527 75.85 167.611 76.1533 167.611 76.48V82.78H161.171ZM161.213 81.268H166.085V79.378H160.863V80.918C160.863 81.0113 160.896 81.0953 160.961 81.17C161.036 81.2353 161.12 81.268 161.213 81.268ZM168.922 82.78V74.66H175.362C175.698 74.66 176.002 74.744 176.272 74.912C176.552 75.08 176.772 75.2993 176.93 75.57C177.098 75.8407 177.182 76.144 177.182 76.48V82.78H175.67V76.522C175.67 76.4287 175.633 76.3493 175.558 76.284C175.493 76.2093 175.414 76.172 175.32 76.172H170.784C170.691 76.172 170.607 76.2093 170.532 76.284C170.467 76.3493 170.434 76.4287 170.434 76.522V82.78H168.922ZM180.056 82.78C179.72 82.78 179.412 82.7007 179.132 82.542C178.862 82.374 178.642 82.15 178.474 81.87C178.316 81.59 178.236 81.2867 178.236 80.96V76.48C178.236 76.144 178.316 75.8407 178.474 75.57C178.642 75.2993 178.862 75.08 179.132 74.912C179.412 74.744 179.72 74.66 180.056 74.66H184.984V72H186.496V82.78H180.056ZM180.112 81.268H184.648C184.742 81.268 184.821 81.2353 184.886 81.17C184.952 81.0953 184.984 81.0113 184.984 80.918V76.522C184.984 76.4287 184.952 76.3493 184.886 76.284C184.821 76.2093 184.742 76.172 184.648 76.172H180.112C180.019 76.172 179.935 76.2093 179.86 76.284C179.795 76.3493 179.762 76.4287 179.762 76.522V80.918C179.762 81.0113 179.795 81.0953 179.86 81.17C179.935 81.2353 180.019 81.268 180.112 81.268ZM276.315 82.78V81.268H277.827V82.78H276.315Z" fill="white"/>
<path d="M174.249 28.78V20.52C174.249 20.184 174.328 19.8807 174.487 19.61C174.655 19.33 174.874 19.1107 175.145 18.952C175.425 18.784 175.733 18.7 176.069 18.7H182.495C182.831 18.7 183.139 18.784 183.419 18.952C183.699 19.1107 183.918 19.33 184.077 19.61C184.245 19.8807 184.329 20.184 184.329 20.52V28.78H182.803V25.252H175.761V28.78H174.249ZM175.761 23.74H182.803V20.562C182.803 20.4687 182.77 20.3893 182.705 20.324C182.639 20.2493 182.56 20.212 182.467 20.212H176.111C176.017 20.212 175.933 20.2493 175.859 20.324C175.793 20.3893 175.761 20.4687 175.761 20.562V23.74ZM187.688 28.78C187.352 28.78 187.048 28.696 186.778 28.528C186.507 28.36 186.288 28.1407 186.12 27.87C185.952 27.5993 185.868 27.296 185.868 26.96V18H187.38V26.918C187.38 27.0113 187.412 27.0953 187.478 27.17C187.552 27.2353 187.636 27.268 187.73 27.268H189.2V28.78H187.688ZM190.312 32V20.66H196.752C197.088 20.66 197.391 20.744 197.662 20.912C197.942 21.08 198.161 21.2993 198.32 21.57C198.488 21.8407 198.572 22.144 198.572 22.48V26.96C198.572 27.296 198.488 27.5993 198.32 27.87C198.161 28.1407 197.942 28.36 197.662 28.528C197.391 28.696 197.088 28.78 196.752 28.78H191.824V32H190.312ZM192.174 27.268H196.71C196.803 27.268 196.883 27.2353 196.948 27.17C197.023 27.0953 197.06 27.0113 197.06 26.918V22.522C197.06 22.4287 197.023 22.3493 196.948 22.284C196.883 22.2093 196.803 22.172 196.71 22.172H192.174C192.081 22.172 191.997 22.2093 191.922 22.284C191.857 22.3493 191.824 22.4287 191.824 22.522V26.918C191.824 27.0113 191.857 27.0953 191.922 27.17C191.997 27.2353 192.081 27.268 192.174 27.268ZM199.609 28.78V18H201.121V20.66H206.049C206.375 20.66 206.674 20.744 206.945 20.912C207.225 21.08 207.449 21.2993 207.617 21.57C207.785 21.8407 207.869 22.144 207.869 22.48V28.78H206.357V22.522C206.357 22.4287 206.319 22.3493 206.245 22.284C206.179 22.2093 206.1 22.172 206.007 22.172H201.471C201.377 22.172 201.293 22.2093 201.219 22.284C201.153 22.3493 201.121 22.4287 201.121 22.522V28.78H199.609ZM210.793 28.78C210.457 28.78 210.149 28.696 209.869 28.528C209.599 28.36 209.379 28.1407 209.211 27.87C209.053 27.5993 208.973 27.296 208.973 26.96V23.964H215.707V22.522C215.707 22.4287 215.675 22.3493 215.609 22.284C215.544 22.2093 215.465 22.172 215.371 22.172H208.973V20.66H215.413C215.749 20.66 216.053 20.744 216.323 20.912C216.603 21.0707 216.823 21.29 216.981 21.57C217.149 21.85 217.233 22.1533 217.233 22.48V28.78H210.793ZM210.835 27.268H215.707V25.378H210.485V26.918C210.485 27.0113 210.518 27.0953 210.583 27.17C210.658 27.2353 210.742 27.268 210.835 27.268ZM218.778 28.78V18.7H228.018V20.212H220.304V22.984H226.506V24.496H220.304V27.268H228.018V28.78H218.778ZM230.827 28.78C230.491 28.78 230.183 28.7007 229.903 28.542C229.632 28.374 229.413 28.15 229.245 27.87C229.086 27.59 229.007 27.2867 229.007 26.96V22.48C229.007 22.144 229.086 21.8407 229.245 21.57C229.413 21.2993 229.632 21.08 229.903 20.912C230.183 20.744 230.491 20.66 230.827 20.66H235.755V18H237.267V28.78H230.827ZM230.883 27.268H235.419C235.512 27.268 235.591 27.2353 235.657 27.17C235.722 27.0953 235.755 27.0113 235.755 26.918V22.522C235.755 22.4287 235.722 22.3493 235.657 22.284C235.591 22.2093 235.512 22.172 235.419 22.172H230.883C230.789 22.172 230.705 22.2093 230.631 22.284C230.565 22.3493 230.533 22.4287 230.533 22.522V26.918C230.533 27.0113 230.565 27.0953 230.631 27.17C230.705 27.2353 230.789 27.268 230.883 27.268ZM242.587 28.78V20.212H238.303V18.7H248.383V20.212H244.099V28.78H242.587ZM251.18 28.78C250.844 28.78 250.54 28.696 250.27 28.528C249.999 28.36 249.78 28.1407 249.612 27.87C249.444 27.5993 249.36 27.296 249.36 26.96V22.48C249.36 22.144 249.444 21.8407 249.612 21.57C249.78 21.2993 249.999 21.08 250.27 20.912C250.54 20.744 250.844 20.66 251.18 20.66H255.8C256.136 20.66 256.439 20.744 256.71 20.912C256.99 21.0707 257.209 21.29 257.368 21.57C257.536 21.85 257.62 22.1533 257.62 22.48V25.476H250.872V26.918C250.872 27.0113 250.904 27.0953 250.97 27.17C251.044 27.2353 251.128 27.268 251.222 27.268H257.62V28.78H251.18ZM250.872 24.062H256.094V22.522C256.094 22.4287 256.061 22.3493 255.996 22.284C255.93 22.2093 255.851 22.172 255.758 22.172H251.222C251.128 22.172 251.044 22.2093 250.97 22.284C250.904 22.3493 250.872 22.4287 250.872 22.522V24.062ZM260.572 28.78C260.236 28.78 259.933 28.696 259.662 28.528C259.392 28.36 259.172 28.1407 259.004 27.87C258.836 27.5993 258.752 27.296 258.752 26.96V22.48C258.752 22.144 258.836 21.8407 259.004 21.57C259.172 21.2993 259.392 21.08 259.662 20.912C259.933 20.744 260.236 20.66 260.572 20.66H266.984V22.172H260.614C260.521 22.172 260.437 22.2093 260.362 22.284C260.297 22.3493 260.264 22.4287 260.264 22.522V26.918C260.264 27.0113 260.297 27.0953 260.362 27.17C260.437 27.2353 260.521 27.268 260.614 27.268H267.012V28.78H260.572ZM268.255 28.78V18H269.767V20.66H274.695C275.022 20.66 275.321 20.744 275.591 20.912C275.871 21.08 276.095 21.2993 276.263 21.57C276.431 21.8407 276.515 22.144 276.515 22.48V28.78H275.003V22.522C275.003 22.4287 274.966 22.3493 274.891 22.284C274.826 22.2093 274.747 22.172 274.653 22.172H270.117C270.024 22.172 269.94 22.2093 269.865 22.284C269.8 22.3493 269.767 22.4287 269.767 22.522V28.78H268.255Z" fill="#00B581"/>
<path d="M108.644 64.78C108.308 64.78 108.004 64.696 107.734 64.528C107.463 64.36 107.244 64.1407 107.076 63.87C106.908 63.5993 106.824 63.296 106.824 62.96V58.48C106.824 58.144 106.908 57.8407 107.076 57.57C107.244 57.2993 107.463 57.08 107.734 56.912C108.004 56.744 108.308 56.66 108.644 56.66H113.264C113.6 56.66 113.903 56.744 114.174 56.912C114.454 57.0707 114.673 57.29 114.832 57.57C115 57.85 115.084 58.1533 115.084 58.48V62.96C115.084 63.296 115 63.5993 114.832 63.87C114.673 64.1407 114.454 64.36 114.174 64.528C113.903 64.696 113.6 64.78 113.264 64.78H108.644ZM108.686 63.268H113.222C113.315 63.268 113.394 63.2353 113.46 63.17C113.525 63.0953 113.558 63.0113 113.558 62.918V58.522C113.558 58.4287 113.525 58.3493 113.46 58.284C113.394 58.2093 113.315 58.172 113.222 58.172H108.686C108.592 58.172 108.508 58.2093 108.434 58.284C108.368 58.3493 108.336 58.4287 108.336 58.522V62.918C108.336 63.0113 108.368 63.0953 108.434 63.17C108.508 63.2353 108.592 63.268 108.686 63.268ZM116.559 68V56.66H122.999C123.335 56.66 123.638 56.744 123.909 56.912C124.189 57.08 124.408 57.2993 124.567 57.57C124.735 57.8407 124.819 58.144 124.819 58.48V62.96C124.819 63.296 124.735 63.5993 124.567 63.87C124.408 64.1407 124.189 64.36 123.909 64.528C123.638 64.696 123.335 64.78 122.999 64.78H118.071V68H116.559ZM118.421 63.268H122.957C123.05 63.268 123.13 63.2353 123.195 63.17C123.27 63.0953 123.307 63.0113 123.307 62.918V58.522C123.307 58.4287 123.27 58.3493 123.195 58.284C123.13 58.2093 123.05 58.172 122.957 58.172H118.421C118.328 58.172 118.244 58.2093 118.169 58.284C118.104 58.3493 118.071 58.4287 118.071 58.522V62.918C118.071 63.0113 118.104 63.0953 118.169 63.17C118.244 63.2353 118.328 63.268 118.421 63.268ZM127.662 64.78C127.326 64.78 127.018 64.696 126.738 64.528C126.467 64.36 126.248 64.1407 126.08 63.87C125.921 63.5993 125.842 63.296 125.842 62.96V54.098H127.354V56.66H130.686V58.172H127.354V62.918C127.354 63.0113 127.386 63.0953 127.452 63.17C127.526 63.2353 127.61 63.268 127.704 63.268H130.686V64.78H127.662ZM131.816 64.78V56.66H133.328V64.78H131.816ZM131.816 55.512V54H133.328V55.512H131.816ZM134.866 64.78V56.66H145.24C145.585 56.66 145.893 56.744 146.164 56.912C146.434 57.08 146.649 57.2993 146.808 57.57C146.976 57.8407 147.06 58.144 147.06 58.48V64.78H145.562V58.522C145.562 58.4287 145.524 58.3493 145.45 58.284C145.384 58.2093 145.305 58.172 145.212 58.172H142.09C141.987 58.172 141.903 58.2093 141.838 58.284C141.772 58.3493 141.74 58.4287 141.74 58.522V64.78H140.214V58.522C140.214 58.4287 140.176 58.3493 140.102 58.284C140.036 58.2093 139.957 58.172 139.864 58.172H136.728C136.634 58.172 136.555 58.2093 136.49 58.284C136.424 58.3493 136.392 58.4287 136.392 58.522V64.78H134.866ZM148.523 64.78V56.66H150.035V64.78H148.523ZM148.523 55.512V54H150.035V55.512H148.523ZM151.627 64.78V62.988L157.871 58.172H151.627V56.66H159.887V58.452L153.643 63.268H159.887V64.78H151.627ZM162.826 64.78C162.49 64.78 162.182 64.696 161.902 64.528C161.631 64.36 161.412 64.1407 161.244 63.87C161.085 63.5993 161.006 63.296 161.006 62.96V59.964H167.74V58.522C167.74 58.4287 167.707 58.3493 167.642 58.284C167.576 58.2093 167.497 58.172 167.404 58.172H161.006V56.66H167.446C167.782 56.66 168.085 56.744 168.356 56.912C168.636 57.0707 168.855 57.29 169.014 57.57C169.182 57.85 169.266 58.1533 169.266 58.48V64.78H162.826ZM162.868 63.268H167.74V61.378H162.518V62.918C162.518 63.0113 162.55 63.0953 162.616 63.17C162.69 63.2353 162.774 63.268 162.868 63.268ZM172.56 64.78C172.224 64.78 171.916 64.696 171.636 64.528C171.366 64.36 171.146 64.1407 170.978 63.87C170.82 63.5993 170.74 63.296 170.74 62.96V54.098H172.252V56.66H175.584V58.172H172.252V62.918C172.252 63.0113 172.285 63.0953 172.35 63.17C172.425 63.2353 172.509 63.268 172.602 63.268H175.584V64.78H172.56ZM176.715 64.78V56.66H178.227V64.78H176.715ZM176.715 55.512V54H178.227V55.512H176.715ZM181.542 64.78C181.206 64.78 180.903 64.696 180.632 64.528C180.361 64.36 180.142 64.1407 179.974 63.87C179.806 63.5993 179.722 63.296 179.722 62.96V58.48C179.722 58.144 179.806 57.8407 179.974 57.57C180.142 57.2993 180.361 57.08 180.632 56.912C180.903 56.744 181.206 56.66 181.542 56.66H186.162C186.498 56.66 186.801 56.744 187.072 56.912C187.352 57.0707 187.571 57.29 187.73 57.57C187.898 57.85 187.982 58.1533 187.982 58.48V62.96C187.982 63.296 187.898 63.5993 187.73 63.87C187.571 64.1407 187.352 64.36 187.072 64.528C186.801 64.696 186.498 64.78 186.162 64.78H181.542ZM181.584 63.268H186.12C186.213 63.268 186.293 63.2353 186.358 63.17C186.423 63.0953 186.456 63.0113 186.456 62.918V58.522C186.456 58.4287 186.423 58.3493 186.358 58.284C186.293 58.2093 186.213 58.172 186.12 58.172H181.584C181.491 58.172 181.407 58.2093 181.332 58.284C181.267 58.3493 181.234 58.4287 181.234 58.522V62.918C181.234 63.0113 181.267 63.0953 181.332 63.17C181.407 63.2353 181.491 63.268 181.584 63.268ZM189.184 64.78V56.66H195.624C195.96 56.66 196.263 56.744 196.534 56.912C196.814 57.08 197.033 57.2993 197.192 57.57C197.36 57.8407 197.444 58.144 197.444 58.48V64.78H195.932V58.522C195.932 58.4287 195.895 58.3493 195.82 58.284C195.755 58.2093 195.675 58.172 195.582 58.172H191.046C190.953 58.172 190.869 58.2093 190.794 58.284C190.729 58.3493 190.696 58.4287 190.696 58.522V64.78H189.184ZM200.572 64.78C200.236 64.78 199.933 64.696 199.662 64.528C199.392 64.36 199.172 64.1407 199.004 63.87C198.836 63.5993 198.752 63.296 198.752 62.96V62.75H200.264V62.918C200.264 63.0113 200.297 63.0953 200.362 63.17C200.437 63.2353 200.521 63.268 200.614 63.268H205.15C205.244 63.268 205.323 63.2353 205.388 63.17C205.454 63.0953 205.486 63.0113 205.486 62.918V61.826C205.486 61.7327 205.454 61.6533 205.388 61.588C205.323 61.5133 205.244 61.476 205.15 61.476H200.572C200.236 61.476 199.933 61.3967 199.662 61.238C199.392 61.07 199.172 60.8507 199.004 60.58C198.836 60.3 198.752 59.992 198.752 59.656V58.48C198.752 58.144 198.836 57.8407 199.004 57.57C199.172 57.2993 199.392 57.08 199.662 56.912C199.933 56.744 200.236 56.66 200.572 56.66H205.192C205.528 56.66 205.832 56.744 206.102 56.912C206.382 57.08 206.602 57.2993 206.76 57.57C206.928 57.8407 207.012 58.144 207.012 58.48V58.69H205.486V58.522C205.486 58.4287 205.454 58.3493 205.388 58.284C205.323 58.2093 205.244 58.172 205.15 58.172H200.614C200.521 58.172 200.437 58.2093 200.362 58.284C200.297 58.3493 200.264 58.4287 200.264 58.522V59.614C200.264 59.7073 200.297 59.7913 200.362 59.866C200.437 59.9313 200.521 59.964 200.614 59.964H205.192C205.528 59.964 205.832 60.048 206.102 60.216C206.382 60.3747 206.602 60.594 206.76 60.874C206.928 61.1447 207.012 61.448 207.012 61.784V62.96C207.012 63.296 206.928 63.5993 206.76 63.87C206.602 64.1407 206.382 64.36 206.102 64.528C205.832 64.696 205.528 64.78 205.192 64.78H200.572ZM215.42 64.78V58.48C215.42 58.144 215.504 57.8407 215.672 57.57C215.84 57.2993 216.059 57.08 216.33 56.912C216.61 56.744 216.913 56.66 217.24 56.66H221.776V58.172H217.282C217.188 58.172 217.104 58.2093 217.03 58.284C216.964 58.3493 216.932 58.4287 216.932 58.522V64.78H215.42ZM224.513 64.78C224.177 64.78 223.873 64.696 223.603 64.528C223.332 64.36 223.113 64.1407 222.945 63.87C222.777 63.5993 222.693 63.296 222.693 62.96V58.48C222.693 58.144 222.777 57.8407 222.945 57.57C223.113 57.2993 223.332 57.08 223.603 56.912C223.873 56.744 224.177 56.66 224.513 56.66H229.133C229.469 56.66 229.772 56.744 230.043 56.912C230.323 57.0707 230.542 57.29 230.701 57.57C230.869 57.85 230.953 58.1533 230.953 58.48V61.476H224.205V62.918C224.205 63.0113 224.237 63.0953 224.303 63.17C224.377 63.2353 224.461 63.268 224.555 63.268H230.953V64.78H224.513ZM224.205 60.062H229.427V58.522C229.427 58.4287 229.394 58.3493 229.329 58.284C229.263 58.2093 229.184 58.172 229.091 58.172H224.555C224.461 58.172 224.377 58.2093 224.303 58.284C224.237 58.3493 224.205 58.4287 224.205 58.522V60.062ZM232.414 64.78V55.82C232.414 55.484 232.493 55.1807 232.652 54.91C232.82 54.63 233.039 54.4107 233.31 54.252C233.59 54.084 233.898 54 234.234 54H237.258V55.512H234.276C234.183 55.512 234.099 55.5493 234.024 55.624C233.959 55.6893 233.926 55.7687 233.926 55.862V56.66H237.258V58.172H233.926V64.78H232.414ZM240.14 64.78C239.804 64.78 239.496 64.696 239.216 64.528C238.945 64.36 238.726 64.1407 238.558 63.87C238.399 63.5993 238.32 63.296 238.32 62.96V59.964H245.054V58.522C245.054 58.4287 245.021 58.3493 244.956 58.284C244.891 58.2093 244.811 58.172 244.718 58.172H238.32V56.66H244.76C245.096 56.66 245.399 56.744 245.67 56.912C245.95 57.0707 246.169 57.29 246.328 57.57C246.496 57.85 246.58 58.1533 246.58 58.48V64.78H240.14ZM240.182 63.268H245.054V61.378H239.832V62.918C239.832 63.0113 239.865 63.0953 239.93 63.17C240.005 63.2353 240.089 63.268 240.182 63.268ZM249.587 64.78C249.251 64.78 248.948 64.696 248.677 64.528C248.406 64.36 248.187 64.1407 248.019 63.87C247.851 63.5993 247.767 63.296 247.767 62.96V58.48C247.767 58.144 247.851 57.8407 248.019 57.57C248.187 57.2993 248.406 57.08 248.677 56.912C248.948 56.744 249.251 56.66 249.587 56.66H255.999V58.172H249.629C249.536 58.172 249.452 58.2093 249.377 58.284C249.312 58.3493 249.279 58.4287 249.279 58.522V62.918C249.279 63.0113 249.312 63.0953 249.377 63.17C249.452 63.2353 249.536 63.268 249.629 63.268H256.027V64.78H249.587ZM258.98 64.78C258.644 64.78 258.336 64.696 258.056 64.528C257.785 64.36 257.566 64.1407 257.398 63.87C257.239 63.5993 257.16 63.296 257.16 62.96V54.098H258.672V56.66H262.004V58.172H258.672V62.918C258.672 63.0113 258.705 63.0953 258.77 63.17C258.845 63.2353 258.929 63.268 259.022 63.268H262.004V64.78H258.98ZM264.899 64.78C264.563 64.78 264.26 64.696 263.989 64.528C263.719 64.36 263.499 64.1407 263.331 63.87C263.163 63.5993 263.079 63.296 263.079 62.96V58.48C263.079 58.144 263.163 57.8407 263.331 57.57C263.499 57.2993 263.719 57.08 263.989 56.912C264.26 56.744 264.563 56.66 264.899 56.66H269.519C269.855 56.66 270.159 56.744 270.429 56.912C270.709 57.0707 270.929 57.29 271.087 57.57C271.255 57.85 271.339 58.1533 271.339 58.48V62.96C271.339 63.296 271.255 63.5993 271.087 63.87C270.929 64.1407 270.709 64.36 270.429 64.528C270.159 64.696 269.855 64.78 269.519 64.78H264.899ZM264.941 63.268H269.477C269.571 63.268 269.65 63.2353 269.715 63.17C269.781 63.0953 269.813 63.0113 269.813 62.918V58.522C269.813 58.4287 269.781 58.3493 269.715 58.284C269.65 58.2093 269.571 58.172 269.477 58.172H264.941C264.848 58.172 264.764 58.2093 264.689 58.284C264.624 58.3493 264.591 58.4287 264.591 58.522V62.918C264.591 63.0113 264.624 63.0953 264.689 63.17C264.764 63.2353 264.848 63.268 264.941 63.268ZM272.568 64.78V58.48C272.568 58.144 272.652 57.8407 272.82 57.57C272.988 57.2993 273.207 57.08 273.478 56.912C273.758 56.744 274.061 56.66 274.388 56.66H278.924V58.172H274.43C274.337 58.172 274.253 58.2093 274.178 58.284C274.113 58.3493 274.08 58.4287 274.08 58.522V64.78H272.568ZM279.896 64.78V56.66H281.408V64.78H279.896ZM279.896 55.512V54H281.408V55.512H279.896ZM283.028 64.78V56.66H289.468C289.804 56.66 290.107 56.744 290.378 56.912C290.658 57.08 290.877 57.2993 291.036 57.57C291.204 57.8407 291.288 58.144 291.288 58.48V64.78H289.776V58.522C289.776 58.4287 289.738 58.3493 289.664 58.284C289.598 58.2093 289.519 58.172 289.426 58.172H284.89C284.796 58.172 284.712 58.2093 284.638 58.284C284.572 58.3493 284.54 58.4287 284.54 58.522V64.78H283.028ZM293.967 67.986V66.46H298.937C299.03 66.46 299.11 66.4227 299.175 66.348C299.25 66.2827 299.287 66.2033 299.287 66.11V64.78H294.359C294.032 64.78 293.729 64.7007 293.449 64.542C293.169 64.374 292.945 64.15 292.777 63.87C292.618 63.59 292.539 63.2867 292.539 62.96V58.48C292.539 58.144 292.623 57.8407 292.791 57.57C292.959 57.2993 293.178 57.08 293.449 56.912C293.729 56.744 294.032 56.66 294.359 56.66H298.979C299.315 56.66 299.618 56.744 299.889 56.912C300.169 57.08 300.388 57.2993 300.547 57.57C300.715 57.8407 300.799 58.144 300.799 58.48V66.166C300.799 66.502 300.715 66.8053 300.547 67.076C300.388 67.356 300.169 67.5753 299.889 67.734C299.618 67.902 299.315 67.986 298.979 67.986H293.967ZM294.401 63.268H298.937C299.03 63.268 299.11 63.2353 299.175 63.17C299.25 63.0953 299.287 63.0113 299.287 62.918V58.522C299.287 58.4287 299.25 58.3493 299.175 58.284C299.11 58.2093 299.03 58.172 298.937 58.172H294.401C294.308 58.172 294.224 58.2093 294.149 58.284C294.084 58.3493 294.051 58.4287 294.051 58.522V62.918C294.051 63.0113 294.084 63.0953 294.149 63.17C294.224 63.2353 294.308 63.268 294.401 63.268ZM303.713 64.78C303.377 64.78 303.074 64.696 302.803 64.528C302.532 64.36 302.313 64.1407 302.145 63.87C301.977 63.5993 301.893 63.296 301.893 62.96V62.75H303.405V62.918C303.405 63.0113 303.438 63.0953 303.503 63.17C303.578 63.2353 303.662 63.268 303.755 63.268H308.291C308.384 63.268 308.464 63.2353 308.529 63.17C308.594 63.0953 308.627 63.0113 308.627 62.918V61.826C308.627 61.7327 308.594 61.6533 308.529 61.588C308.464 61.5133 308.384 61.476 308.291 61.476H303.713C303.377 61.476 303.074 61.3967 302.803 61.238C302.532 61.07 302.313 60.8507 302.145 60.58C301.977 60.3 301.893 59.992 301.893 59.656V58.48C301.893 58.144 301.977 57.8407 302.145 57.57C302.313 57.2993 302.532 57.08 302.803 56.912C303.074 56.744 303.377 56.66 303.713 56.66H308.333C308.669 56.66 308.972 56.744 309.243 56.912C309.523 57.08 309.742 57.2993 309.901 57.57C310.069 57.8407 310.153 58.144 310.153 58.48V58.69H308.627V58.522C308.627 58.4287 308.594 58.3493 308.529 58.284C308.464 58.2093 308.384 58.172 308.291 58.172H303.755C303.662 58.172 303.578 58.2093 303.503 58.284C303.438 58.3493 303.405 58.4287 303.405 58.522V59.614C303.405 59.7073 303.438 59.7913 303.503 59.866C303.578 59.9313 303.662 59.964 303.755 59.964H308.333C308.669 59.964 308.972 60.048 309.243 60.216C309.523 60.3747 309.742 60.594 309.901 60.874C310.069 61.1447 310.153 61.448 310.153 61.784V62.96C310.153 63.296 310.069 63.5993 309.901 63.87C309.742 64.1407 309.523 64.36 309.243 64.528C308.972 64.696 308.669 64.78 308.333 64.78H303.713ZM58.3997 82.78C58.0637 82.78 57.7557 82.696 57.4757 82.528C57.2051 82.36 56.9857 82.1407 56.8177 81.87C56.6591 81.5993 56.5797 81.296 56.5797 80.96V77.964H63.3137V76.522C63.3137 76.4287 63.2811 76.3493 63.2157 76.284C63.1504 76.2093 63.0711 76.172 62.9777 76.172H56.5797V74.66H63.0197C63.3557 74.66 63.6591 74.744 63.9297 74.912C64.2097 75.0707 64.4291 75.29 64.5877 75.57C64.7557 75.85 64.8397 76.1533 64.8397 76.48V82.78H58.3997ZM58.4417 81.268H63.3137V79.378H58.0917V80.918C58.0917 81.0113 58.1244 81.0953 58.1897 81.17C58.2644 81.2353 58.3484 81.268 58.4417 81.268ZM68.1344 82.78C67.7984 82.78 67.4904 82.696 67.2104 82.528C66.9398 82.36 66.7204 82.1407 66.5524 81.87C66.3938 81.5993 66.3144 81.296 66.3144 80.96V74.66H67.8264V80.918C67.8264 81.0113 67.8591 81.0953 67.9244 81.17C67.9991 81.2353 68.0831 81.268 68.1764 81.268H72.7124C72.8058 81.268 72.8851 81.2353 72.9504 81.17C73.0251 81.0953 73.0624 81.0113 73.0624 80.918V74.66H74.5744V80.96C74.5744 81.296 74.4904 81.5993 74.3224 81.87C74.1638 82.1407 73.9444 82.36 73.6644 82.528C73.3938 82.696 73.0904 82.78 72.7544 82.78H68.1344ZM77.6091 82.78C77.2731 82.78 76.9651 82.696 76.6851 82.528C76.4144 82.36 76.1951 82.1407 76.0271 81.87C75.8684 81.5993 75.7891 81.296 75.7891 80.96V72.098H77.3011V74.66H80.6331V76.172H77.3011V80.918C77.3011 81.0113 77.3337 81.0953 77.3991 81.17C77.4737 81.2353 77.5577 81.268 77.6511 81.268H80.6331V82.78H77.6091ZM83.5283 82.78C83.1923 82.78 82.889 82.696 82.6183 82.528C82.3477 82.36 82.1283 82.1407 81.9603 81.87C81.7923 81.5993 81.7083 81.296 81.7083 80.96V76.48C81.7083 76.144 81.7923 75.8407 81.9603 75.57C82.1283 75.2993 82.3477 75.08 82.6183 74.912C82.889 74.744 83.1923 74.66 83.5283 74.66H88.1483C88.4843 74.66 88.7877 74.744 89.0583 74.912C89.3383 75.0707 89.5577 75.29 89.7163 75.57C89.8843 75.85 89.9683 76.1533 89.9683 76.48V80.96C89.9683 81.296 89.8843 81.5993 89.7163 81.87C89.5577 82.1407 89.3383 82.36 89.0583 82.528C88.7877 82.696 88.4843 82.78 88.1483 82.78H83.5283ZM83.5703 81.268H88.1063C88.1997 81.268 88.279 81.2353 88.3443 81.17C88.4097 81.0953 88.4423 81.0113 88.4423 80.918V76.522C88.4423 76.4287 88.4097 76.3493 88.3443 76.284C88.279 76.2093 88.1997 76.172 88.1063 76.172H83.5703C83.477 76.172 83.393 76.2093 83.3183 76.284C83.253 76.3493 83.2203 76.4287 83.2203 76.522V80.918C83.2203 81.0113 83.253 81.0953 83.3183 81.17C83.393 81.2353 83.477 81.268 83.5703 81.268ZM91.4437 82.78V74.66H101.818C102.163 74.66 102.471 74.744 102.742 74.912C103.012 75.08 103.227 75.2993 103.386 75.57C103.554 75.8407 103.638 76.144 103.638 76.48V82.78H102.14V76.522C102.14 76.4287 102.102 76.3493 102.028 76.284C101.962 76.2093 101.883 76.172 101.79 76.172H98.6677C98.565 76.172 98.481 76.2093 98.4157 76.284C98.3504 76.3493 98.3177 76.4287 98.3177 76.522V82.78H96.7917V76.522C96.7917 76.4287 96.7544 76.3493 96.6797 76.284C96.6144 76.2093 96.535 76.172 96.4417 76.172H93.3057C93.2123 76.172 93.133 76.2093 93.0677 76.284C93.0023 76.3493 92.9697 76.4287 92.9697 76.522V82.78H91.4437ZM106.757 82.78C106.421 82.78 106.113 82.696 105.833 82.528C105.563 82.36 105.343 82.1407 105.175 81.87C105.017 81.5993 104.937 81.296 104.937 80.96V77.964H111.671V76.522C111.671 76.4287 111.639 76.3493 111.573 76.284C111.508 76.2093 111.429 76.172 111.335 76.172H104.937V74.66H111.377C111.713 74.66 112.017 74.744 112.287 74.912C112.567 75.0707 112.787 75.29 112.945 75.57C113.113 75.85 113.197 76.1533 113.197 76.48V82.78H106.757ZM106.799 81.268H111.671V79.378H106.449V80.918C106.449 81.0113 106.482 81.0953 106.547 81.17C106.622 81.2353 106.706 81.268 106.799 81.268ZM116.492 82.78C116.156 82.78 115.848 82.696 115.568 82.528C115.297 82.36 115.078 82.1407 114.91 81.87C114.751 81.5993 114.672 81.296 114.672 80.96V72.098H116.184V74.66H119.516V76.172H116.184V80.918C116.184 81.0113 116.217 81.0953 116.282 81.17C116.357 81.2353 116.441 81.268 116.534 81.268H119.516V82.78H116.492ZM120.646 82.78V74.66H122.158V82.78H120.646ZM120.646 73.512V72H122.158V73.512H120.646ZM125.474 82.78C125.138 82.78 124.834 82.696 124.564 82.528C124.293 82.36 124.074 82.1407 123.906 81.87C123.738 81.5993 123.654 81.296 123.654 80.96V76.48C123.654 76.144 123.738 75.8407 123.906 75.57C124.074 75.2993 124.293 75.08 124.564 74.912C124.834 74.744 125.138 74.66 125.474 74.66H130.094C130.43 74.66 130.733 74.744 131.004 74.912C131.284 75.0707 131.503 75.29 131.662 75.57C131.83 75.85 131.914 76.1533 131.914 76.48V80.96C131.914 81.296 131.83 81.5993 131.662 81.87C131.503 82.1407 131.284 82.36 131.004 82.528C130.733 82.696 130.43 82.78 130.094 82.78H125.474ZM125.516 81.268H130.052C130.145 81.268 130.224 81.2353 130.29 81.17C130.355 81.0953 130.388 81.0113 130.388 80.918V76.522C130.388 76.4287 130.355 76.3493 130.29 76.284C130.224 76.2093 130.145 76.172 130.052 76.172H125.516C125.422 76.172 125.338 76.2093 125.264 76.284C125.198 76.3493 125.166 76.4287 125.166 76.522V80.918C125.166 81.0113 125.198 81.0953 125.264 81.17C125.338 81.2353 125.422 81.268 125.516 81.268ZM133.116 82.78V74.66H139.556C139.892 74.66 140.195 74.744 140.466 74.912C140.746 75.08 140.965 75.2993 141.124 75.57C141.292 75.8407 141.376 76.144 141.376 76.48V82.78H139.864V76.522C139.864 76.4287 139.826 76.3493 139.752 76.284C139.686 76.2093 139.607 76.172 139.514 76.172H134.978C134.884 76.172 134.8 76.2093 134.726 76.284C134.66 76.3493 134.628 76.4287 134.628 76.522V82.78H133.116ZM144.504 82.78C144.168 82.78 143.865 82.696 143.594 82.528C143.323 82.36 143.104 82.1407 142.936 81.87C142.768 81.5993 142.684 81.296 142.684 80.96V80.75H144.196V80.918C144.196 81.0113 144.229 81.0953 144.294 81.17C144.369 81.2353 144.453 81.268 144.546 81.268H149.082C149.175 81.268 149.255 81.2353 149.32 81.17C149.385 81.0953 149.418 81.0113 149.418 80.918V79.826C149.418 79.7327 149.385 79.6533 149.32 79.588C149.255 79.5133 149.175 79.476 149.082 79.476H144.504C144.168 79.476 143.865 79.3967 143.594 79.238C143.323 79.07 143.104 78.8507 142.936 78.58C142.768 78.3 142.684 77.992 142.684 77.656V76.48C142.684 76.144 142.768 75.8407 142.936 75.57C143.104 75.2993 143.323 75.08 143.594 74.912C143.865 74.744 144.168 74.66 144.504 74.66H149.124C149.46 74.66 149.763 74.744 150.034 74.912C150.314 75.08 150.533 75.2993 150.692 75.57C150.86 75.8407 150.944 76.144 150.944 76.48V76.69H149.418V76.522C149.418 76.4287 149.385 76.3493 149.32 76.284C149.255 76.2093 149.175 76.172 149.082 76.172H144.546C144.453 76.172 144.369 76.2093 144.294 76.284C144.229 76.3493 144.196 76.4287 144.196 76.522V77.614C144.196 77.7073 144.229 77.7913 144.294 77.866C144.369 77.9313 144.453 77.964 144.546 77.964H149.124C149.46 77.964 149.763 78.048 150.034 78.216C150.314 78.3747 150.533 78.594 150.692 78.874C150.86 79.1447 150.944 79.448 150.944 79.784V80.96C150.944 81.296 150.86 81.5993 150.692 81.87C150.533 82.1407 150.314 82.36 150.034 82.528C149.763 82.696 149.46 82.78 149.124 82.78H144.504ZM193.847 82.78C193.511 82.78 193.207 82.696 192.937 82.528C192.666 82.36 192.447 82.1407 192.279 81.87C192.111 81.5993 192.027 81.296 192.027 80.96V76.48C192.027 76.144 192.111 75.8407 192.279 75.57C192.447 75.2993 192.666 75.08 192.937 74.912C193.207 74.744 193.511 74.66 193.847 74.66H200.259V76.172H193.889C193.795 76.172 193.711 76.2093 193.637 76.284C193.571 76.3493 193.539 76.4287 193.539 76.522V80.918C193.539 81.0113 193.571 81.0953 193.637 81.17C193.711 81.2353 193.795 81.268 193.889 81.268H200.287V82.78H193.847ZM203.526 82.78C203.19 82.78 202.887 82.696 202.616 82.528C202.346 82.36 202.126 82.1407 201.958 81.87C201.79 81.5993 201.706 81.296 201.706 80.96V76.48C201.706 76.144 201.79 75.8407 201.958 75.57C202.126 75.2993 202.346 75.08 202.616 74.912C202.887 74.744 203.19 74.66 203.526 74.66H208.146C208.482 74.66 208.786 74.744 209.056 74.912C209.336 75.0707 209.556 75.29 209.714 75.57C209.882 75.85 209.966 76.1533 209.966 76.48V80.96C209.966 81.296 209.882 81.5993 209.714 81.87C209.556 82.1407 209.336 82.36 209.056 82.528C208.786 82.696 208.482 82.78 208.146 82.78H203.526ZM203.568 81.268H208.104C208.198 81.268 208.277 81.2353 208.342 81.17C208.408 81.0953 208.44 81.0113 208.44 80.918V76.522C208.44 76.4287 208.408 76.3493 208.342 76.284C208.277 76.2093 208.198 76.172 208.104 76.172H203.568C203.475 76.172 203.391 76.2093 203.316 76.284C203.251 76.3493 203.218 76.4287 203.218 76.522V80.918C203.218 81.0113 203.251 81.0953 203.316 81.17C203.391 81.2353 203.475 81.268 203.568 81.268ZM211.442 82.78V74.66H221.816C222.161 74.66 222.469 74.744 222.74 74.912C223.01 75.08 223.225 75.2993 223.384 75.57C223.552 75.8407 223.636 76.144 223.636 76.48V82.78H222.138V76.522C222.138 76.4287 222.1 76.3493 222.026 76.284C221.96 76.2093 221.881 76.172 221.788 76.172H218.666C218.563 76.172 218.479 76.2093 218.414 76.284C218.348 76.3493 218.316 76.4287 218.316 76.522V82.78H216.79V76.522C216.79 76.4287 216.752 76.3493 216.678 76.284C216.612 76.2093 216.533 76.172 216.44 76.172H213.304C213.21 76.172 213.131 76.2093 213.066 76.284C213 76.3493 212.968 76.4287 212.968 76.522V82.78H211.442ZM224.84 86V74.66H231.28C231.616 74.66 231.92 74.744 232.19 74.912C232.47 75.08 232.69 75.2993 232.848 75.57C233.016 75.8407 233.1 76.144 233.1 76.48V80.96C233.1 81.296 233.016 81.5993 232.848 81.87C232.69 82.1407 232.47 82.36 232.19 82.528C231.92 82.696 231.616 82.78 231.28 82.78H226.352V86H224.84ZM226.702 81.268H231.238C231.332 81.268 231.411 81.2353 231.476 81.17C231.551 81.0953 231.588 81.0113 231.588 80.918V76.522C231.588 76.4287 231.551 76.3493 231.476 76.284C231.411 76.2093 231.332 76.172 231.238 76.172H226.702C226.609 76.172 226.525 76.2093 226.45 76.284C226.385 76.3493 226.352 76.4287 226.352 76.522V80.918C226.352 81.0113 226.385 81.0953 226.45 81.17C226.525 81.2353 226.609 81.268 226.702 81.268ZM235.929 82.78C235.593 82.78 235.29 82.696 235.019 82.528C234.748 82.36 234.529 82.1407 234.361 81.87C234.193 81.5993 234.109 81.296 234.109 80.96V72H235.621V80.918C235.621 81.0113 235.654 81.0953 235.719 81.17C235.794 81.2353 235.878 81.268 235.971 81.268H237.441V82.78H235.929ZM240.249 82.78C239.913 82.78 239.61 82.696 239.339 82.528C239.068 82.36 238.849 82.1407 238.681 81.87C238.513 81.5993 238.429 81.296 238.429 80.96V76.48C238.429 76.144 238.513 75.8407 238.681 75.57C238.849 75.2993 239.068 75.08 239.339 74.912C239.61 74.744 239.913 74.66 240.249 74.66H244.869C245.205 74.66 245.508 74.744 245.779 74.912C246.059 75.0707 246.278 75.29 246.437 75.57C246.605 75.85 246.689 76.1533 246.689 76.48V79.476H239.941V80.918C239.941 81.0113 239.974 81.0953 240.039 81.17C240.114 81.2353 240.198 81.268 240.291 81.268H246.689V82.78H240.249ZM239.941 78.062H245.163V76.522C245.163 76.4287 245.13 76.3493 245.065 76.284C245 76.2093 244.92 76.172 244.827 76.172H240.291C240.198 76.172 240.114 76.2093 240.039 76.284C239.974 76.3493 239.941 76.4287 239.941 76.522V78.062ZM247.806 82.78V82.514L250.984 78.65L247.806 74.926V74.66H249.57L251.964 77.474L254.372 74.66H256.122V74.926L252.958 78.65L256.136 82.514V82.78H254.372L251.964 79.826L249.57 82.78H247.806ZM257.584 82.78V74.66H259.096V82.78H257.584ZM257.584 73.512V72H259.096V73.512H257.584ZM262.535 82.78C262.199 82.78 261.891 82.696 261.611 82.528C261.34 82.36 261.121 82.1407 260.953 81.87C260.794 81.5993 260.715 81.296 260.715 80.96V72.098H262.227V74.66H265.559V76.172H262.227V80.918C262.227 81.0113 262.26 81.0953 262.325 81.17C262.4 81.2353 262.484 81.268 262.577 81.268H265.559V82.78H262.535ZM267.991 85.888V84.362H272.961C273.054 84.362 273.133 84.3247 273.199 84.25C273.273 84.1847 273.311 84.1053 273.311 84.012V82.78H268.383C268.056 82.78 267.753 82.7007 267.473 82.542C267.193 82.374 266.969 82.15 266.801 81.87C266.642 81.59 266.563 81.2867 266.563 80.96V74.688H268.075V80.918C268.075 81.0113 268.107 81.0953 268.173 81.17C268.247 81.2353 268.331 81.268 268.425 81.268H272.961C273.054 81.268 273.133 81.2353 273.199 81.17C273.273 81.0953 273.311 81.0113 273.311 80.918V74.688H274.823V84.068C274.823 84.404 274.739 84.7073 274.571 84.978C274.412 85.258 274.193 85.4773 273.913 85.636C273.642 85.804 273.339 85.888 273.003 85.888H267.991Z" fill="#FF0000"/>
</svg>
