<svg width="178" height="14" viewBox="0 0 178 14" fill="none" xmlns="http://www.w3.org/2000/svg">
<path d="M-6.31064e-06 13.86V3.24C-6.31064e-06 2.808 0.101994 2.418 0.305994 2.07C0.521994 1.71 0.803994 1.428 1.15199 1.224C1.51199 1.008 1.90799 0.9 2.33999 0.9H10.602C11.034 0.9 11.43 1.008 11.79 1.224C12.15 1.428 12.432 1.71 12.636 2.07C12.852 2.418 12.96 2.808 12.96 3.24V13.86H10.998V9.324H1.94399V13.86H-6.31064e-06ZM1.94399 7.38H10.998V3.294C10.998 3.174 10.956 3.072 10.872 2.988C10.788 2.892 10.686 2.844 10.566 2.844H2.39399C2.27399 2.844 2.16599 2.892 2.06999 2.988C1.98599 3.072 1.94399 3.174 1.94399 3.294V7.38ZM14.9569 13.86V0.9H16.9009V13.86H14.9569ZM26.3672 13.86C25.9472 13.86 25.5572 13.758 25.1972 13.554C24.8492 13.338 24.5672 13.056 24.3512 12.708C24.1352 12.348 24.0272 11.952 24.0272 11.52V7.848C24.0272 7.584 24.1532 7.32 24.4052 7.056C24.6572 6.78 25.0052 6.612 25.4492 6.552C24.9812 6.156 24.7472 5.676 24.7472 5.112V3.258C24.7472 2.826 24.8492 2.436 25.0532 2.088C25.2692 1.728 25.5512 1.446 25.8992 1.242C26.2592 1.026 26.6552 0.918 27.0872 0.918H34.0892C34.4612 0.918 34.8092 1.008 35.1332 1.188C35.4572 1.368 35.7332 1.608 35.9612 1.908C36.2012 2.196 36.3632 2.514 36.4472 2.862V4.068H34.4852V3.33C34.4852 3.21 34.4432 3.108 34.3592 3.024C34.2752 2.94 34.1672 2.898 34.0352 2.898H27.1232C27.0032 2.898 26.9012 2.94 26.8172 3.024C26.7332 3.108 26.6912 3.21 26.6912 3.33V5.634L35.0252 9.846V7.632H36.9692V10.584L39.2552 11.934V13.788L36.7712 12.384C36.5552 12.828 36.2552 13.188 35.8712 13.464C35.4872 13.728 35.0792 13.86 34.6472 13.86H26.3672ZM26.4212 11.916H33.8552C33.9752 11.916 34.1012 11.88 34.2332 11.808C34.3652 11.724 34.4792 11.622 34.5752 11.502L26.6912 7.542L26.4212 7.488C26.3012 7.488 26.1932 7.548 26.0972 7.668C26.0132 7.788 25.9712 7.98 25.9712 8.244V11.466C25.9712 11.586 26.0132 11.694 26.0972 11.79C26.1932 11.874 26.3012 11.916 26.4212 11.916ZM46.2305 13.86V0.9H56.8325C57.2645 0.9 57.6605 1.008 58.0205 1.224C58.3805 1.428 58.6625 1.71 58.8665 2.07C59.0825 2.418 59.1905 2.808 59.1905 3.24V11.52C59.1905 11.952 59.0825 12.348 58.8665 12.708C58.6625 13.056 58.3805 13.338 58.0205 13.554C57.6605 13.758 57.2645 13.86 56.8325 13.86H46.2305ZM48.6065 11.916H56.7965C56.9165 11.916 57.0185 11.874 57.1025 11.79C57.1865 11.694 57.2285 11.586 57.2285 11.466V3.294C57.2285 3.174 57.1865 3.072 57.1025 2.988C57.0185 2.892 56.9165 2.844 56.7965 2.844H48.6065C48.4865 2.844 48.3845 2.892 48.3005 2.988C48.2165 3.072 48.1745 3.174 48.1745 3.294V11.466C48.1745 11.586 48.2165 11.694 48.3005 11.79C48.3845 11.874 48.4865 11.916 48.6065 11.916ZM63.4742 13.86C63.0422 13.86 62.6462 13.752 62.2862 13.536C61.9382 13.32 61.6562 13.038 61.4402 12.69C61.2362 12.342 61.1342 11.952 61.1342 11.52V7.668H69.7922V5.814C69.7922 5.694 69.7502 5.592 69.6662 5.508C69.5822 5.412 69.4802 5.364 69.3602 5.364H61.1342V3.42H69.4142C69.8462 3.42 70.2362 3.528 70.5842 3.744C70.9442 3.948 71.2262 4.23 71.4302 4.59C71.6462 4.95 71.7542 5.34 71.7542 5.76V13.86H63.4742ZM63.5282 11.916H69.7922V9.486H63.0782V11.466C63.0782 11.586 63.1202 11.694 63.2042 11.79C63.3002 11.874 63.4082 11.916 63.5282 11.916ZM75.9902 13.86C75.5582 13.86 75.1622 13.752 74.8022 13.536C74.4542 13.32 74.1722 13.038 73.9562 12.69C73.7522 12.342 73.6502 11.952 73.6502 11.52V0.126H75.5942V3.42H79.8782V5.364H75.5942V11.466C75.5942 11.586 75.6362 11.694 75.7202 11.79C75.8162 11.874 75.9242 11.916 76.0442 11.916H79.8782V13.86H75.9902ZM83.8121 13.86C83.3801 13.86 82.9841 13.752 82.6241 13.536C82.2761 13.32 81.9941 13.038 81.7781 12.69C81.5741 12.342 81.4721 11.952 81.4721 11.52V7.668H90.1301V5.814C90.1301 5.694 90.0881 5.592 90.0041 5.508C89.9201 5.412 89.8181 5.364 89.6981 5.364H81.4721V3.42H89.7521C90.1841 3.42 90.5741 3.528 90.9221 3.744C91.2821 3.948 91.5641 4.23 91.7681 4.59C91.9841 4.95 92.0921 5.34 92.0921 5.76V13.86H83.8121ZM83.8661 11.916H90.1301V9.486H83.4161V11.466C83.4161 11.586 83.4581 11.694 83.5421 11.79C83.6381 11.874 83.7461 11.916 83.8661 11.916ZM101.531 13.86C101.111 13.86 100.721 13.758 100.361 13.554C100.001 13.338 99.7128 13.056 99.4968 12.708C99.2928 12.348 99.1908 11.952 99.1908 11.52V10.764H101.135V11.466C101.135 11.586 101.177 11.694 101.261 11.79C101.357 11.874 101.465 11.916 101.585 11.916H109.757C109.877 11.916 109.979 11.874 110.063 11.79C110.147 11.694 110.189 11.586 110.189 11.466V8.802C110.189 8.67 110.147 8.562 110.063 8.478C109.979 8.394 109.877 8.352 109.757 8.352H101.531C101.111 8.352 100.721 8.25 100.361 8.046C100.001 7.83 99.7128 7.548 99.4968 7.2C99.2928 6.84 99.1908 6.444 99.1908 6.012V3.24C99.1908 2.808 99.2928 2.418 99.4968 2.07C99.7128 1.71 100.001 1.428 100.361 1.224C100.721 1.008 101.111 0.9 101.531 0.9H109.811C110.231 0.9 110.621 1.008 110.981 1.224C111.341 1.428 111.623 1.71 111.827 2.07C112.043 2.418 112.151 2.808 112.151 3.24V3.996H110.189V3.294C110.189 3.174 110.147 3.072 110.063 2.988C109.979 2.892 109.877 2.844 109.757 2.844H101.585C101.465 2.844 101.357 2.892 101.261 2.988C101.177 3.072 101.135 3.174 101.135 3.294V5.958C101.135 6.09 101.177 6.198 101.261 6.282C101.357 6.366 101.465 6.408 101.585 6.408H109.811C110.231 6.408 110.621 6.516 110.981 6.732C111.341 6.936 111.623 7.218 111.827 7.578C112.043 7.926 112.151 8.316 112.151 8.748V11.52C112.151 11.952 112.043 12.348 111.827 12.708C111.623 13.056 111.341 13.338 110.981 13.554C110.621 13.758 110.231 13.86 109.811 13.86H101.531ZM116.349 13.86C115.917 13.86 115.527 13.752 115.179 13.536C114.831 13.32 114.549 13.038 114.333 12.69C114.117 12.342 114.009 11.952 114.009 11.52V5.76C114.009 5.328 114.117 4.938 114.333 4.59C114.549 4.242 114.831 3.96 115.179 3.744C115.527 3.528 115.917 3.42 116.349 3.42H124.593V5.364H116.403C116.283 5.364 116.175 5.412 116.079 5.508C115.995 5.592 115.953 5.694 115.953 5.814V11.466C115.953 11.586 115.995 11.694 116.079 11.79C116.175 11.874 116.283 11.916 116.403 11.916H124.629V13.86H116.349ZM126.542 13.86V3.42H128.486V13.86H126.542ZM126.542 1.944V-1.19209e-07H128.486V1.944H126.542ZM132.819 13.86C132.387 13.86 131.997 13.752 131.649 13.536C131.301 13.32 131.019 13.038 130.803 12.69C130.587 12.342 130.479 11.952 130.479 11.52V5.76C130.479 5.328 130.587 4.938 130.803 4.59C131.019 4.242 131.301 3.96 131.649 3.744C131.997 3.528 132.387 3.42 132.819 3.42H138.759C139.191 3.42 139.581 3.528 139.929 3.744C140.289 3.948 140.571 4.23 140.775 4.59C140.991 4.95 141.099 5.34 141.099 5.76V9.612H132.423V11.466C132.423 11.586 132.465 11.694 132.549 11.79C132.645 11.874 132.753 11.916 132.873 11.916H141.099V13.86H132.819ZM132.423 7.794H139.137V5.814C139.137 5.694 139.095 5.592 139.011 5.508C138.927 5.412 138.825 5.364 138.705 5.364H132.873C132.753 5.364 132.645 5.412 132.549 5.508C132.465 5.592 132.423 5.694 132.423 5.814V7.794ZM142.996 13.86V3.42H151.276C151.708 3.42 152.098 3.528 152.446 3.744C152.806 3.96 153.088 4.242 153.292 4.59C153.508 4.938 153.616 5.328 153.616 5.76V13.86H151.672V5.814C151.672 5.694 151.624 5.592 151.528 5.508C151.444 5.412 151.342 5.364 151.222 5.364H145.39C145.27 5.364 145.162 5.412 145.066 5.508C144.982 5.592 144.94 5.694 144.94 5.814V13.86H142.996ZM157.429 13.86C156.997 13.86 156.607 13.752 156.259 13.536C155.911 13.32 155.629 13.038 155.413 12.69C155.197 12.342 155.089 11.952 155.089 11.52V5.76C155.089 5.328 155.197 4.938 155.413 4.59C155.629 4.242 155.911 3.96 156.259 3.744C156.607 3.528 156.997 3.42 157.429 3.42H165.673V5.364H157.483C157.363 5.364 157.255 5.412 157.159 5.508C157.075 5.592 157.033 5.694 157.033 5.814V11.466C157.033 11.586 157.075 11.694 157.159 11.79C157.255 11.874 157.363 11.916 157.483 11.916H165.709V13.86H157.429ZM169.487 13.86C169.055 13.86 168.665 13.752 168.317 13.536C167.969 13.32 167.687 13.038 167.471 12.69C167.255 12.342 167.147 11.952 167.147 11.52V5.76C167.147 5.328 167.255 4.938 167.471 4.59C167.687 4.242 167.969 3.96 168.317 3.744C168.665 3.528 169.055 3.42 169.487 3.42H175.427C175.859 3.42 176.249 3.528 176.597 3.744C176.957 3.948 177.239 4.23 177.443 4.59C177.659 4.95 177.767 5.34 177.767 5.76V9.612H169.091V11.466C169.091 11.586 169.133 11.694 169.217 11.79C169.313 11.874 169.421 11.916 169.541 11.916H177.767V13.86H169.487ZM169.091 7.794H175.805V5.814C175.805 5.694 175.763 5.592 175.679 5.508C175.595 5.412 175.493 5.364 175.373 5.364H169.541C169.421 5.364 169.313 5.412 169.217 5.508C169.133 5.592 169.091 5.694 169.091 5.814V7.794Z" fill="white"/>
</svg>
