<svg width="205" height="14" viewBox="0 0 205 14" fill="none" xmlns="http://www.w3.org/2000/svg">
<path d="M-1.16453e-05 13.86V0.9H10.08C10.5 0.9 10.89 1.008 11.25 1.224C11.61 1.428 11.892 1.71 12.096 2.07C12.312 2.418 12.42 2.808 12.42 3.24V5.886C12.42 6.042 12.402 6.198 12.366 6.354C12.342 6.51 12.294 6.654 12.222 6.786C12.462 7.122 12.642 7.44 12.762 7.74C12.894 8.028 12.96 8.322 12.96 8.622V11.52C12.96 11.952 12.852 12.348 12.636 12.708C12.432 13.056 12.15 13.338 11.79 13.554C11.43 13.758 11.034 13.86 10.602 13.86H-1.16453e-05ZM2.39399 11.916H10.566C10.686 11.916 10.788 11.874 10.872 11.79C10.956 11.694 10.998 11.586 10.998 11.466V8.676C10.998 8.556 10.956 8.454 10.872 8.37C10.788 8.274 10.686 8.226 10.566 8.226H2.39399C2.27399 8.226 2.16599 8.274 2.06999 8.37C1.98599 8.454 1.94399 8.556 1.94399 8.676V11.466C1.94399 11.586 1.98599 11.694 2.06999 11.79C2.16599 11.874 2.27399 11.916 2.39399 11.916ZM2.39399 6.282H10.026C10.146 6.282 10.248 6.24 10.332 6.156C10.416 6.06 10.458 5.952 10.458 5.832V3.294C10.458 3.174 10.416 3.072 10.332 2.988C10.248 2.892 10.146 2.844 10.026 2.844H2.39399C2.27399 2.844 2.16599 2.892 2.06999 2.988C1.98599 3.072 1.94399 3.174 1.94399 3.294V5.832C1.94399 5.952 1.98599 6.06 2.06999 6.156C2.16599 6.24 2.27399 6.282 2.39399 6.282ZM17.1906 13.86C16.7586 13.86 16.3626 13.752 16.0026 13.536C15.6546 13.32 15.3726 13.038 15.1566 12.69C14.9526 12.342 14.8506 11.952 14.8506 11.52V7.668H23.5086V5.814C23.5086 5.694 23.4666 5.592 23.3826 5.508C23.2986 5.412 23.1966 5.364 23.0766 5.364H14.8506V3.42H23.1306C23.5626 3.42 23.9526 3.528 24.3006 3.744C24.6606 3.948 24.9426 4.23 25.1466 4.59C25.3626 4.95 25.4706 5.34 25.4706 5.76V13.86H17.1906ZM17.2446 11.916H23.5086V9.486H16.7946V11.466C16.7946 11.586 16.8366 11.694 16.9206 11.79C17.0166 11.874 17.1246 11.916 17.2446 11.916ZM29.3366 13.86C28.9046 13.86 28.5146 13.752 28.1666 13.536C27.8186 13.32 27.5366 13.038 27.3206 12.69C27.1046 12.342 26.9966 11.952 26.9966 11.52V5.76C26.9966 5.328 27.1046 4.938 27.3206 4.59C27.5366 4.242 27.8186 3.96 28.1666 3.744C28.5146 3.528 28.9046 3.42 29.3366 3.42H37.5806V5.364H29.3906C29.2706 5.364 29.1626 5.412 29.0666 5.508C28.9826 5.592 28.9406 5.694 28.9406 5.814V11.466C28.9406 11.586 28.9826 11.694 29.0666 11.79C29.1626 11.874 29.2706 11.916 29.3906 11.916H37.6166V13.86H29.3366ZM39.1619 13.86V-1.19209e-07H41.1059V7.668H43.4459L47.3519 3.42H49.5839V3.78L45.1739 8.64L49.5839 13.5V13.86H47.3519L43.4459 9.612H41.1059V13.86H39.1619ZM53.0319 13.86C52.5999 13.86 52.2099 13.752 51.8619 13.536C51.5139 13.32 51.2319 13.038 51.0159 12.69C50.7999 12.342 50.6919 11.952 50.6919 11.52V5.76C50.6919 5.328 50.7999 4.938 51.0159 4.59C51.2319 4.242 51.5139 3.96 51.8619 3.744C52.2099 3.528 52.5999 3.42 53.0319 3.42H58.9719C59.4039 3.42 59.7939 3.528 60.1419 3.744C60.5019 3.948 60.7839 4.23 60.9879 4.59C61.2039 4.95 61.3119 5.34 61.3119 5.76V9.612H52.6359V11.466C52.6359 11.586 52.6779 11.694 52.7619 11.79C52.8579 11.874 52.9659 11.916 53.0859 11.916H61.3119V13.86H53.0319ZM52.6359 7.794H59.3499V5.814C59.3499 5.694 59.3079 5.592 59.2239 5.508C59.1399 5.412 59.0379 5.364 58.9179 5.364H53.0859C52.9659 5.364 52.8579 5.412 52.7619 5.508C52.6779 5.592 52.6359 5.694 52.6359 5.814V7.794ZM63.2088 13.86V3.42H71.4888C71.9208 3.42 72.3108 3.528 72.6588 3.744C73.0188 3.96 73.3008 4.242 73.5048 4.59C73.7208 4.938 73.8288 5.328 73.8288 5.76V13.86H71.8848V5.814C71.8848 5.694 71.8368 5.592 71.7408 5.508C71.6568 5.412 71.5548 5.364 71.4348 5.364H65.6028C65.4828 5.364 65.3748 5.412 65.2788 5.508C65.1948 5.592 65.1528 5.694 65.1528 5.814V13.86H63.2088ZM77.524 13.86C77.092 13.86 76.696 13.758 76.336 13.554C75.988 13.338 75.706 13.05 75.49 12.69C75.286 12.33 75.184 11.94 75.184 11.52V5.76C75.184 5.328 75.286 4.938 75.49 4.59C75.706 4.242 75.988 3.96 76.336 3.744C76.696 3.528 77.092 3.42 77.524 3.42H83.86V-1.19209e-07H85.804V13.86H77.524ZM77.596 11.916H83.428C83.548 11.916 83.65 11.874 83.734 11.79C83.818 11.694 83.86 11.586 83.86 11.466V5.814C83.86 5.694 83.818 5.592 83.734 5.508C83.65 5.412 83.548 5.364 83.428 5.364H77.596C77.476 5.364 77.368 5.412 77.272 5.508C77.188 5.592 77.146 5.694 77.146 5.814V11.466C77.146 11.586 77.188 11.694 77.272 11.79C77.368 11.874 77.476 11.916 77.596 11.916ZM95.2906 13.86C94.8706 13.86 94.4806 13.758 94.1206 13.554C93.7726 13.338 93.4906 13.056 93.2746 12.708C93.0586 12.348 92.9506 11.952 92.9506 11.52V7.848C92.9506 7.584 93.0766 7.32 93.3286 7.056C93.5806 6.78 93.9286 6.612 94.3726 6.552C93.9046 6.156 93.6706 5.676 93.6706 5.112V3.258C93.6706 2.826 93.7726 2.436 93.9766 2.088C94.1926 1.728 94.4746 1.446 94.8226 1.242C95.1826 1.026 95.5786 0.918 96.0106 0.918H103.013C103.385 0.918 103.733 1.008 104.057 1.188C104.381 1.368 104.657 1.608 104.885 1.908C105.125 2.196 105.287 2.514 105.371 2.862V4.068H103.409V3.33C103.409 3.21 103.367 3.108 103.283 3.024C103.199 2.94 103.091 2.898 102.959 2.898H96.0466C95.9266 2.898 95.8246 2.94 95.7406 3.024C95.6566 3.108 95.6146 3.21 95.6146 3.33V5.634L103.949 9.846V7.632H105.893V10.584L108.179 11.934V13.788L105.695 12.384C105.479 12.828 105.179 13.188 104.795 13.464C104.411 13.728 104.003 13.86 103.571 13.86H95.2906ZM95.3446 11.916H102.779C102.899 11.916 103.025 11.88 103.157 11.808C103.289 11.724 103.403 11.622 103.499 11.502L95.6146 7.542L95.3446 7.488C95.2246 7.488 95.1166 7.548 95.0206 7.668C94.9366 7.788 94.8946 7.98 94.8946 8.244V11.466C94.8946 11.586 94.9366 11.694 95.0206 11.79C95.1166 11.874 95.2246 11.916 95.3446 11.916ZM115.154 13.86V0.9H127.034V2.844H117.116V6.408H125.09V8.352H117.116V13.86H115.154ZM128.054 13.86V5.76C128.054 5.328 128.162 4.938 128.378 4.59C128.594 4.242 128.876 3.96 129.224 3.744C129.584 3.528 129.974 3.42 130.394 3.42H136.226V5.364H130.448C130.328 5.364 130.22 5.412 130.124 5.508C130.04 5.592 129.998 5.694 129.998 5.814V13.86H128.054ZM139.657 13.86C139.225 13.86 138.835 13.752 138.487 13.536C138.139 13.32 137.857 13.038 137.641 12.69C137.425 12.342 137.317 11.952 137.317 11.52V5.76C137.317 5.328 137.425 4.938 137.641 4.59C137.857 4.242 138.139 3.96 138.487 3.744C138.835 3.528 139.225 3.42 139.657 3.42H145.597C146.029 3.42 146.419 3.528 146.767 3.744C147.127 3.948 147.409 4.23 147.613 4.59C147.829 4.95 147.937 5.34 147.937 5.76V11.52C147.937 11.952 147.829 12.342 147.613 12.69C147.409 13.038 147.127 13.32 146.767 13.536C146.419 13.752 146.029 13.86 145.597 13.86H139.657ZM139.711 11.916H145.543C145.663 11.916 145.765 11.874 145.849 11.79C145.933 11.694 145.975 11.586 145.975 11.466V5.814C145.975 5.694 145.933 5.592 145.849 5.508C145.765 5.412 145.663 5.364 145.543 5.364H139.711C139.591 5.364 139.483 5.412 139.387 5.508C139.303 5.592 139.261 5.694 139.261 5.814V11.466C139.261 11.586 139.303 11.694 139.387 11.79C139.483 11.874 139.591 11.916 139.711 11.916ZM149.482 13.86V3.42H157.762C158.194 3.42 158.584 3.528 158.932 3.744C159.292 3.96 159.574 4.242 159.778 4.59C159.994 4.938 160.102 5.328 160.102 5.76V13.86H158.158V5.814C158.158 5.694 158.11 5.592 158.014 5.508C157.93 5.412 157.828 5.364 157.708 5.364H151.876C151.756 5.364 151.648 5.412 151.552 5.508C151.468 5.592 151.426 5.694 151.426 5.814V13.86H149.482ZM164.337 13.86C163.905 13.86 163.509 13.752 163.149 13.536C162.801 13.32 162.519 13.038 162.303 12.69C162.099 12.342 161.997 11.952 161.997 11.52V0.126H163.941V3.42H168.225V5.364H163.941V11.466C163.941 11.586 163.983 11.694 164.067 11.79C164.163 11.874 164.271 11.916 164.391 11.916H168.225V13.86H164.337ZM171.948 13.86C171.516 13.86 171.126 13.752 170.778 13.536C170.43 13.32 170.148 13.038 169.932 12.69C169.716 12.342 169.608 11.952 169.608 11.52V5.76C169.608 5.328 169.716 4.938 169.932 4.59C170.148 4.242 170.43 3.96 170.778 3.744C171.126 3.528 171.516 3.42 171.948 3.42H177.888C178.32 3.42 178.71 3.528 179.058 3.744C179.418 3.948 179.7 4.23 179.904 4.59C180.12 4.95 180.228 5.34 180.228 5.76V9.612H171.552V11.466C171.552 11.586 171.594 11.694 171.678 11.79C171.774 11.874 171.882 11.916 172.002 11.916H180.228V13.86H171.948ZM171.552 7.794H178.266V5.814C178.266 5.694 178.224 5.592 178.14 5.508C178.056 5.412 177.954 5.364 177.834 5.364H172.002C171.882 5.364 171.774 5.412 171.678 5.508C171.594 5.592 171.552 5.694 171.552 5.814V7.794ZM182.125 13.86V3.42H190.405C190.837 3.42 191.227 3.528 191.575 3.744C191.935 3.96 192.217 4.242 192.421 4.59C192.637 4.938 192.745 5.328 192.745 5.76V13.86H190.801V5.814C190.801 5.694 190.753 5.592 190.657 5.508C190.573 5.412 190.471 5.364 190.351 5.364H184.519C184.399 5.364 184.291 5.412 184.195 5.508C184.111 5.592 184.069 5.694 184.069 5.814V13.86H182.125ZM196.44 13.86C196.008 13.86 195.612 13.758 195.252 13.554C194.904 13.338 194.622 13.05 194.406 12.69C194.202 12.33 194.1 11.94 194.1 11.52V5.76C194.1 5.328 194.202 4.938 194.406 4.59C194.622 4.242 194.904 3.96 195.252 3.744C195.612 3.528 196.008 3.42 196.44 3.42H202.776V-1.19209e-07H204.72V13.86H196.44ZM196.512 11.916H202.344C202.464 11.916 202.566 11.874 202.65 11.79C202.734 11.694 202.776 11.586 202.776 11.466V5.814C202.776 5.694 202.734 5.592 202.65 5.508C202.566 5.412 202.464 5.364 202.344 5.364H196.512C196.392 5.364 196.284 5.412 196.188 5.508C196.104 5.592 196.062 5.694 196.062 5.814V11.466C196.062 11.586 196.104 11.694 196.188 11.79C196.284 11.874 196.392 11.916 196.512 11.916Z" fill="white"/>
</svg>
