<svg width="190" height="18" viewBox="0 0 190 18" fill="none" xmlns="http://www.w3.org/2000/svg">
<path d="M2.34 13.86C1.908 13.86 1.512 13.758 1.152 13.554C0.804004 13.338 0.522005 13.056 0.306005 12.708C0.102004 12.348 4.42564e-06 11.952 4.42564e-06 11.52V3.24002C4.42564e-06 2.80802 0.102004 2.41802 0.306005 2.07002C0.522005 1.71001 0.804004 1.42801 1.152 1.22402C1.512 1.00802 1.908 0.900015 2.34 0.900015H12.924V2.84402H2.61C2.418 2.84402 2.256 2.91002 2.124 3.04202C2.004 3.16202 1.944 3.31802 1.944 3.51002V11.25C1.944 11.442 2.004 11.604 2.124 11.736C2.256 11.856 2.418 11.916 2.61 11.916H12.924V13.86H2.34ZM17.0868 13.86C16.6548 13.86 16.2588 13.752 15.8988 13.536C15.5508 13.32 15.2688 13.038 15.0528 12.69C14.8488 12.342 14.7468 11.952 14.7468 11.52V3.42002H16.6908V11.466C16.6908 11.586 16.7328 11.694 16.8168 11.79C16.9128 11.874 17.0208 11.916 17.1408 11.916H22.9728C23.0928 11.916 23.1948 11.874 23.2788 11.79C23.3748 11.694 23.4228 11.586 23.4228 11.466V3.42002H25.3668V11.52C25.3668 11.952 25.2588 12.342 25.0428 12.69C24.8388 13.038 24.5568 13.32 24.1968 13.536C23.8488 13.752 23.4588 13.86 23.0268 13.86H17.0868ZM27.2444 13.86V5.76002C27.2444 5.32802 27.3524 4.93802 27.5684 4.59002C27.7844 4.24202 28.0664 3.96002 28.4144 3.74402C28.7744 3.52802 29.1644 3.42002 29.5844 3.42002H35.4164V5.36402H29.6384C29.5184 5.36402 29.4104 5.41202 29.3144 5.50802C29.2304 5.59202 29.1884 5.69402 29.1884 5.81402V13.86H27.2444ZM36.5432 13.86V5.76002C36.5432 5.32802 36.6512 4.93802 36.8672 4.59002C37.0832 4.24202 37.3652 3.96002 37.7132 3.74402C38.0732 3.52802 38.4632 3.42002 38.8832 3.42002H44.7152V5.36402H38.9372C38.8172 5.36402 38.7092 5.41202 38.6132 5.50802C38.5292 5.59202 38.4872 5.69402 38.4872 5.81402V13.86H36.5432ZM48.2344 13.86C47.8024 13.86 47.4124 13.752 47.0644 13.536C46.7164 13.32 46.4344 13.038 46.2184 12.69C46.0024 12.342 45.8944 11.952 45.8944 11.52V5.76002C45.8944 5.32802 46.0024 4.93802 46.2184 4.59002C46.4344 4.24202 46.7164 3.96002 47.0644 3.74402C47.4124 3.52802 47.8024 3.42002 48.2344 3.42002H54.1744C54.6064 3.42002 54.9964 3.52802 55.3444 3.74402C55.7044 3.94802 55.9864 4.23002 56.1904 4.59002C56.4064 4.95002 56.5144 5.34002 56.5144 5.76002V9.61202H47.8384V11.466C47.8384 11.586 47.8804 11.694 47.9644 11.79C48.0604 11.874 48.1684 11.916 48.2884 11.916H56.5144V13.86H48.2344ZM47.8384 7.79402H54.5524V5.81402C54.5524 5.69402 54.5104 5.59202 54.4264 5.50802C54.3424 5.41202 54.2404 5.36402 54.1204 5.36402H48.2884C48.1684 5.36402 48.0604 5.41202 47.9644 5.50802C47.8804 5.59202 47.8384 5.69402 47.8384 5.81402V7.79402ZM58.4113 13.86V3.42002H66.6913C67.1233 3.42002 67.5133 3.52802 67.8613 3.74402C68.2213 3.96002 68.5033 4.24202 68.7073 4.59002C68.9233 4.93802 69.0313 5.32802 69.0313 5.76002V13.86H67.0873V5.81402C67.0873 5.69402 67.0393 5.59202 66.9433 5.50802C66.8593 5.41202 66.7573 5.36402 66.6373 5.36402H60.8053C60.6853 5.36402 60.5773 5.41202 60.4813 5.50802C60.3973 5.59202 60.3553 5.69402 60.3553 5.81402V13.86H58.4113ZM73.2665 13.86C72.8345 13.86 72.4385 13.752 72.0785 13.536C71.7305 13.32 71.4485 13.038 71.2325 12.69C71.0285 12.342 70.9265 11.952 70.9265 11.52V0.126016H72.8705V3.42002H77.1545V5.36402H72.8705V11.466C72.8705 11.586 72.9125 11.694 72.9965 11.79C73.0925 11.874 73.2005 11.916 73.3205 11.916H77.1545V13.86H73.2665ZM80.895 13.86C80.463 13.86 80.073 13.752 79.725 13.536C79.377 13.32 79.095 13.038 78.879 12.69C78.663 12.342 78.555 11.952 78.555 11.52V1.51396e-05H80.499V11.466C80.499 11.586 80.541 11.694 80.625 11.79C80.721 11.874 80.829 11.916 80.949 11.916H82.839V13.86H80.895ZM86.0117 17.856V15.894H92.4017C92.5217 15.894 92.6237 15.846 92.7077 15.75C92.8037 15.666 92.8517 15.564 92.8517 15.444V13.86H86.5157C86.0957 13.86 85.7057 13.758 85.3457 13.554C84.9857 13.338 84.6977 13.05 84.4817 12.69C84.2777 12.33 84.1757 11.94 84.1757 11.52V3.45602H86.1197V11.466C86.1197 11.586 86.1617 11.694 86.2457 11.79C86.3417 11.874 86.4497 11.916 86.5697 11.916H92.4017C92.5217 11.916 92.6237 11.874 92.7077 11.79C92.8037 11.694 92.8517 11.586 92.8517 11.466V3.45602H94.7957V15.516C94.7957 15.948 94.6877 16.338 94.4717 16.686C94.2677 17.046 93.9857 17.328 93.6257 17.532C93.2777 17.748 92.8877 17.856 92.4557 17.856H86.0117ZM101.989 13.86V0.882016H103.933V11.916H114.949V13.86H101.989ZM118.248 13.86C117.816 13.86 117.426 13.752 117.078 13.536C116.73 13.32 116.448 13.038 116.232 12.69C116.016 12.342 115.908 11.952 115.908 11.52V5.76002C115.908 5.32802 116.016 4.93802 116.232 4.59002C116.448 4.24202 116.73 3.96002 117.078 3.74402C117.426 3.52802 117.816 3.42002 118.248 3.42002H124.188C124.62 3.42002 125.01 3.52802 125.358 3.74402C125.718 3.94802 126 4.23002 126.204 4.59002C126.42 4.95002 126.528 5.34002 126.528 5.76002V9.61202H117.852V11.466C117.852 11.586 117.894 11.694 117.978 11.79C118.074 11.874 118.182 11.916 118.302 11.916H126.528V13.86H118.248ZM117.852 7.79402H124.566V5.81402C124.566 5.69402 124.524 5.59202 124.44 5.50802C124.356 5.41202 124.254 5.36402 124.134 5.36402H118.302C118.182 5.36402 118.074 5.41202 117.978 5.50802C117.894 5.59202 117.852 5.69402 117.852 5.81402V7.79402ZM130.729 13.86C130.297 13.86 129.901 13.752 129.541 13.536C129.193 13.32 128.911 13.038 128.695 12.69C128.491 12.342 128.389 11.952 128.389 11.52V7.66802H137.047V5.81402C137.047 5.69402 137.005 5.59202 136.921 5.50802C136.837 5.41202 136.735 5.36402 136.615 5.36402H128.389V3.42002H136.669C137.101 3.42002 137.491 3.52802 137.839 3.74402C138.199 3.94802 138.481 4.23002 138.685 4.59002C138.901 4.95002 139.009 5.34002 139.009 5.76002V13.86H130.729ZM130.783 11.916H137.047V9.48602H130.333V11.466C130.333 11.586 130.375 11.694 130.459 11.79C130.555 11.874 130.663 11.916 130.783 11.916ZM140.658 13.86V5.76002C140.658 5.32802 140.766 4.93802 140.982 4.59002C141.198 4.24202 141.48 3.96002 141.828 3.74402C142.188 3.52802 142.578 3.42002 142.998 3.42002H148.83V5.36402H143.052C142.932 5.36402 142.824 5.41202 142.728 5.50802C142.644 5.59202 142.602 5.69402 142.602 5.81402V13.86H140.658ZM150.116 13.86V3.42002H158.396C158.828 3.42002 159.218 3.52802 159.566 3.74402C159.926 3.96002 160.208 4.24202 160.412 4.59002C160.628 4.93802 160.736 5.32802 160.736 5.76002V13.86H158.792V5.81402C158.792 5.69402 158.744 5.59202 158.648 5.50802C158.564 5.41202 158.462 5.36402 158.342 5.36402H152.51C152.39 5.36402 152.282 5.41202 152.186 5.50802C152.102 5.59202 152.06 5.69402 152.06 5.81402V13.86H150.116ZM162.614 13.86V3.42002H164.558V13.86H162.614ZM162.614 1.94401V1.51396e-05H164.558V1.94401H162.614ZM166.64 13.86V3.42002H174.92C175.352 3.42002 175.742 3.52802 176.09 3.74402C176.45 3.96002 176.732 4.24202 176.936 4.59002C177.152 4.93802 177.26 5.32802 177.26 5.76002V13.86H175.316V5.81402C175.316 5.69402 175.268 5.59202 175.172 5.50802C175.088 5.41202 174.986 5.36402 174.866 5.36402H169.034C168.914 5.36402 168.806 5.41202 168.71 5.50802C168.626 5.59202 168.584 5.69402 168.584 5.81402V13.86H166.64ZM180.705 17.982V16.02H187.095C187.215 16.02 187.317 15.972 187.401 15.876C187.497 15.792 187.545 15.69 187.545 15.57V13.86H181.209C180.789 13.86 180.399 13.758 180.039 13.554C179.679 13.338 179.391 13.05 179.175 12.69C178.971 12.33 178.869 11.94 178.869 11.52V5.76002C178.869 5.32802 178.977 4.93802 179.193 4.59002C179.409 4.24202 179.691 3.96002 180.039 3.74402C180.399 3.52802 180.789 3.42002 181.209 3.42002H187.149C187.581 3.42002 187.971 3.52802 188.319 3.74402C188.679 3.96002 188.961 4.24202 189.165 4.59002C189.381 4.93802 189.489 5.32802 189.489 5.76002V15.642C189.489 16.074 189.381 16.464 189.165 16.812C188.961 17.172 188.679 17.454 188.319 17.658C187.971 17.874 187.581 17.982 187.149 17.982H180.705ZM181.263 11.916H187.095C187.215 11.916 187.317 11.874 187.401 11.79C187.497 11.694 187.545 11.586 187.545 11.466V5.81402C187.545 5.69402 187.497 5.59202 187.401 5.50802C187.317 5.41202 187.215 5.36402 187.095 5.36402H181.263C181.143 5.36402 181.035 5.41202 180.939 5.50802C180.855 5.59202 180.813 5.69402 180.813 5.81402V11.466C180.813 11.586 180.855 11.694 180.939 11.79C181.035 11.874 181.143 11.916 181.263 11.916Z" fill="black"/>
</svg>
