<svg width="263" height="14" viewBox="0 0 263 14" fill="none" xmlns="http://www.w3.org/2000/svg">
<path d="M-6.31064e-06 13.86V0.900015H10.602C11.034 0.900015 11.43 1.00802 11.79 1.22402C12.15 1.42801 12.432 1.71001 12.636 2.07002C12.852 2.41802 12.96 2.80802 12.96 3.24002V11.52C12.96 11.952 12.852 12.348 12.636 12.708C12.432 13.056 12.15 13.338 11.79 13.554C11.43 13.758 11.034 13.86 10.602 13.86H-6.31064e-06ZM2.37599 11.916H10.566C10.686 11.916 10.788 11.874 10.872 11.79C10.956 11.694 10.998 11.586 10.998 11.466V3.29402C10.998 3.17402 10.956 3.07202 10.872 2.98802C10.788 2.89202 10.686 2.84402 10.566 2.84402H2.37599C2.25599 2.84402 2.15399 2.89202 2.06999 2.98802C1.98599 3.07202 1.94399 3.17402 1.94399 3.29402V11.466C1.94399 11.586 1.98599 11.694 2.06999 11.79C2.15399 11.874 2.25599 11.916 2.37599 11.916ZM17.2437 13.86C16.8117 13.86 16.4157 13.752 16.0557 13.536C15.7077 13.32 15.4257 13.038 15.2097 12.69C15.0057 12.342 14.9037 11.952 14.9037 11.52V7.66802H23.5617V5.81402C23.5617 5.69402 23.5197 5.59202 23.4357 5.50802C23.3517 5.41202 23.2497 5.36402 23.1297 5.36402H14.9037V3.42002H23.1837C23.6157 3.42002 24.0057 3.52802 24.3537 3.74402C24.7137 3.94802 24.9957 4.23002 25.1997 4.59002C25.4157 4.95002 25.5237 5.34002 25.5237 5.76002V13.86H17.2437ZM17.2977 11.916H23.5617V9.48602H16.8477V11.466C16.8477 11.586 16.8897 11.694 16.9737 11.79C17.0697 11.874 17.1777 11.916 17.2977 11.916ZM29.7598 13.86C29.3278 13.86 28.9318 13.752 28.5718 13.536C28.2238 13.32 27.9418 13.038 27.7258 12.69C27.5218 12.342 27.4198 11.952 27.4198 11.52V0.126016H29.3638V3.42002H33.6478V5.36402H29.3638V11.466C29.3638 11.586 29.4058 11.694 29.4898 11.79C29.5858 11.874 29.6938 11.916 29.8138 11.916H33.6478V13.86H29.7598ZM37.5816 13.86C37.1496 13.86 36.7536 13.752 36.3936 13.536C36.0456 13.32 35.7636 13.038 35.5476 12.69C35.3436 12.342 35.2416 11.952 35.2416 11.52V7.66802H43.8996V5.81402C43.8996 5.69402 43.8576 5.59202 43.7736 5.50802C43.6896 5.41202 43.5876 5.36402 43.4676 5.36402H35.2416V3.42002H43.5216C43.9536 3.42002 44.3436 3.52802 44.6916 3.74402C45.0516 3.94802 45.3336 4.23002 45.5376 4.59002C45.7536 4.95002 45.8616 5.34002 45.8616 5.76002V13.86H37.5816ZM37.6356 11.916H43.8996V9.48602H37.1856V11.466C37.1856 11.586 37.2276 11.694 37.3116 11.79C37.4076 11.874 37.5156 11.916 37.6356 11.916ZM47.301 13.86V1.51396e-05H49.245V3.42002H55.581C56.013 3.42002 56.403 3.52802 56.751 3.74402C57.111 3.96002 57.393 4.24202 57.597 4.59002C57.813 4.93802 57.921 5.32802 57.921 5.76002V11.52C57.921 11.952 57.813 12.342 57.597 12.69C57.393 13.038 57.111 13.32 56.751 13.536C56.403 13.752 56.013 13.86 55.581 13.86H47.301ZM49.695 11.916H55.527C55.647 11.916 55.749 11.874 55.833 11.79C55.929 11.694 55.977 11.586 55.977 11.466V5.81402C55.977 5.69402 55.929 5.59202 55.833 5.50802C55.749 5.41202 55.647 5.36402 55.527 5.36402H49.695C49.575 5.36402 49.467 5.41202 49.371 5.50802C49.287 5.59202 49.245 5.69402 49.245 5.81402V11.466C49.245 11.586 49.287 11.694 49.371 11.79C49.467 11.874 49.575 11.916 49.695 11.916ZM61.5406 13.86C61.1086 13.86 60.7126 13.752 60.3526 13.536C60.0046 13.32 59.7226 13.038 59.5066 12.69C59.3026 12.342 59.2006 11.952 59.2006 11.52V7.66802H67.8586V5.81402C67.8586 5.69402 67.8166 5.59202 67.7326 5.50802C67.6486 5.41202 67.5466 5.36402 67.4266 5.36402H59.2006V3.42002H67.4806C67.9126 3.42002 68.3026 3.52802 68.6506 3.74402C69.0106 3.94802 69.2926 4.23002 69.4966 4.59002C69.7126 4.95002 69.8206 5.34002 69.8206 5.76002V13.86H61.5406ZM61.5946 11.916H67.8586V9.48602H61.1446V11.466C61.1446 11.586 61.1866 11.694 61.2706 11.79C61.3666 11.874 61.4746 11.916 61.5946 11.916ZM73.5975 13.86C73.1655 13.86 72.7755 13.752 72.4275 13.536C72.0795 13.32 71.7975 13.038 71.5815 12.69C71.3655 12.342 71.2575 11.952 71.2575 11.52V11.25H73.2015V11.466C73.2015 11.586 73.2435 11.694 73.3275 11.79C73.4235 11.874 73.5315 11.916 73.6515 11.916H79.4835C79.6035 11.916 79.7055 11.874 79.7895 11.79C79.8735 11.694 79.9155 11.586 79.9155 11.466V10.062C79.9155 9.94202 79.8735 9.84002 79.7895 9.75602C79.7055 9.66002 79.6035 9.61202 79.4835 9.61202H73.5975C73.1655 9.61202 72.7755 9.51002 72.4275 9.30602C72.0795 9.09002 71.7975 8.80802 71.5815 8.46002C71.3655 8.10002 71.2575 7.70402 71.2575 7.27202V5.76002C71.2575 5.32802 71.3655 4.93802 71.5815 4.59002C71.7975 4.24202 72.0795 3.96002 72.4275 3.74402C72.7755 3.52802 73.1655 3.42002 73.5975 3.42002H79.5375C79.9695 3.42002 80.3595 3.52802 80.7075 3.74402C81.0675 3.96002 81.3495 4.24202 81.5535 4.59002C81.7695 4.93802 81.8775 5.32802 81.8775 5.76002V6.03002H79.9155V5.81402C79.9155 5.69402 79.8735 5.59202 79.7895 5.50802C79.7055 5.41202 79.6035 5.36402 79.4835 5.36402H73.6515C73.5315 5.36402 73.4235 5.41202 73.3275 5.50802C73.2435 5.59202 73.2015 5.69402 73.2015 5.81402V7.21802C73.2015 7.33802 73.2435 7.44602 73.3275 7.54202C73.4235 7.62602 73.5315 7.66802 73.6515 7.66802H79.5375C79.9695 7.66802 80.3595 7.77602 80.7075 7.99202C81.0675 8.19602 81.3495 8.47802 81.5535 8.83802C81.7695 9.18602 81.8775 9.57602 81.8775 10.008V11.52C81.8775 11.952 81.7695 12.342 81.5535 12.69C81.3495 13.038 81.0675 13.32 80.7075 13.536C80.3595 13.752 79.9695 13.86 79.5375 13.86H73.5975ZM85.6925 13.86C85.2605 13.86 84.8705 13.752 84.5225 13.536C84.1745 13.32 83.8925 13.038 83.6765 12.69C83.4605 12.342 83.3525 11.952 83.3525 11.52V5.76002C83.3525 5.32802 83.4605 4.93802 83.6765 4.59002C83.8925 4.24202 84.1745 3.96002 84.5225 3.74402C84.8705 3.52802 85.2605 3.42002 85.6925 3.42002H91.6325C92.0645 3.42002 92.4545 3.52802 92.8025 3.74402C93.1625 3.94802 93.4445 4.23002 93.6485 4.59002C93.8645 4.95002 93.9725 5.34002 93.9725 5.76002V9.61202H85.2965V11.466C85.2965 11.586 85.3385 11.694 85.4225 11.79C85.5185 11.874 85.6265 11.916 85.7465 11.916H93.9725V13.86H85.6925ZM85.2965 7.79402H92.0105V5.81402C92.0105 5.69402 91.9685 5.59202 91.8845 5.50802C91.8005 5.41202 91.6985 5.36402 91.5785 5.36402H85.7465C85.6265 5.36402 85.5185 5.41202 85.4225 5.50802C85.3385 5.59202 85.2965 5.69402 85.2965 5.81402V7.79402ZM103.412 13.86C102.992 13.86 102.602 13.758 102.242 13.554C101.894 13.338 101.612 13.056 101.396 12.708C101.18 12.348 101.072 11.952 101.072 11.52V7.84802C101.072 7.58402 101.198 7.32002 101.45 7.05602C101.702 6.78002 102.05 6.61202 102.494 6.55202C102.026 6.15602 101.792 5.67602 101.792 5.11202V3.25802C101.792 2.82602 101.894 2.43602 102.098 2.08802C102.314 1.72802 102.596 1.44602 102.944 1.24202C103.304 1.02602 103.7 0.918015 104.132 0.918015H111.134C111.506 0.918015 111.854 1.00802 112.178 1.18801C112.502 1.36802 112.778 1.60802 113.006 1.90802C113.246 2.19602 113.408 2.51402 113.492 2.86202V4.06802H111.53V3.33002C111.53 3.21002 111.488 3.10802 111.404 3.02401C111.32 2.94002 111.212 2.89802 111.08 2.89802H104.168C104.048 2.89802 103.946 2.94002 103.862 3.02401C103.778 3.10802 103.736 3.21002 103.736 3.33002V5.63402L112.07 9.84602V7.63202H114.014V10.584L116.3 11.934V13.788L113.816 12.384C113.6 12.828 113.3 13.188 112.916 13.464C112.532 13.728 112.124 13.86 111.692 13.86H103.412ZM103.466 11.916H110.9C111.02 11.916 111.146 11.88 111.278 11.808C111.41 11.724 111.524 11.622 111.62 11.502L103.736 7.54202L103.466 7.48802C103.346 7.48802 103.238 7.54802 103.142 7.66802C103.058 7.78802 103.016 7.98002 103.016 8.24402V11.466C103.016 11.586 103.058 11.694 103.142 11.79C103.238 11.874 103.346 11.916 103.466 11.916ZM123.185 13.86V0.900015H125.129V13.86H123.185ZM127.176 13.86V3.42002H135.456C135.888 3.42002 136.278 3.52802 136.626 3.74402C136.986 3.96002 137.268 4.24202 137.472 4.59002C137.688 4.93802 137.796 5.32802 137.796 5.76002V13.86H135.852V5.81402C135.852 5.69402 135.804 5.59202 135.708 5.50802C135.624 5.41202 135.522 5.36402 135.402 5.36402H129.57C129.45 5.36402 129.342 5.41202 129.246 5.50802C129.162 5.59202 129.12 5.69402 129.12 5.81402V13.86H127.176ZM139.691 13.86V2.34002C139.691 1.90801 139.793 1.51801 139.997 1.17002C140.213 0.810015 140.495 0.528015 140.843 0.324015C141.203 0.108015 141.599 1.51396e-05 142.031 1.51396e-05H145.919V1.94401H142.085C141.965 1.94401 141.857 1.99201 141.761 2.08802C141.677 2.17202 141.635 2.27402 141.635 2.39402V3.42002H145.919V5.36402H141.635V13.86H139.691ZM147.214 13.86V5.76002C147.214 5.32802 147.322 4.93802 147.538 4.59002C147.754 4.24202 148.036 3.96002 148.384 3.74402C148.744 3.52802 149.134 3.42002 149.554 3.42002H155.386V5.36402H149.608C149.488 5.36402 149.38 5.41202 149.284 5.50802C149.2 5.59202 149.158 5.69402 149.158 5.81402V13.86H147.214ZM158.976 13.86C158.544 13.86 158.148 13.752 157.788 13.536C157.44 13.32 157.158 13.038 156.942 12.69C156.738 12.342 156.636 11.952 156.636 11.52V7.66802H165.294V5.81402C165.294 5.69402 165.252 5.59202 165.168 5.50802C165.084 5.41202 164.982 5.36402 164.862 5.36402H156.636V3.42002H164.916C165.348 3.42002 165.738 3.52802 166.086 3.74402C166.446 3.94802 166.728 4.23002 166.932 4.59002C167.148 4.95002 167.256 5.34002 167.256 5.76002V13.86H158.976ZM159.03 11.916H165.294V9.48602H158.58V11.466C158.58 11.586 158.622 11.694 158.706 11.79C158.802 11.874 158.91 11.916 159.03 11.916ZM171.033 13.86C170.601 13.86 170.211 13.752 169.863 13.536C169.515 13.32 169.233 13.038 169.017 12.69C168.801 12.342 168.693 11.952 168.693 11.52V11.25H170.637V11.466C170.637 11.586 170.679 11.694 170.763 11.79C170.859 11.874 170.967 11.916 171.087 11.916H176.919C177.039 11.916 177.141 11.874 177.225 11.79C177.309 11.694 177.351 11.586 177.351 11.466V10.062C177.351 9.94202 177.309 9.84002 177.225 9.75602C177.141 9.66002 177.039 9.61202 176.919 9.61202H171.033C170.601 9.61202 170.211 9.51002 169.863 9.30602C169.515 9.09002 169.233 8.80802 169.017 8.46002C168.801 8.10002 168.693 7.70402 168.693 7.27202V5.76002C168.693 5.32802 168.801 4.93802 169.017 4.59002C169.233 4.24202 169.515 3.96002 169.863 3.74402C170.211 3.52802 170.601 3.42002 171.033 3.42002H176.973C177.405 3.42002 177.795 3.52802 178.143 3.74402C178.503 3.96002 178.785 4.24202 178.989 4.59002C179.205 4.93802 179.313 5.32802 179.313 5.76002V6.03002H177.351V5.81402C177.351 5.69402 177.309 5.59202 177.225 5.50802C177.141 5.41202 177.039 5.36402 176.919 5.36402H171.087C170.967 5.36402 170.859 5.41202 170.763 5.50802C170.679 5.59202 170.637 5.69402 170.637 5.81402V7.21802C170.637 7.33802 170.679 7.44602 170.763 7.54202C170.859 7.62602 170.967 7.66802 171.087 7.66802H176.973C177.405 7.66802 177.795 7.77602 178.143 7.99202C178.503 8.19602 178.785 8.47802 178.989 8.83802C179.205 9.18602 179.313 9.57602 179.313 10.008V11.52C179.313 11.952 179.205 12.342 178.989 12.69C178.785 13.038 178.503 13.32 178.143 13.536C177.795 13.752 177.405 13.86 176.973 13.86H171.033ZM183.463 13.86C183.031 13.86 182.635 13.752 182.275 13.536C181.927 13.32 181.645 13.038 181.429 12.69C181.225 12.342 181.123 11.952 181.123 11.52V0.126016H183.067V3.42002H187.351V5.36402H183.067V11.466C183.067 11.586 183.109 11.694 183.193 11.79C183.289 11.874 183.397 11.916 183.517 11.916H187.351V13.86H183.463ZM188.822 13.86V5.76002C188.822 5.32802 188.93 4.93802 189.146 4.59002C189.362 4.24202 189.644 3.96002 189.992 3.74402C190.352 3.52802 190.742 3.42002 191.162 3.42002H196.994V5.36402H191.216C191.096 5.36402 190.988 5.41202 190.892 5.50802C190.808 5.59202 190.766 5.69402 190.766 5.81402V13.86H188.822ZM200.602 13.86C200.17 13.86 199.774 13.752 199.414 13.536C199.066 13.32 198.784 13.038 198.568 12.69C198.364 12.342 198.262 11.952 198.262 11.52V3.42002H200.206V11.466C200.206 11.586 200.248 11.694 200.332 11.79C200.428 11.874 200.536 11.916 200.656 11.916H206.488C206.608 11.916 206.71 11.874 206.794 11.79C206.89 11.694 206.938 11.586 206.938 11.466V3.42002H208.882V11.52C208.882 11.952 208.774 12.342 208.558 12.69C208.354 13.038 208.072 13.32 207.712 13.536C207.364 13.752 206.974 13.86 206.542 13.86H200.602ZM212.694 13.86C212.262 13.86 211.872 13.752 211.524 13.536C211.176 13.32 210.894 13.038 210.678 12.69C210.462 12.342 210.354 11.952 210.354 11.52V5.76002C210.354 5.32802 210.462 4.93802 210.678 4.59002C210.894 4.24202 211.176 3.96002 211.524 3.74402C211.872 3.52802 212.262 3.42002 212.694 3.42002H220.938V5.36402H212.748C212.628 5.36402 212.52 5.41202 212.424 5.50802C212.34 5.59202 212.298 5.69402 212.298 5.81402V11.466C212.298 11.586 212.34 11.694 212.424 11.79C212.52 11.874 212.628 11.916 212.748 11.916H220.974V13.86H212.694ZM224.771 13.86C224.339 13.86 223.943 13.752 223.583 13.536C223.235 13.32 222.953 13.038 222.737 12.69C222.533 12.342 222.431 11.952 222.431 11.52V0.126016H224.375V3.42002H228.659V5.36402H224.375V11.466C224.375 11.586 224.417 11.694 224.501 11.79C224.597 11.874 224.705 11.916 224.825 11.916H228.659V13.86H224.771ZM232.418 13.86C231.986 13.86 231.59 13.752 231.23 13.536C230.882 13.32 230.6 13.038 230.384 12.69C230.18 12.342 230.078 11.952 230.078 11.52V3.42002H232.022V11.466C232.022 11.586 232.064 11.694 232.148 11.79C232.244 11.874 232.352 11.916 232.472 11.916H238.304C238.424 11.916 238.526 11.874 238.61 11.79C238.706 11.694 238.754 11.586 238.754 11.466V3.42002H240.698V11.52C240.698 11.952 240.59 12.342 240.374 12.69C240.17 13.038 239.888 13.32 239.528 13.536C239.18 13.752 238.79 13.86 238.358 13.86H232.418ZM242.576 13.86V5.76002C242.576 5.32802 242.684 4.93802 242.9 4.59002C243.116 4.24202 243.398 3.96002 243.746 3.74402C244.106 3.52802 244.496 3.42002 244.916 3.42002H250.748V5.36402H244.97C244.85 5.36402 244.742 5.41202 244.646 5.50802C244.562 5.59202 244.52 5.69402 244.52 5.81402V13.86H242.576ZM254.267 13.86C253.835 13.86 253.445 13.752 253.097 13.536C252.749 13.32 252.467 13.038 252.251 12.69C252.035 12.342 251.927 11.952 251.927 11.52V5.76002C251.927 5.32802 252.035 4.93802 252.251 4.59002C252.467 4.24202 252.749 3.96002 253.097 3.74402C253.445 3.52802 253.835 3.42002 254.267 3.42002H260.207C260.639 3.42002 261.029 3.52802 261.377 3.74402C261.737 3.94802 262.019 4.23002 262.223 4.59002C262.439 4.95002 262.547 5.34002 262.547 5.76002V9.61202H253.871V11.466C253.871 11.586 253.913 11.694 253.997 11.79C254.093 11.874 254.201 11.916 254.321 11.916H262.547V13.86H254.267ZM253.871 7.79402H260.585V5.81402C260.585 5.69402 260.543 5.59202 260.459 5.50802C260.375 5.41202 260.273 5.36402 260.153 5.36402H254.321C254.201 5.36402 254.093 5.41202 253.997 5.50802C253.913 5.59202 253.871 5.69402 253.871 5.81402V7.79402Z" fill="black"/>
</svg>
