<svg width="111" height="18" viewBox="0 0 111 18" fill="none" xmlns="http://www.w3.org/2000/svg">
<path d="M-9.08971e-07 12.978V-3.45707e-06H1.944V11.034H12.96V12.978H-9.08971e-07ZM16.2773 12.978C15.8453 12.978 15.4493 12.87 15.0893 12.654C14.7413 12.438 14.4593 12.156 14.2433 11.808C14.0393 11.46 13.9373 11.07 13.9373 10.638V6.786H22.5953V4.932C22.5953 4.812 22.5533 4.71 22.4693 4.626C22.3853 4.53 22.2833 4.482 22.1633 4.482H13.9373V2.538H22.2173C22.6493 2.538 23.0393 2.646 23.3873 2.862C23.7473 3.066 24.0293 3.348 24.2333 3.708C24.4493 4.068 24.5573 4.458 24.5573 4.878V12.978H16.2773ZM16.3313 11.034H22.5953V8.604H15.8813V10.584C15.8813 10.704 15.9233 10.812 16.0073 10.908C16.1033 10.992 16.2113 11.034 16.3313 11.034ZM26.2429 12.978V2.538H34.5229C34.9549 2.538 35.3449 2.646 35.6929 2.862C36.0529 3.078 36.3349 3.36 36.5389 3.708C36.7549 4.056 36.8629 4.446 36.8629 4.878V12.978H34.9189V4.932C34.9189 4.812 34.8709 4.71 34.7749 4.626C34.6909 4.53 34.5889 4.482 34.4689 4.482H28.6369C28.5169 4.482 28.4089 4.53 28.3129 4.626C28.2289 4.71 28.1869 4.812 28.1869 4.932V12.978H26.2429ZM40.3078 17.1V15.138H46.6978C46.8178 15.138 46.9198 15.09 47.0038 14.994C47.0998 14.91 47.1478 14.808 47.1478 14.688V12.978H40.8118C40.3918 12.978 40.0018 12.876 39.6418 12.672C39.2818 12.456 38.9938 12.168 38.7778 11.808C38.5738 11.448 38.4718 11.058 38.4718 10.638V4.878C38.4718 4.446 38.5798 4.056 38.7958 3.708C39.0118 3.36 39.2938 3.078 39.6418 2.862C40.0018 2.646 40.3918 2.538 40.8118 2.538H46.7518C47.1838 2.538 47.5738 2.646 47.9218 2.862C48.2818 3.078 48.5638 3.36 48.7678 3.708C48.9838 4.056 49.0918 4.446 49.0918 4.878V14.76C49.0918 15.192 48.9838 15.582 48.7678 15.93C48.5638 16.29 48.2818 16.572 47.9218 16.776C47.5738 16.992 47.1838 17.1 46.7518 17.1H40.3078ZM40.8658 11.034H46.6978C46.8178 11.034 46.9198 10.992 47.0038 10.908C47.0998 10.812 47.1478 10.704 47.1478 10.584V4.932C47.1478 4.812 47.0998 4.71 47.0038 4.626C46.9198 4.53 46.8178 4.482 46.6978 4.482H40.8658C40.7458 4.482 40.6378 4.53 40.5418 4.626C40.4578 4.71 40.4158 4.812 40.4158 4.932V10.584C40.4158 10.704 40.4578 10.812 40.5418 10.908C40.6378 10.992 40.7458 11.034 40.8658 11.034ZM52.8578 12.978C52.4258 12.978 52.0298 12.87 51.6698 12.654C51.3218 12.438 51.0398 12.156 50.8238 11.808C50.6198 11.46 50.5178 11.07 50.5178 10.638V2.538H52.4618V10.584C52.4618 10.704 52.5038 10.812 52.5878 10.908C52.6838 10.992 52.7918 11.034 52.9118 11.034H58.7438C58.8638 11.034 58.9658 10.992 59.0498 10.908C59.1458 10.812 59.1938 10.704 59.1938 10.584V2.538H61.1378V10.638C61.1378 11.07 61.0298 11.46 60.8138 11.808C60.6098 12.156 60.3278 12.438 59.9678 12.654C59.6198 12.87 59.2298 12.978 58.7978 12.978H52.8578ZM65.3555 12.978C64.9235 12.978 64.5275 12.87 64.1675 12.654C63.8195 12.438 63.5375 12.156 63.3215 11.808C63.1175 11.46 63.0155 11.07 63.0155 10.638V6.786H71.6735V4.932C71.6735 4.812 71.6315 4.71 71.5475 4.626C71.4635 4.53 71.3615 4.482 71.2415 4.482H63.0155V2.538H71.2955C71.7275 2.538 72.1175 2.646 72.4655 2.862C72.8255 3.066 73.1075 3.348 73.3115 3.708C73.5275 4.068 73.6355 4.458 73.6355 4.878V12.978H65.3555ZM65.4095 11.034H71.6735V8.604H64.9595V10.584C64.9595 10.704 65.0015 10.812 65.0855 10.908C65.1815 10.992 65.2895 11.034 65.4095 11.034ZM77.0812 17.1V15.138H83.4712C83.5912 15.138 83.6932 15.09 83.7772 14.994C83.8732 14.91 83.9212 14.808 83.9212 14.688V12.978H77.5852C77.1652 12.978 76.7752 12.876 76.4152 12.672C76.0552 12.456 75.7672 12.168 75.5512 11.808C75.3472 11.448 75.2452 11.058 75.2452 10.638V4.878C75.2452 4.446 75.3532 4.056 75.5692 3.708C75.7852 3.36 76.0672 3.078 76.4152 2.862C76.7752 2.646 77.1652 2.538 77.5852 2.538H83.5252C83.9572 2.538 84.3472 2.646 84.6952 2.862C85.0552 3.078 85.3372 3.36 85.5412 3.708C85.7572 4.056 85.8652 4.446 85.8652 4.878V14.76C85.8652 15.192 85.7572 15.582 85.5412 15.93C85.3372 16.29 85.0552 16.572 84.6952 16.776C84.3472 16.992 83.9572 17.1 83.5252 17.1H77.0812ZM77.6392 11.034H83.4712C83.5912 11.034 83.6932 10.992 83.7772 10.908C83.8732 10.812 83.9212 10.704 83.9212 10.584V4.932C83.9212 4.812 83.8732 4.71 83.7772 4.626C83.6932 4.53 83.5912 4.482 83.4712 4.482H77.6392C77.5192 4.482 77.4112 4.53 77.3152 4.626C77.2312 4.71 77.1892 4.812 77.1892 4.932V10.584C77.1892 10.704 77.2312 10.812 77.3152 10.908C77.4112 10.992 77.5192 11.034 77.6392 11.034ZM89.7359 12.978C89.3039 12.978 88.9139 12.87 88.5659 12.654C88.2179 12.438 87.9359 12.156 87.7199 11.808C87.5039 11.46 87.3959 11.07 87.3959 10.638V4.878C87.3959 4.446 87.5039 4.056 87.7199 3.708C87.9359 3.36 88.2179 3.078 88.5659 2.862C88.9139 2.646 89.3039 2.538 89.7359 2.538H95.6759C96.1079 2.538 96.4979 2.646 96.8459 2.862C97.2059 3.066 97.4879 3.348 97.6919 3.708C97.9079 4.068 98.0159 4.458 98.0159 4.878V8.73H89.3399V10.584C89.3399 10.704 89.3819 10.812 89.4659 10.908C89.5619 10.992 89.6699 11.034 89.7899 11.034H98.0159V12.978H89.7359ZM89.3399 6.912H96.0539V4.932C96.0539 4.812 96.0119 4.71 95.9279 4.626C95.8439 4.53 95.7419 4.482 95.6219 4.482H89.7899C89.6699 4.482 89.5619 4.53 89.4659 4.626C89.3819 4.71 89.3399 4.812 89.3399 4.932V6.912ZM102.074 12.978C101.642 12.978 101.252 12.87 100.904 12.654C100.556 12.438 100.274 12.156 100.058 11.808C99.8425 11.46 99.7345 11.07 99.7345 10.638V10.368H101.678V10.584C101.678 10.704 101.72 10.812 101.804 10.908C101.9 10.992 102.008 11.034 102.128 11.034H107.96C108.08 11.034 108.182 10.992 108.266 10.908C108.35 10.812 108.392 10.704 108.392 10.584V9.18C108.392 9.06 108.35 8.958 108.266 8.874C108.182 8.778 108.08 8.73 107.96 8.73H102.074C101.642 8.73 101.252 8.628 100.904 8.424C100.556 8.208 100.274 7.926 100.058 7.578C99.8425 7.218 99.7345 6.822 99.7345 6.39V4.878C99.7345 4.446 99.8425 4.056 100.058 3.708C100.274 3.36 100.556 3.078 100.904 2.862C101.252 2.646 101.642 2.538 102.074 2.538H108.014C108.446 2.538 108.836 2.646 109.184 2.862C109.544 3.078 109.826 3.36 110.03 3.708C110.246 4.056 110.354 4.446 110.354 4.878V5.148H108.392V4.932C108.392 4.812 108.35 4.71 108.266 4.626C108.182 4.53 108.08 4.482 107.96 4.482H102.128C102.008 4.482 101.9 4.53 101.804 4.626C101.72 4.71 101.678 4.812 101.678 4.932V6.336C101.678 6.456 101.72 6.564 101.804 6.66C101.9 6.744 102.008 6.786 102.128 6.786H108.014C108.446 6.786 108.836 6.894 109.184 7.11C109.544 7.314 109.826 7.596 110.03 7.956C110.246 8.304 110.354 8.694 110.354 9.126V10.638C110.354 11.07 110.246 11.46 110.03 11.808C109.826 12.156 109.544 12.438 109.184 12.654C108.836 12.87 108.446 12.978 108.014 12.978H102.074Z" fill="black"/>
</svg>
