<svg width="147" height="22" viewBox="0 0 147 22" fill="none" xmlns="http://www.w3.org/2000/svg">
<path d="M3.64001 21.56C2.98667 21.56 2.38001 21.4013 1.82001 21.084C1.26001 20.748 0.812006 20.3093 0.476007 19.768C0.158673 19.208 6.3777e-06 18.592 6.3777e-06 17.92V16.744H3.02401V17.836C3.02401 18.0227 3.08934 18.1907 3.22001 18.34C3.36934 18.4707 3.53734 18.536 3.72401 18.536H16.436C16.6227 18.536 16.7813 18.4707 16.912 18.34C17.0427 18.1907 17.108 18.0227 17.108 17.836V13.692C17.108 13.4867 17.0427 13.3187 16.912 13.188C16.7813 13.0573 16.6227 12.992 16.436 12.992H3.64001C2.98667 12.992 2.38001 12.8333 1.82001 12.516C1.26001 12.18 0.812006 11.7413 0.476007 11.2C0.158673 10.64 6.3777e-06 10.024 6.3777e-06 9.352V5.04C6.3777e-06 4.368 0.158673 3.76133 0.476007 3.22C0.812006 2.66 1.26001 2.22133 1.82001 1.904C2.38001 1.568 2.98667 1.4 3.64001 1.4H16.52C17.1733 1.4 17.78 1.568 18.34 1.904C18.9 2.22133 19.3387 2.66 19.656 3.22C19.992 3.76133 20.16 4.368 20.16 5.04V6.216H17.108V5.124C17.108 4.93733 17.0427 4.77866 16.912 4.648C16.7813 4.49866 16.6227 4.424 16.436 4.424H3.72401C3.53734 4.424 3.36934 4.49866 3.22001 4.648C3.08934 4.77866 3.02401 4.93733 3.02401 5.124V9.268C3.02401 9.47333 3.08934 9.64133 3.22001 9.772C3.36934 9.90266 3.53734 9.968 3.72401 9.968H16.52C17.1733 9.968 17.78 10.136 18.34 10.472C18.9 10.7893 19.3387 11.228 19.656 11.788C19.992 12.3293 20.16 12.936 20.16 13.608V17.92C20.16 18.592 19.992 19.208 19.656 19.768C19.3387 20.3093 18.9 20.748 18.34 21.084C17.78 21.4013 17.1733 21.56 16.52 21.56H3.64001ZM26.7461 21.56C26.0741 21.56 25.4581 21.392 24.8981 21.056C24.3568 20.72 23.9181 20.2813 23.5821 19.74C23.2648 19.1987 23.1061 18.592 23.1061 17.92V0.195997H26.1301V5.32H32.7941V8.344H26.1301V17.836C26.1301 18.0227 26.1955 18.1907 26.3261 18.34C26.4755 18.4707 26.6435 18.536 26.8301 18.536H32.7941V21.56H26.7461ZM38.9134 21.56C38.2414 21.56 37.6254 21.392 37.0654 21.056C36.5241 20.72 36.0854 20.2813 35.7494 19.74C35.4321 19.1987 35.2734 18.592 35.2734 17.92V11.928H48.7414V9.044C48.7414 8.85733 48.6761 8.69866 48.5454 8.568C48.4148 8.41866 48.2561 8.344 48.0694 8.344H35.2734V5.32H48.1534C48.8254 5.32 49.4321 5.488 49.9734 5.824C50.5334 6.14133 50.9721 6.58 51.2894 7.14C51.6254 7.7 51.7934 8.30666 51.7934 8.96V21.56H38.9134ZM38.9974 18.536H48.7414V14.756H38.2974V17.836C38.2974 18.0227 38.3628 18.1907 38.4934 18.34C38.6428 18.4707 38.8108 18.536 38.9974 18.536ZM58.3829 21.56C57.7109 21.56 57.0949 21.392 56.5349 21.056C55.9935 20.72 55.5549 20.2813 55.2189 19.74C54.9015 19.1987 54.7429 18.592 54.7429 17.92V0.195997H57.7669V5.32H64.4309V8.344H57.7669V17.836C57.7669 18.0227 57.8322 18.1907 57.9629 18.34C58.1122 18.4707 58.2802 18.536 58.4669 18.536H64.4309V21.56H58.3829ZM66.6914 21.56V5.32H69.7154V21.56H66.6914ZM66.6914 3.024V-3.57628e-06H69.7154V3.024H66.6914ZM76.6725 21.56C76.0005 21.56 75.3939 21.392 74.8525 21.056C74.3112 20.72 73.8725 20.2813 73.5365 19.74C73.2005 19.1987 73.0325 18.592 73.0325 17.92V17.5H76.0565V17.836C76.0565 18.0227 76.1219 18.1907 76.2525 18.34C76.4019 18.4707 76.5699 18.536 76.7565 18.536H85.8285C86.0152 18.536 86.1739 18.4707 86.3045 18.34C86.4352 18.1907 86.5005 18.0227 86.5005 17.836V15.652C86.5005 15.4653 86.4352 15.3067 86.3045 15.176C86.1739 15.0267 86.0152 14.952 85.8285 14.952H76.6725C76.0005 14.952 75.3939 14.7933 74.8525 14.476C74.3112 14.14 73.8725 13.7013 73.5365 13.16C73.2005 12.6 73.0325 11.984 73.0325 11.312V8.96C73.0325 8.288 73.2005 7.68133 73.5365 7.14C73.8725 6.59866 74.3112 6.16 74.8525 5.824C75.3939 5.488 76.0005 5.32 76.6725 5.32H85.9125C86.5845 5.32 87.1912 5.488 87.7325 5.824C88.2925 6.16 88.7312 6.59866 89.0485 7.14C89.3845 7.68133 89.5525 8.288 89.5525 8.96V9.38H86.5005V9.044C86.5005 8.85733 86.4352 8.69866 86.3045 8.568C86.1739 8.41866 86.0152 8.344 85.8285 8.344H76.7565C76.5699 8.344 76.4019 8.41866 76.2525 8.568C76.1219 8.69866 76.0565 8.85733 76.0565 9.044V11.228C76.0565 11.4147 76.1219 11.5827 76.2525 11.732C76.4019 11.8627 76.5699 11.928 76.7565 11.928H85.9125C86.5845 11.928 87.1912 12.096 87.7325 12.432C88.2925 12.7493 88.7312 13.188 89.0485 13.748C89.3845 14.2893 89.5525 14.896 89.5525 15.568V17.92C89.5525 18.592 89.3845 19.1987 89.0485 19.74C88.7312 20.2813 88.2925 20.72 87.7325 21.056C87.1912 21.392 86.5845 21.56 85.9125 21.56H76.6725ZM96.0079 21.56C95.3359 21.56 94.7199 21.392 94.1599 21.056C93.6185 20.72 93.1799 20.2813 92.8439 19.74C92.5265 19.1987 92.3679 18.592 92.3679 17.92V0.195997H95.3919V5.32H102.056V8.344H95.3919V17.836C95.3919 18.0227 95.4572 18.1907 95.5879 18.34C95.7372 18.4707 95.9052 18.536 96.0919 18.536H102.056V21.56H96.0079ZM104.316 21.56V5.32H107.34V21.56H104.316ZM104.316 3.024V-3.57628e-06H107.34V3.024H104.316ZM113.807 21.56C113.135 21.56 112.529 21.392 111.987 21.056C111.446 20.72 111.007 20.2813 110.671 19.74C110.335 19.1987 110.167 18.592 110.167 17.92V8.96C110.167 8.288 110.335 7.68133 110.671 7.14C111.007 6.59866 111.446 6.16 111.987 5.824C112.529 5.488 113.135 5.32 113.807 5.32H126.631V8.344H113.891C113.705 8.344 113.537 8.41866 113.387 8.568C113.257 8.69866 113.191 8.85733 113.191 9.044V17.836C113.191 18.0227 113.257 18.1907 113.387 18.34C113.537 18.4707 113.705 18.536 113.891 18.536H126.687V21.56H113.807ZM133.192 21.56C132.52 21.56 131.913 21.392 131.372 21.056C130.831 20.72 130.392 20.2813 130.056 19.74C129.72 19.1987 129.552 18.592 129.552 17.92V17.5H132.576V17.836C132.576 18.0227 132.641 18.1907 132.772 18.34C132.921 18.4707 133.089 18.536 133.276 18.536H142.348C142.535 18.536 142.693 18.4707 142.824 18.34C142.955 18.1907 143.02 18.0227 143.02 17.836V15.652C143.02 15.4653 142.955 15.3067 142.824 15.176C142.693 15.0267 142.535 14.952 142.348 14.952H133.192C132.52 14.952 131.913 14.7933 131.372 14.476C130.831 14.14 130.392 13.7013 130.056 13.16C129.72 12.6 129.552 11.984 129.552 11.312V8.96C129.552 8.288 129.72 7.68133 130.056 7.14C130.392 6.59866 130.831 6.16 131.372 5.824C131.913 5.488 132.52 5.32 133.192 5.32H142.432C143.104 5.32 143.711 5.488 144.252 5.824C144.812 6.16 145.251 6.59866 145.568 7.14C145.904 7.68133 146.072 8.288 146.072 8.96V9.38H143.02V9.044C143.02 8.85733 142.955 8.69866 142.824 8.568C142.693 8.41866 142.535 8.344 142.348 8.344H133.276C133.089 8.344 132.921 8.41866 132.772 8.568C132.641 8.69866 132.576 8.85733 132.576 9.044V11.228C132.576 11.4147 132.641 11.5827 132.772 11.732C132.921 11.8627 133.089 11.928 133.276 11.928H142.432C143.104 11.928 143.711 12.096 144.252 12.432C144.812 12.7493 145.251 13.188 145.568 13.748C145.904 14.2893 146.072 14.896 146.072 15.568V17.92C146.072 18.592 145.904 19.1987 145.568 19.74C145.251 20.2813 144.812 20.72 144.252 21.056C143.711 21.392 143.104 21.56 142.432 21.56H133.192Z" fill="black"/>
</svg>
