<svg width="176" height="22" viewBox="0 0 176 22" fill="none" xmlns="http://www.w3.org/2000/svg">
<path d="M8.568 21.56V4.424H2.48104e-06V1.4H20.16V4.424H11.592V21.56H8.568ZM25.7541 21.56C25.0821 21.56 24.4754 21.392 23.9341 21.056C23.3928 20.72 22.9541 20.2813 22.6181 19.74C22.2821 19.1987 22.1141 18.592 22.1141 17.92V8.96C22.1141 8.288 22.2821 7.68133 22.6181 7.14C22.9541 6.59866 23.3928 6.16 23.9341 5.824C24.4754 5.488 25.0821 5.32 25.7541 5.32H34.9941C35.6661 5.32 36.2728 5.488 36.8141 5.824C37.3741 6.14133 37.8128 6.58 38.1301 7.14C38.4661 7.7 38.6341 8.30666 38.6341 8.96V14.952H25.1381V17.836C25.1381 18.0227 25.2034 18.1907 25.3341 18.34C25.4834 18.4707 25.6514 18.536 25.8381 18.536H38.6341V21.56H25.7541ZM25.1381 12.124H35.5821V9.044C35.5821 8.85733 35.5168 8.69866 35.3861 8.568C35.2554 8.41866 35.0968 8.344 34.9101 8.344H25.8381C25.6514 8.344 25.4834 8.41866 25.3341 8.568C25.2034 8.69866 25.1381 8.85733 25.1381 9.044V12.124ZM44.5393 21.56C43.8673 21.56 43.2606 21.392 42.7193 21.056C42.1779 20.72 41.7393 20.2813 41.4033 19.74C41.0673 19.1987 40.8993 18.592 40.8993 17.92V8.96C40.8993 8.288 41.0673 7.68133 41.4033 7.14C41.7393 6.59866 42.1779 6.16 42.7193 5.824C43.2606 5.488 43.8673 5.32 44.5393 5.32H57.3633V8.344H44.6233C44.4366 8.344 44.2686 8.41866 44.1193 8.568C43.9886 8.69866 43.9233 8.85733 43.9233 9.044V17.836C43.9233 18.0227 43.9886 18.1907 44.1193 18.34C44.2686 18.4707 44.4366 18.536 44.6233 18.536H57.4193V21.56H44.5393ZM59.9051 21.56V-3.57628e-06H62.9291V5.32H72.7851C73.4385 5.32 74.0358 5.488 74.5771 5.824C75.1371 6.16 75.5851 6.59866 75.9211 7.14C76.2571 7.68133 76.4251 8.288 76.4251 8.96V21.56H73.4011V9.044C73.4011 8.85733 73.3265 8.69866 73.1771 8.568C73.0465 8.41866 72.8878 8.344 72.7011 8.344H63.6291C63.4425 8.344 63.2745 8.41866 63.1251 8.568C62.9945 8.69866 62.9291 8.85733 62.9291 9.044V21.56H59.9051Z" fill="black"/>
<path d="M90.3133 21.56C89.66 21.56 89.0533 21.4013 88.4933 21.084C87.9333 20.748 87.4853 20.3093 87.1493 19.768C86.832 19.208 86.6733 18.592 86.6733 17.92V16.744H89.6973V17.836C89.6973 18.0227 89.7627 18.1907 89.8933 18.34C90.0427 18.4707 90.2107 18.536 90.3973 18.536H103.109C103.296 18.536 103.455 18.4707 103.585 18.34C103.716 18.1907 103.781 18.0227 103.781 17.836V13.692C103.781 13.4867 103.716 13.3187 103.585 13.188C103.455 13.0573 103.296 12.992 103.109 12.992H90.3133C89.66 12.992 89.0533 12.8333 88.4933 12.516C87.9333 12.18 87.4853 11.7413 87.1493 11.2C86.832 10.64 86.6733 10.024 86.6733 9.352V5.04C86.6733 4.368 86.832 3.76133 87.1493 3.22C87.4853 2.66 87.9333 2.22133 88.4933 1.904C89.0533 1.568 89.66 1.4 90.3133 1.4H103.193C103.847 1.4 104.453 1.568 105.013 1.904C105.573 2.22133 106.012 2.66 106.329 3.22C106.665 3.76133 106.833 4.368 106.833 5.04V6.216H103.781V5.124C103.781 4.93733 103.716 4.77866 103.585 4.648C103.455 4.49866 103.296 4.424 103.109 4.424H90.3973C90.2107 4.424 90.0427 4.49866 89.8933 4.648C89.7627 4.77866 89.6973 4.93733 89.6973 5.124V9.268C89.6973 9.47333 89.7627 9.64133 89.8933 9.772C90.0427 9.90266 90.2107 9.968 90.3973 9.968H103.193C103.847 9.968 104.453 10.136 105.013 10.472C105.573 10.7893 106.012 11.228 106.329 11.788C106.665 12.3293 106.833 12.936 106.833 13.608V17.92C106.833 18.592 106.665 19.208 106.329 19.768C106.012 20.3093 105.573 20.748 105.013 21.084C104.453 21.4013 103.847 21.56 103.193 21.56H90.3133ZM113.419 21.56C112.747 21.56 112.131 21.392 111.571 21.056C111.03 20.72 110.591 20.2813 110.255 19.74C109.938 19.1987 109.779 18.592 109.779 17.92V0.195997H112.803V5.32H119.467V8.344H112.803V17.836C112.803 18.0227 112.869 18.1907 112.999 18.34C113.149 18.4707 113.317 18.536 113.503 18.536H119.467V21.56H113.419ZM125.587 21.56C124.915 21.56 124.299 21.392 123.739 21.056C123.197 20.72 122.759 20.2813 122.423 19.74C122.105 19.1987 121.947 18.592 121.947 17.92V11.928H135.415V9.044C135.415 8.85733 135.349 8.69866 135.219 8.568C135.088 8.41866 134.929 8.344 134.743 8.344H121.947V5.32H134.827C135.499 5.32 136.105 5.488 136.647 5.824C137.207 6.14133 137.645 6.58 137.963 7.14C138.299 7.7 138.467 8.30666 138.467 8.96V21.56H125.587ZM125.671 18.536H135.415V14.756H124.971V17.836C124.971 18.0227 125.036 18.1907 125.167 18.34C125.316 18.4707 125.484 18.536 125.671 18.536ZM144.481 21.56C143.809 21.56 143.202 21.392 142.661 21.056C142.119 20.72 141.681 20.2813 141.345 19.74C141.009 19.1987 140.841 18.592 140.841 17.92V8.96C140.841 8.288 141.009 7.68133 141.345 7.14C141.681 6.59866 142.119 6.16 142.661 5.824C143.202 5.488 143.809 5.32 144.481 5.32H157.305V8.344H144.565C144.378 8.344 144.21 8.41866 144.061 8.568C143.93 8.69866 143.865 8.85733 143.865 9.044V17.836C143.865 18.0227 143.93 18.1907 144.061 18.34C144.21 18.4707 144.378 18.536 144.565 18.536H157.361V21.56H144.481ZM159.765 21.56V-3.57628e-06H162.789V11.928H166.429L172.505 5.32H175.977V5.88L169.117 13.44L175.977 21V21.56H172.505L166.429 14.952H162.789V21.56H159.765Z" fill="#FF0000"/>
</svg>
