<svg width="180" height="14" viewBox="0 0 180 14" fill="none" xmlns="http://www.w3.org/2000/svg">
<path d="M5.50801 13.86V2.84402H1.46739e-05V0.900015H12.96V2.84402H7.45201V13.86H5.50801ZM14.9918 13.86C14.5598 13.86 14.1698 13.752 13.8218 13.536C13.4738 13.32 13.1918 13.038 12.9758 12.69C12.7598 12.342 12.6518 11.952 12.6518 11.52V5.76002C12.6518 5.32802 12.7598 4.93802 12.9758 4.59002C13.1918 4.24202 13.4738 3.96002 13.8218 3.74402C14.1698 3.52802 14.5598 3.42002 14.9918 3.42002H20.9318C21.3638 3.42002 21.7538 3.52802 22.1018 3.74402C22.4618 3.94802 22.7438 4.23002 22.9478 4.59002C23.1638 4.95002 23.2718 5.34002 23.2718 5.76002V11.52C23.2718 11.952 23.1638 12.342 22.9478 12.69C22.7438 13.038 22.4618 13.32 22.1018 13.536C21.7538 13.752 21.3638 13.86 20.9318 13.86H14.9918ZM15.0458 11.916H20.8778C20.9978 11.916 21.0998 11.874 21.1838 11.79C21.2678 11.694 21.3098 11.586 21.3098 11.466V5.81402C21.3098 5.69402 21.2678 5.59202 21.1838 5.50802C21.0998 5.41202 20.9978 5.36402 20.8778 5.36402H15.0458C14.9258 5.36402 14.8178 5.41202 14.7218 5.50802C14.6378 5.59202 14.5958 5.69402 14.5958 5.81402V11.466C14.5958 11.586 14.6378 11.694 14.7218 11.79C14.8178 11.874 14.9258 11.916 15.0458 11.916ZM27.0679 13.86C26.6359 13.86 26.2459 13.752 25.8979 13.536C25.5499 13.32 25.2679 13.038 25.0519 12.69C24.8359 12.342 24.7279 11.952 24.7279 11.52V5.76002C24.7279 5.32802 24.8359 4.93802 25.0519 4.59002C25.2679 4.24202 25.5499 3.96002 25.8979 3.74402C26.2459 3.52802 26.6359 3.42002 27.0679 3.42002H33.0079C33.4399 3.42002 33.8299 3.52802 34.1779 3.74402C34.5379 3.94802 34.8199 4.23002 35.0239 4.59002C35.2399 4.95002 35.3479 5.34002 35.3479 5.76002V11.52C35.3479 11.952 35.2399 12.342 35.0239 12.69C34.8199 13.038 34.5379 13.32 34.1779 13.536C33.8299 13.752 33.4399 13.86 33.0079 13.86H27.0679ZM27.1219 11.916H32.9539C33.0739 11.916 33.1759 11.874 33.2599 11.79C33.3439 11.694 33.3859 11.586 33.3859 11.466V5.81402C33.3859 5.69402 33.3439 5.59202 33.2599 5.50802C33.1759 5.41202 33.0739 5.36402 32.9539 5.36402H27.1219C27.0019 5.36402 26.8939 5.41202 26.7979 5.50802C26.7139 5.59202 26.6719 5.69402 26.6719 5.81402V11.466C26.6719 11.586 26.7139 11.694 26.7979 11.79C26.8939 11.874 27.0019 11.916 27.1219 11.916ZM39.1445 13.86C38.7125 13.86 38.3225 13.752 37.9745 13.536C37.6265 13.32 37.3445 13.038 37.1285 12.69C36.9125 12.342 36.8045 11.952 36.8045 11.52V1.51396e-05H38.7485V11.466C38.7485 11.586 38.7905 11.694 38.8745 11.79C38.9705 11.874 39.0785 11.916 39.1985 11.916H41.0885V13.86H39.1445ZM44.7503 13.86C44.3183 13.86 43.9283 13.752 43.5803 13.536C43.2323 13.32 42.9503 13.038 42.7343 12.69C42.5183 12.342 42.4103 11.952 42.4103 11.52V11.25H44.3543V11.466C44.3543 11.586 44.3963 11.694 44.4803 11.79C44.5763 11.874 44.6843 11.916 44.8043 11.916H50.6363C50.7563 11.916 50.8583 11.874 50.9423 11.79C51.0263 11.694 51.0683 11.586 51.0683 11.466V10.062C51.0683 9.94202 51.0263 9.84002 50.9423 9.75602C50.8583 9.66002 50.7563 9.61202 50.6363 9.61202H44.7503C44.3183 9.61202 43.9283 9.51002 43.5803 9.30602C43.2323 9.09002 42.9503 8.80802 42.7343 8.46002C42.5183 8.10002 42.4103 7.70402 42.4103 7.27202V5.76002C42.4103 5.32802 42.5183 4.93802 42.7343 4.59002C42.9503 4.24202 43.2323 3.96002 43.5803 3.74402C43.9283 3.52802 44.3183 3.42002 44.7503 3.42002H50.6903C51.1223 3.42002 51.5123 3.52802 51.8603 3.74402C52.2203 3.96002 52.5023 4.24202 52.7063 4.59002C52.9223 4.93802 53.0303 5.32802 53.0303 5.76002V6.03002H51.0683V5.81402C51.0683 5.69402 51.0263 5.59202 50.9423 5.50802C50.8583 5.41202 50.7563 5.36402 50.6363 5.36402H44.8043C44.6843 5.36402 44.5763 5.41202 44.4803 5.50802C44.3963 5.59202 44.3543 5.69402 44.3543 5.81402V7.21802C44.3543 7.33802 44.3963 7.44602 44.4803 7.54202C44.5763 7.62602 44.6843 7.66802 44.8043 7.66802H50.6903C51.1223 7.66802 51.5123 7.77602 51.8603 7.99202C52.2203 8.19602 52.5023 8.47802 52.7063 8.83802C52.9223 9.18602 53.0303 9.57602 53.0303 10.008V11.52C53.0303 11.952 52.9223 12.342 52.7063 12.69C52.5023 13.038 52.2203 13.32 51.8603 13.536C51.5123 13.752 51.1223 13.86 50.6903 13.86H44.7503ZM62.4008 13.86C61.9808 13.86 61.5908 13.758 61.2308 13.554C60.8828 13.338 60.6008 13.056 60.3848 12.708C60.1688 12.348 60.0608 11.952 60.0608 11.52V7.84802C60.0608 7.58402 60.1868 7.32002 60.4388 7.05602C60.6908 6.78002 61.0388 6.61202 61.4828 6.55202C61.0148 6.15602 60.7808 5.67602 60.7808 5.11202V3.25802C60.7808 2.82602 60.8828 2.43602 61.0868 2.08802C61.3028 1.72802 61.5848 1.44602 61.9328 1.24202C62.2928 1.02602 62.6888 0.918015 63.1208 0.918015H70.1228C70.4948 0.918015 70.8428 1.00802 71.1668 1.18801C71.4908 1.36802 71.7668 1.60802 71.9948 1.90802C72.2348 2.19602 72.3968 2.51402 72.4808 2.86202V4.06802H70.5188V3.33002C70.5188 3.21002 70.4768 3.10802 70.3928 3.02401C70.3088 2.94002 70.2008 2.89802 70.0688 2.89802H63.1568C63.0368 2.89802 62.9348 2.94002 62.8508 3.02401C62.7668 3.10802 62.7248 3.21002 62.7248 3.33002V5.63402L71.0588 9.84602V7.63202H73.0028V10.584L75.2888 11.934V13.788L72.8048 12.384C72.5888 12.828 72.2888 13.188 71.9048 13.464C71.5208 13.728 71.1128 13.86 70.6808 13.86H62.4008ZM62.4548 11.916H69.8888C70.0088 11.916 70.1348 11.88 70.2668 11.808C70.3988 11.724 70.5128 11.622 70.6088 11.502L62.7248 7.54202L62.4548 7.48802C62.3348 7.48802 62.2268 7.54802 62.1308 7.66802C62.0468 7.78802 62.0048 7.98002 62.0048 8.24402V11.466C62.0048 11.586 62.0468 11.694 62.1308 11.79C62.2268 11.874 62.3348 11.916 62.4548 11.916ZM82.2281 13.86V0.918015H92.8301C93.2621 0.918015 93.6581 1.02602 94.0181 1.24202C94.3781 1.45802 94.6601 1.74602 94.8641 2.10601C95.0801 2.45402 95.1881 2.83802 95.1881 3.25802V6.89402C95.1881 7.32602 95.0801 7.72202 94.8641 8.08202C94.6601 8.43002 94.3781 8.71202 94.0181 8.92802C93.6581 9.13202 93.2621 9.23402 92.8301 9.23402L84.1721 9.25202V13.86H82.2281ZM84.6221 7.27202H92.7941C92.9141 7.27202 93.0161 7.23002 93.1001 7.14602C93.1841 7.06202 93.2261 6.96002 93.2261 6.84002V3.31202C93.2261 3.19202 93.1841 3.09002 93.1001 3.00602C93.0161 2.91002 92.9141 2.86202 92.7941 2.86202H84.6221C84.5021 2.86202 84.3941 2.91002 84.2981 3.00602C84.2141 3.09002 84.1721 3.19202 84.1721 3.31202V6.84002C84.1721 6.96002 84.2141 7.06202 84.2981 7.14602C84.3941 7.23002 84.5021 7.27202 84.6221 7.27202ZM98.7344 13.86C98.3024 13.86 97.9124 13.752 97.5644 13.536C97.2164 13.32 96.9344 13.038 96.7184 12.69C96.5024 12.342 96.3944 11.952 96.3944 11.52V1.51396e-05H98.3384V11.466C98.3384 11.586 98.3804 11.694 98.4644 11.79C98.5604 11.874 98.6684 11.916 98.7884 11.916H100.678V13.86H98.7344ZM104.377 13.86C103.945 13.86 103.549 13.752 103.189 13.536C102.841 13.32 102.559 13.038 102.343 12.69C102.139 12.342 102.037 11.952 102.037 11.52V7.66802H110.695V5.81402C110.695 5.69402 110.653 5.59202 110.569 5.50802C110.485 5.41202 110.383 5.36402 110.263 5.36402H102.037V3.42002H110.317C110.749 3.42002 111.139 3.52802 111.487 3.74402C111.847 3.94802 112.129 4.23002 112.333 4.59002C112.549 4.95002 112.657 5.34002 112.657 5.76002V13.86H104.377ZM104.431 11.916H110.695V9.48602H103.981V11.466C103.981 11.586 104.023 11.694 104.107 11.79C104.203 11.874 104.311 11.916 104.431 11.916ZM116.893 13.86C116.461 13.86 116.065 13.752 115.705 13.536C115.357 13.32 115.075 13.038 114.859 12.69C114.655 12.342 114.553 11.952 114.553 11.52V0.126016H116.497V3.42002H120.781V5.36402H116.497V11.466C116.497 11.586 116.539 11.694 116.623 11.79C116.719 11.874 116.827 11.916 116.947 11.916H120.781V13.86H116.893ZM122.199 13.86V2.34002C122.199 1.90801 122.301 1.51801 122.505 1.17002C122.721 0.810015 123.003 0.528015 123.351 0.324015C123.711 0.108015 124.107 1.51396e-05 124.539 1.51396e-05H128.427V1.94401H124.593C124.473 1.94401 124.365 1.99201 124.269 2.08802C124.185 2.17202 124.143 2.27402 124.143 2.39402V3.42002H128.427V5.36402H124.143V13.86H122.199ZM132.115 13.86C131.683 13.86 131.293 13.752 130.945 13.536C130.597 13.32 130.315 13.038 130.099 12.69C129.883 12.342 129.775 11.952 129.775 11.52V5.76002C129.775 5.32802 129.883 4.93802 130.099 4.59002C130.315 4.24202 130.597 3.96002 130.945 3.74402C131.293 3.52802 131.683 3.42002 132.115 3.42002H138.055C138.487 3.42002 138.877 3.52802 139.225 3.74402C139.585 3.94802 139.867 4.23002 140.071 4.59002C140.287 4.95002 140.395 5.34002 140.395 5.76002V11.52C140.395 11.952 140.287 12.342 140.071 12.69C139.867 13.038 139.585 13.32 139.225 13.536C138.877 13.752 138.487 13.86 138.055 13.86H132.115ZM132.169 11.916H138.001C138.121 11.916 138.223 11.874 138.307 11.79C138.391 11.694 138.433 11.586 138.433 11.466V5.81402C138.433 5.69402 138.391 5.59202 138.307 5.50802C138.223 5.41202 138.121 5.36402 138.001 5.36402H132.169C132.049 5.36402 131.941 5.41202 131.845 5.50802C131.761 5.59202 131.719 5.69402 131.719 5.81402V11.466C131.719 11.586 131.761 11.694 131.845 11.79C131.941 11.874 132.049 11.916 132.169 11.916ZM141.974 13.86V5.76002C141.974 5.32802 142.082 4.93802 142.298 4.59002C142.514 4.24202 142.796 3.96002 143.144 3.74402C143.504 3.52802 143.894 3.42002 144.314 3.42002H150.146V5.36402H144.368C144.248 5.36402 144.14 5.41202 144.044 5.50802C143.96 5.59202 143.918 5.69402 143.918 5.81402V13.86H141.974ZM151.309 13.86V3.42002H164.647C165.091 3.42002 165.487 3.52802 165.835 3.74402C166.183 3.96002 166.459 4.24202 166.663 4.59002C166.879 4.93802 166.987 5.32802 166.987 5.76002V13.86H165.061V5.81402C165.061 5.69402 165.013 5.59202 164.917 5.50802C164.833 5.41202 164.731 5.36402 164.611 5.36402H160.597C160.465 5.36402 160.357 5.41202 160.273 5.50802C160.189 5.59202 160.147 5.69402 160.147 5.81402V13.86H158.185V5.81402C158.185 5.69402 158.137 5.59202 158.041 5.50802C157.957 5.41202 157.855 5.36402 157.735 5.36402H153.703C153.583 5.36402 153.481 5.41202 153.397 5.50802C153.313 5.59202 153.271 5.69402 153.271 5.81402V13.86H151.309ZM171.137 13.86C170.705 13.86 170.315 13.752 169.967 13.536C169.619 13.32 169.337 13.038 169.121 12.69C168.905 12.342 168.797 11.952 168.797 11.52V11.25H170.741V11.466C170.741 11.586 170.783 11.694 170.867 11.79C170.963 11.874 171.071 11.916 171.191 11.916H177.023C177.143 11.916 177.245 11.874 177.329 11.79C177.413 11.694 177.455 11.586 177.455 11.466V10.062C177.455 9.94202 177.413 9.84002 177.329 9.75602C177.245 9.66002 177.143 9.61202 177.023 9.61202H171.137C170.705 9.61202 170.315 9.51002 169.967 9.30602C169.619 9.09002 169.337 8.80802 169.121 8.46002C168.905 8.10002 168.797 7.70402 168.797 7.27202V5.76002C168.797 5.32802 168.905 4.93802 169.121 4.59002C169.337 4.24202 169.619 3.96002 169.967 3.74402C170.315 3.52802 170.705 3.42002 171.137 3.42002H177.077C177.509 3.42002 177.899 3.52802 178.247 3.74402C178.607 3.96002 178.889 4.24202 179.093 4.59002C179.309 4.93802 179.417 5.32802 179.417 5.76002V6.03002H177.455V5.81402C177.455 5.69402 177.413 5.59202 177.329 5.50802C177.245 5.41202 177.143 5.36402 177.023 5.36402H171.191C171.071 5.36402 170.963 5.41202 170.867 5.50802C170.783 5.59202 170.741 5.69402 170.741 5.81402V7.21802C170.741 7.33802 170.783 7.44602 170.867 7.54202C170.963 7.62602 171.071 7.66802 171.191 7.66802H177.077C177.509 7.66802 177.899 7.77602 178.247 7.99202C178.607 8.19602 178.889 8.47802 179.093 8.83802C179.309 9.18602 179.417 9.57602 179.417 10.008V11.52C179.417 11.952 179.309 12.342 179.093 12.69C178.889 13.038 178.607 13.32 178.247 13.536C177.899 13.752 177.509 13.86 177.077 13.86H171.137Z" fill="black"/>
</svg>
