<svg width="162" height="22" viewBox="0 0 162 22" fill="none" xmlns="http://www.w3.org/2000/svg">
<path d="M7.33602 21.56L1.95354e-05 1.4H3.22002L8.56802 16.072L13.916 1.4H17.108L22.484 16.072L27.804 1.4H31.052L23.716 21.56H21.224L15.512 5.88L9.80002 21.56H7.33602ZM33.2351 21.56V-3.57628e-06H36.2591V5.32H46.1151C46.7685 5.32 47.3658 5.488 47.9071 5.824C48.4671 6.16 48.9151 6.59866 49.2511 7.14C49.5871 7.68133 49.7551 8.288 49.7551 8.96V21.56H46.7311V9.044C46.7311 8.85733 46.6565 8.69866 46.5071 8.568C46.3765 8.41866 46.2178 8.344 46.0311 8.344H36.9591C36.7725 8.344 36.6045 8.41866 36.4551 8.568C36.3245 8.69866 36.2591 8.85733 36.2591 9.044V21.56H33.2351ZM55.4943 21.56C54.8223 21.56 54.2156 21.392 53.6743 21.056C53.1329 20.72 52.6943 20.2813 52.3583 19.74C52.0223 19.1987 51.8543 18.592 51.8543 17.92V8.96C51.8543 8.288 52.0223 7.68133 52.3583 7.14C52.6943 6.59866 53.1329 6.16 53.6743 5.824C54.2156 5.488 54.8223 5.32 55.4943 5.32H64.7343C65.4063 5.32 66.0129 5.488 66.5543 5.824C67.1143 6.14133 67.5529 6.58 67.8703 7.14C68.2063 7.7 68.3743 8.30666 68.3743 8.96V17.92C68.3743 18.592 68.2063 19.1987 67.8703 19.74C67.5529 20.2813 67.1143 20.72 66.5543 21.056C66.0129 21.392 65.4063 21.56 64.7343 21.56H55.4943ZM55.5783 18.536H64.6503C64.8369 18.536 64.9956 18.4707 65.1263 18.34C65.2569 18.1907 65.3223 18.0227 65.3223 17.836V9.044C65.3223 8.85733 65.2569 8.69866 65.1263 8.568C64.9956 8.41866 64.8369 8.344 64.6503 8.344H55.5783C55.3916 8.344 55.2236 8.41866 55.0743 8.568C54.9436 8.69866 54.8783 8.85733 54.8783 9.044V17.836C54.8783 18.0227 54.9436 18.1907 55.0743 18.34C55.2236 18.4707 55.3916 18.536 55.5783 18.536ZM79.5581 21.56V5.04C79.5581 4.368 79.7167 3.76133 80.0341 3.22C80.3701 2.66 80.8087 2.22133 81.3501 1.904C81.9101 1.568 82.5261 1.4 83.1981 1.4H96.0501C96.7221 1.4 97.3381 1.568 97.8981 1.904C98.4581 2.22133 98.8967 2.66 99.2141 3.22C99.5501 3.76133 99.7181 4.368 99.7181 5.04V21.56H96.6661V14.504H82.5821V21.56H79.5581ZM82.5821 11.48H96.6661V5.124C96.6661 4.93733 96.6007 4.77866 96.4701 4.648C96.3394 4.49866 96.1807 4.424 95.9941 4.424H83.2821C83.0954 4.424 82.9274 4.49866 82.7781 4.648C82.6474 4.77866 82.5821 4.93733 82.5821 5.124V11.48ZM102.852 21.56V5.32H123.6C124.291 5.32 124.907 5.488 125.448 5.824C125.99 6.16 126.419 6.59866 126.736 7.14C127.072 7.68133 127.24 8.288 127.24 8.96V21.56H124.244V9.044C124.244 8.85733 124.17 8.69866 124.02 8.568C123.89 8.41866 123.731 8.344 123.544 8.344H117.3C117.095 8.344 116.927 8.41866 116.796 8.568C116.666 8.69866 116.6 8.85733 116.6 9.044V21.56H113.548V9.044C113.548 8.85733 113.474 8.69866 113.324 8.568C113.194 8.41866 113.035 8.344 112.848 8.344H106.576C106.39 8.344 106.231 8.41866 106.1 8.568C105.97 8.69866 105.904 8.85733 105.904 9.044V21.56H102.852ZM138.317 21.56V1.4H141.341V21.56H138.317ZM146.853 16.016V14.448C146.853 13.776 147.011 13.1693 147.329 12.628C147.665 12.068 148.103 11.6293 148.645 11.312C149.205 10.9947 149.821 10.836 150.493 10.836H157.661C157.866 10.836 158.034 10.7707 158.165 10.64C158.295 10.4907 158.361 10.3227 158.361 10.136V5.152C158.361 4.96533 158.295 4.80666 158.165 4.676C158.034 4.52666 157.866 4.452 157.661 4.452H143.689V1.4L157.745 1.428C158.417 1.428 159.023 1.596 159.565 1.932C160.125 2.24933 160.563 2.688 160.881 3.248C161.217 3.78933 161.385 4.396 161.385 5.068V10.22C161.385 10.8733 161.217 11.48 160.881 12.04C160.563 12.5813 160.125 13.02 159.565 13.356C159.023 13.692 158.417 13.86 157.745 13.86H150.577C150.39 13.86 150.222 13.9347 150.073 14.084C149.942 14.2147 149.877 14.3733 149.877 14.56V16.016H146.853ZM146.853 21.56V18.536H149.877V21.56H146.853Z" fill="white"/>
</svg>
